VotoSerifGX-ExtendedDisplay.ufo
<glyph name="quotedbl" format="2">
  <advance width="360"/>
  <unicode hex="0022"/>
  <outline>
    <contour>
      <point x="90" y="479" type="line"/>
      <point x="102" y="479" type="line"/>
      <point x="161" y="714" type="line"/>
      <point x="30" y="714" type="line"/>
    </contour>
    <contour>
      <point x="259" y="479" type="line"/>
      <point x="270" y="479" type="line"/>
      <point x="330" y="714" type="line"/>
      <point x="199" y="714" type="line"/>
    </contour>
  </outline>
</glyph>
<glyph name="quotesingle" format="2">
  <advance width="191"/>
  <unicode hex="0027"/>
  <outline>
    <contour>
      <point x="90" y="479" type="line"/>
      <point x="102" y="479" type="line"/>
      <point x="161" y="714" type="line"/>
      <point x="30" y="714" type="line"/>
    </contour>
  </outline>
</glyph>
<glyph name="question" format="2">
  <advance width="614"/>
  <unicode hex="003F"/>
  <outline>
    <contour>
      <point x="280" y="224" type="line"/>
      <point x="295" y="224" type="line"/>
      <point x="332" y="339" type="line"/>
      <point x="464" y="375"/>
      <point x="532" y="437"/>
      <point x="532" y="535" type="curve" smooth="yes"/>
      <point x="532" y="643"/>
      <point x="441" y="724"/>
      <point x="279" y="724" type="curve" smooth="yes"/>
      <point x="106" y="724"/>
      <point x="50" y="652"/>
      <point x="50" y="611" type="curve" smooth="yes"/>
      <point x="50" y="573"/>
      <point x="77" y="553"/>
      <point x="143" y="553" type="curve"/>
      <point x="143" y="650"/>
      <point x="164" y="714"/>
      <point x="282" y="714" type="curve" smooth="yes"/>
      <point x="377" y="714"/>
      <point x="430" y="649"/>
      <point x="430" y="529" type="curve" smooth="yes"/>
      <point x="430" y="382"/>
      <point x="318" y="339"/>
      <point x="247" y="342" type="curve"/>
    </contour>
    <contour>
      <point x="283" y="-7" type="curve" smooth="yes"/>
      <point x="310" y="-7"/>
      <point x="334" y="8"/>
      <point x="334" y="55" type="curve" smooth="yes"/>
      <point x="334" y="103"/>
      <point x="310" y="116"/>
      <point x="283" y="116" type="curve" smooth="yes"/>
      <point x="255" y="116"/>
      <point x="233" y="103"/>
      <point x="233" y="55" type="curve" smooth="yes"/>
      <point x="233" y="8"/>
      <point x="255" y="-7"/>
    </contour>
  </outline>
</glyph>
<glyph name="C" format="2">
  <advance width="733"/>
  <unicode hex="0043"/>
  <anchor x="414" y="0" name="bottom"/>
  <anchor x="414" y="714" name="top"/>
  <anchor x="713" y="714" name="topright"/>
  <outline>
    <contour>
      <point x="427" y="-10" type="curve" smooth="yes"/>
      <point x="608" y="-10"/>
      <point x="682" y="73"/>
      <point x="682" y="116" type="curve" smooth="yes"/>
      <point x="682" y="138"/>
      <point x="670" y="144"/>
      <point x="657" y="147" type="curve"/>
      <point x="636" y="53"/>
      <point x="559" y="0"/>
      <point x="436" y="0" type="curve" smooth="yes"/>
      <point x="259" y="0"/>
      <point x="181" y="119"/>
      <point x="181" y="357" type="curve" smooth="yes"/>
      <point x="181" y="594"/>
      <point x="262" y="714"/>
      <point x="419" y="714" type="curve" smooth="yes"/>
      <point x="571" y="714"/>
      <point x="600" y="646"/>
      <point x="604" y="541" type="curve"/>
      <point x="663" y="541"/>
      <point x="687" y="567"/>
      <point x="687" y="607" type="curve" smooth="yes"/>
      <point x="687" y="665"/>
      <point x="622" y="724"/>
      <point x="426" y="724" type="curve" smooth="yes"/>
      <point x="194" y="724"/>
      <point x="67" y="585"/>
      <point x="67" y="357" type="curve" smooth="yes"/>
      <point x="67" y="130"/>
      <point x="174" y="-10"/>
    </contour>
  </outline>
</glyph>
<glyph name="H" format="2">
  <advance width="955"/>
  <unicode hex="0048"/>
  <anchor x="478" y="0" name="bottom"/>
  <anchor x="478" y="357" name="center"/>
  <anchor x="478" y="714" name="top"/>
  <anchor x="935" y="714" name="topright"/>
  <outline>
    <contour>
      <point x="47" y="0" type="line"/>
      <point x="382" y="0" type="line"/>
      <point x="382" y="10" type="line"/>
      <point x="326" y="10" type="line" smooth="yes"/>
      <point x="285" y="10"/>
      <point x="275" y="30"/>
      <point x="275" y="81" type="curve" smooth="yes"/>
      <point x="275" y="369" type="line"/>
      <point x="680" y="369" type="line"/>
      <point x="680" y="84" type="line" smooth="yes"/>
      <point x="680" y="29"/>
      <point x="669" y="10"/>
      <point x="627" y="10" type="curve" smooth="yes"/>
      <point x="573" y="10" type="line"/>
      <point x="573" y="0" type="line"/>
      <point x="906" y="0" type="line"/>
      <point x="906" y="10" type="line"/>
      <point x="841" y="10" type="line" smooth="yes"/>
      <point x="803" y="10"/>
      <point x="789" y="29"/>
      <point x="789" y="82" type="curve" smooth="yes"/>
      <point x="789" y="633" type="line" smooth="yes"/>
      <point x="789" y="689"/>
      <point x="802" y="704"/>
      <point x="841" y="704" type="curve" smooth="yes"/>
      <point x="906" y="704" type="line"/>
      <point x="906" y="714" type="line"/>
      <point x="573" y="714" type="line"/>
      <point x="573" y="704" type="line"/>
      <point x="627" y="704" type="line" smooth="yes"/>
      <point x="670" y="704"/>
      <point x="680" y="689"/>
      <point x="680" y="633" type="curve" smooth="yes"/>
      <point x="680" y="379" type="line"/>
      <point x="275" y="379" type="line"/>
      <point x="275" y="634" type="line" smooth="yes"/>
      <point x="275" y="689"/>
      <point x="285" y="704"/>
      <point x="326" y="704" type="curve" smooth="yes"/>
      <point x="382" y="704" type="line"/>
      <point x="382" y="714" type="line"/>
      <point x="47" y="714" type="line"/>
      <point x="47" y="704" type="line"/>
      <point x="110" y="704" type="line" smooth="yes"/>
      <point x="149" y="704"/>
      <point x="166" y="689"/>
      <point x="166" y="632" type="curve" smooth="yes"/>
      <point x="166" y="81" type="line" smooth="yes"/>
      <point x="166" y="30"/>
      <point x="153" y="10"/>
      <point x="114" y="10" type="curve" smooth="yes"/>
      <point x="47" y="10" type="line"/>
    </contour>
  </outline>
</glyph>
<glyph name="Q" format="2">
  <advance width="887"/>
  <unicode hex="0051"/>
  <anchor x="444" y="-227" name="bottom"/>
  <anchor x="444" y="714" name="top"/>
  <anchor x="867" y="714" name="topright"/>
  <outline>
    <contour>
      <point x="673" y="-227" type="curve" smooth="yes"/>
      <point x="717" y="-227" type="line"/>
      <point x="717" y="-217" type="line"/>
      <point x="698" y="-217" type="line" smooth="yes"/>
      <point x="589" y="-217"/>
      <point x="522" y="-154"/>
      <point x="509" y="-5" type="curve"/>
      <point x="717" y="15"/>
      <point x="818" y="143"/>
      <point x="818" y="358" type="curve" smooth="yes"/>
      <point x="818" y="575"/>
      <point x="705" y="725"/>
      <point x="446" y="725" type="curve" smooth="yes"/>
      <point x="187" y="725"/>
      <point x="68" y="572"/>
      <point x="68" y="359" type="curve" smooth="yes"/>
      <point x="68" y="129"/>
      <point x="181" y="11"/>
      <point x="396" y="-7" type="curve"/>
      <point x="413" y="-176"/>
      <point x="550" y="-227"/>
    </contour>
    <contour>
      <point x="445" y="0" type="curve" smooth="yes"/>
      <point x="264" y="0"/>
      <point x="182" y="116"/>
      <point x="182" y="358" type="curve" smooth="yes"/>
      <point x="182" y="574"/>
      <point x="255" y="715"/>
      <point x="446" y="715" type="curve" smooth="yes"/>
      <point x="634" y="715"/>
      <point x="704" y="594"/>
      <point x="704" y="358" type="curve" smooth="yes"/>
      <point x="704" y="118"/>
      <point x="632" y="0"/>
    </contour>
  </outline>
</glyph>
<glyph name="V" format="2">
  <advance width="811"/>
  <unicode hex="0056"/>
  <anchor x="407" y="0" name="bottom"/>
  <anchor x="407" y="714" name="top"/>
  <anchor x="807" y="714" name="topright"/>
  <outline>
    <contour>
      <point x="382" y="0" type="line"/>
      <point x="420" y="0" type="line"/>
      <point x="672" y="639" type="line" smooth="yes"/>
      <point x="694" y="696"/>
      <point x="701" y="704"/>
      <point x="741" y="704" type="curve" smooth="yes"/>
      <point x="788" y="704" type="line"/>
      <point x="788" y="714" type="line"/>
      <point x="521" y="714" type="line"/>
      <point x="521" y="704" type="line"/>
      <point x="616" y="704" type="line" smooth="yes"/>
      <point x="655" y="704"/>
      <point x="665" y="688"/>
      <point x="665" y="661" type="curve" smooth="yes"/>
      <point x="665" y="647"/>
      <point x="642" y="596"/>
      <point x="644" y="613" type="curve" smooth="yes"/>
      <point x="506" y="250" type="line" smooth="yes"/>
      <point x="482" y="200"/>
      <point x="464" y="152"/>
      <point x="446" y="109" type="curve"/>
      <point x="432" y="147"/>
      <point x="415" y="174"/>
      <point x="377" y="270" type="curve" smooth="yes"/>
      <point x="237" y="599" type="line" smooth="yes"/>
      <point x="233" y="607"/>
      <point x="209" y="657"/>
      <point x="209" y="677" type="curve" smooth="yes"/>
      <point x="209" y="692"/>
      <point x="215" y="704"/>
      <point x="253" y="704" type="curve" smooth="yes"/>
      <point x="325" y="704" type="line"/>
      <point x="325" y="714" type="line"/>
      <point x="0" y="714" type="line"/>
      <point x="0" y="704" type="line"/>
      <point x="33" y="704" type="line" smooth="yes"/>
      <point x="69" y="704"/>
      <point x="84" y="699"/>
      <point x="101" y="658" type="curve" smooth="yes"/>
    </contour>
  </outline>
</glyph>
<glyph name="W" format="2">
  <advance width="1263"/>
  <unicode hex="0057"/>
  <anchor x="620" y="0" name="bottom"/>
  <anchor x="620" y="714" name="top"/>
  <anchor x="1227" y="714" name="topright"/>
  <outline>
    <contour>
      <point x="367" y="0" type="line"/>
      <point x="426" y="0" type="line"/>
      <point x="605" y="643" type="line"/>
      <point x="801" y="0" type="line"/>
      <point x="867" y="0" type="line"/>
      <point x="1095" y="643" type="line" smooth="yes"/>
      <point x="1114" y="696"/>
      <point x="1125" y="704"/>
      <point x="1171" y="704" type="curve" smooth="yes"/>
      <point x="1210" y="704" type="line"/>
      <point x="1210" y="714" type="line"/>
      <point x="984" y="714" type="line"/>
      <point x="984" y="704" type="line"/>
      <point x="1026" y="704" type="line" smooth="yes"/>
      <point x="1074" y="704"/>
      <point x="1085" y="692"/>
      <point x="1085" y="664" type="curve" smooth="yes"/>
      <point x="1085" y="646"/>
      <point x="1078" y="622"/>
      <point x="1066" y="588" type="curve" smooth="yes"/>
      <point x="911" y="126" type="line" smooth="yes"/>
      <point x="901" y="113"/>
      <point x="881" y="51"/>
      <point x="876" y="43" type="curve"/>
      <point x="867" y="72"/>
      <point x="855" y="113"/>
      <point x="841" y="158" type="curve" smooth="yes"/>
      <point x="675" y="711" type="line"/>
      <point x="615" y="711" type="line"/>
      <point x="461" y="157" type="line" smooth="yes"/>
      <point x="455" y="140"/>
      <point x="447" y="113"/>
      <point x="439" y="79" type="curve"/>
      <point x="418" y="145"/>
      <point x="409" y="160"/>
      <point x="386" y="222" type="curve" smooth="yes"/>
      <point x="243" y="598" type="line" smooth="yes"/>
      <point x="231" y="630"/>
      <point x="222" y="655"/>
      <point x="222" y="667" type="curve" smooth="yes"/>
      <point x="222" y="692"/>
      <point x="235" y="704"/>
      <point x="285" y="704" type="curve" smooth="yes"/>
      <point x="335" y="704" type="line"/>
      <point x="335" y="714" type="line"/>
      <point x="14" y="714" type="line"/>
      <point x="14" y="704" type="line"/>
      <point x="32" y="704" type="line" smooth="yes"/>
      <point x="83" y="704"/>
      <point x="94" y="697"/>
      <point x="110" y="654" type="curve" smooth="yes"/>
    </contour>
  </outline>
</glyph>
<glyph name="X" format="2">
  <advance width="781"/>
  <unicode hex="0058"/>
  <anchor x="389" y="0" name="bottom"/>
  <anchor x="389" y="714" name="top"/>
  <anchor x="758" y="714" name="topright"/>
  <outline>
    <contour>
      <point x="10" y="0" type="line"/>
      <point x="256" y="0" type="line"/>
      <point x="256" y="10" type="line"/>
      <point x="208" y="10" type="line" smooth="yes"/>
      <point x="162" y="10"/>
      <point x="155" y="19"/>
      <point x="155" y="36" type="curve" smooth="yes"/>
      <point x="155" y="55"/>
      <point x="166" y="71"/>
      <point x="200" y="120" type="curve" smooth="yes"/>
      <point x="354" y="344" type="line"/>
      <point x="503" y="111" type="line" smooth="yes"/>
      <point x="526" y="79"/>
      <point x="537" y="61"/>
      <point x="537" y="42" type="curve" smooth="yes"/>
      <point x="537" y="22"/>
      <point x="526" y="10"/>
      <point x="488" y="10" type="curve" smooth="yes"/>
      <point x="466" y="10" type="line"/>
      <point x="466" y="0" type="line"/>
      <point x="778" y="0" type="line"/>
      <point x="778" y="10" type="line"/>
      <point x="744" y="10" type="line" smooth="yes"/>
      <point x="689" y="10"/>
      <point x="680" y="19"/>
      <point x="652" y="60" type="curve" smooth="yes"/>
      <point x="430" y="405" type="line"/>
      <point x="589" y="637" type="line" smooth="yes"/>
      <point x="627" y="691"/>
      <point x="640" y="704"/>
      <point x="689" y="704" type="curve" smooth="yes"/>
      <point x="738" y="704" type="line"/>
      <point x="738" y="714" type="line"/>
      <point x="505" y="714" type="line"/>
      <point x="505" y="704" type="line"/>
      <point x="539" y="704" type="line" smooth="yes"/>
      <point x="587" y="704"/>
      <point x="595" y="696"/>
      <point x="595" y="678" type="curve" smooth="yes"/>
      <point x="595" y="660"/>
      <point x="582" y="644"/>
      <point x="562" y="615" type="curve" smooth="yes"/>
      <point x="424" y="413" type="line"/>
      <point x="291" y="617" type="line" smooth="yes"/>
      <point x="274" y="642"/>
      <point x="266" y="654"/>
      <point x="266" y="674" type="curve" smooth="yes"/>
      <point x="266" y="692"/>
      <point x="280" y="704"/>
      <point x="327" y="704" type="curve" smooth="yes"/>
      <point x="339" y="704" type="line"/>
      <point x="339" y="714" type="line"/>
      <point x="27" y="714" type="line"/>
      <point x="27" y="704" type="line"/>
      <point x="67" y="704" type="line" smooth="yes"/>
      <point x="117" y="704"/>
      <point x="126" y="697"/>
      <point x="153" y="655" type="curve" smooth="yes"/>
      <point x="347" y="353" type="line"/>
      <point x="160" y="77" type="line" smooth="yes"/>
      <point x="121" y="21"/>
      <point x="108" y="10"/>
      <point x="68" y="10" type="curve" smooth="yes"/>
      <point x="10" y="10" type="line"/>
    </contour>
  </outline>
</glyph>
<glyph name="e" format="2">
  <advance width="638"/>
  <unicode hex="0065"/>
  <anchor x="329" y="0" name="bottom"/>
  <anchor x="329" y="536" name="top"/>
  <anchor x="618" y="536" name="topright"/>
  <outline>
    <contour>
      <point x="348" y="-10" type="curve" smooth="yes"/>
      <point x="479" y="-10"/>
      <point x="564" y="44"/>
      <point x="564" y="101" type="curve" smooth="yes"/>
      <point x="564" y="124"/>
      <point x="552" y="133"/>
      <point x="533" y="139" type="curve"/>
      <point x="514" y="50"/>
      <point x="468" y="2"/>
      <point x="374" y="2" type="curve" smooth="yes"/>
      <point x="250" y="2"/>
      <point x="174" y="93"/>
      <point x="176" y="279" type="curve"/>
      <point x="582" y="279" type="line"/>
      <point x="582" y="297" type="line" smooth="yes"/>
      <point x="582" y="459"/>
      <point x="484" y="546"/>
      <point x="334" y="546" type="curve" smooth="yes"/>
      <point x="163" y="546"/>
      <point x="67" y="453"/>
      <point x="67" y="264" type="curve" smooth="yes"/>
      <point x="67" y="87"/>
      <point x="170" y="-10"/>
    </contour>
    <contour>
      <point x="177" y="289" type="line"/>
      <point x="183" y="441"/>
      <point x="223" y="536"/>
      <point x="332" y="536" type="curve" smooth="yes"/>
      <point x="425" y="536"/>
      <point x="477" y="440"/>
      <point x="477" y="289" type="curve"/>
    </contour>
  </outline>
</glyph>
<glyph name="i" format="2">
  <advance width="380"/>
  <unicode hex="0069"/>
  <anchor x="189" y="0" name="bottom"/>
  <anchor x="188" y="756" name="top"/>
  <anchor x="316" y="756" name="topright"/>
  <outline>
    <contour>
      <point x="30" y="0" type="line"/>
      <point x="366" y="0" type="line"/>
      <point x="366" y="10" type="line"/>
      <point x="332" y="10" type="line" smooth="yes"/>
      <point x="263" y="10"/>
      <point x="250" y="19"/>
      <point x="250" y="81" type="curve" smooth="yes"/>
      <point x="250" y="536" type="line"/>
      <point x="44" y="536" type="line"/>
      <point x="44" y="526" type="line"/>
      <point x="71" y="526" type="line" smooth="yes"/>
      <point x="125" y="526"/>
      <point x="144" y="518"/>
      <point x="144" y="454" type="curve" smooth="yes"/>
      <point x="144" y="83" type="line" smooth="yes"/>
      <point x="144" y="19"/>
      <point x="131" y="10"/>
      <point x="62" y="10" type="curve" smooth="yes"/>
      <point x="30" y="10" type="line"/>
    </contour>
    <contour>
      <point x="192" y="640" type="curve" smooth="yes"/>
      <point x="222" y="640"/>
      <point x="245" y="658"/>
      <point x="245" y="698" type="curve" smooth="yes"/>
      <point x="245" y="739"/>
      <point x="222" y="756"/>
      <point x="192" y="756" type="curve" smooth="yes"/>
      <point x="161" y="756"/>
      <point x="138" y="739"/>
      <point x="138" y="698" type="curve" smooth="yes"/>
      <point x="138" y="658"/>
      <point x="161" y="640"/>
    </contour>
  </outline>
</glyph>
<glyph name="k" format="2">
  <advance width="696"/>
  <unicode hex="006B"/>
  <anchor x="348" y="0" name="bottom"/>
  <anchor x="348" y="760" name="top"/>
  <anchor x="688" y="760" name="topright"/>
  <outline>
    <contour>
      <point x="23" y="0" type="line"/>
      <point x="343" y="0" type="line"/>
      <point x="343" y="10" type="line"/>
      <point x="320" y="10" type="line" smooth="yes"/>
      <point x="260" y="10"/>
      <point x="240" y="14"/>
      <point x="240" y="78" type="curve" smooth="yes"/>
      <point x="240" y="208" type="line"/>
      <point x="318" y="276" type="line"/>
      <point x="431" y="113" type="line" smooth="yes"/>
      <point x="495" y="20"/>
      <point x="500" y="0"/>
      <point x="624" y="0" type="curve" smooth="yes"/>
      <point x="678" y="0" type="line"/>
      <point x="678" y="10" type="line"/>
      <point x="677" y="10" type="line" smooth="yes"/>
      <point x="632" y="10"/>
      <point x="599" y="42"/>
      <point x="536" y="139" type="curve" smooth="yes"/>
      <point x="392" y="339" type="line"/>
      <point x="501" y="428" type="line" smooth="yes"/>
      <point x="595" y="516"/>
      <point x="616" y="526"/>
      <point x="690" y="526" type="curve"/>
      <point x="690" y="536" type="line"/>
      <point x="492" y="536" type="line"/>
      <point x="492" y="526" type="line"/>
      <point x="526" y="526"/>
      <point x="548" y="522"/>
      <point x="548" y="505" type="curve" smooth="yes"/>
      <point x="548" y="493"/>
      <point x="539" y="489"/>
      <point x="471" y="431" type="curve" smooth="yes"/>
      <point x="239" y="225" type="line"/>
      <point x="240" y="281"/>
      <point x="240" y="312"/>
      <point x="240" y="367" type="curve" smooth="yes"/>
      <point x="240" y="760" type="line"/>
      <point x="23" y="760" type="line"/>
      <point x="23" y="750" type="line"/>
      <point x="66" y="750" type="line" smooth="yes"/>
      <point x="103" y="750"/>
      <point x="133" y="746"/>
      <point x="133" y="682" type="curve" smooth="yes"/>
      <point x="133" y="75" type="line" smooth="yes"/>
      <point x="133" y="14"/>
      <point x="107" y="10"/>
      <point x="54" y="10" type="curve" smooth="yes"/>
      <point x="23" y="10" type="line"/>
    </contour>
  </outline>
</glyph>
<glyph name="t" format="2">
  <advance width="412"/>
  <unicode hex="0074"/>
  <anchor x="229" y="0" name="bottom"/>
  <anchor x="206" y="268" name="center"/>
  <anchor x="181" y="659" name="top"/>
  <anchor x="348" y="659" name="topright"/>
  <outline>
    <contour>
      <point x="265" y="-10" type="curve" smooth="yes"/>
      <point x="318" y="-10"/>
      <point x="356" y="-1"/>
      <point x="383" y="7" type="curve"/>
      <point x="383" y="17" type="line"/>
      <point x="359" y="9"/>
      <point x="336" y="5"/>
      <point x="309" y="5" type="curve" smooth="yes"/>
      <point x="249" y="5"/>
      <point x="222" y="39"/>
      <point x="222" y="123" type="curve" smooth="yes"/>
      <point x="222" y="526" type="line"/>
      <point x="373" y="526" type="line"/>
      <point x="373" y="536" type="line"/>
      <point x="222" y="536" type="line"/>
      <point x="222" y="659" type="line"/>
      <point x="212" y="659" type="line"/>
      <point x="198" y="600"/>
      <point x="177" y="570"/>
      <point x="145" y="554" type="curve" smooth="yes"/>
      <point x="115" y="538"/>
      <point x="74" y="535"/>
      <point x="23" y="536" type="curve"/>
      <point x="23" y="526" type="line"/>
      <point x="115" y="526" type="line"/>
      <point x="115" y="145" type="line" smooth="yes"/>
      <point x="115" y="34"/>
      <point x="165" y="-10"/>
    </contour>
  </outline>
</glyph>
<glyph name="v" format="2">
  <advance width="695"/>
  <unicode hex="0076"/>
  <anchor x="352" y="0" name="bottom"/>
  <anchor x="352" y="536" name="top"/>
  <anchor x="699" y="536" name="topright"/>
  <outline>
    <contour>
      <point x="305" y="0" type="line"/>
      <point x="387" y="0" type="line"/>
      <point x="583" y="461" type="line" smooth="yes"/>
      <point x="604" y="513"/>
      <point x="612" y="526"/>
      <point x="662" y="526" type="curve" smooth="yes"/>
      <point x="690" y="526" type="line"/>
      <point x="690" y="536" type="line"/>
      <point x="471" y="536" type="line"/>
      <point x="471" y="526" type="line"/>
      <point x="536" y="526" type="line" smooth="yes"/>
      <point x="567" y="526"/>
      <point x="578" y="516"/>
      <point x="578" y="498" type="curve" smooth="yes"/>
      <point x="578" y="476"/>
      <point x="565" y="458"/>
      <point x="551" y="435" type="curve" smooth="yes"/>
      <point x="444" y="147" type="line" smooth="yes"/>
      <point x="419" y="97"/>
      <point x="400" y="58"/>
      <point x="391" y="35" type="curve"/>
      <point x="376" y="72"/>
      <point x="341" y="147"/>
      <point x="320" y="199" type="curve" smooth="yes"/>
      <point x="224" y="435" type="line" smooth="yes"/>
      <point x="214" y="460"/>
      <point x="199" y="488"/>
      <point x="199" y="501" type="curve" smooth="yes"/>
      <point x="199" y="517"/>
      <point x="206" y="526"/>
      <point x="245" y="526" type="curve" smooth="yes"/>
      <point x="278" y="526" type="line"/>
      <point x="278" y="536" type="line"/>
      <point x="11" y="536" type="line"/>
      <point x="11" y="526" type="line"/>
      <point x="69" y="526"/>
      <point x="76" y="523"/>
      <point x="94" y="480" type="curve" smooth="yes"/>
    </contour>
  </outline>
</glyph>
<glyph name="x" format="2">
  <advance width="683"/>
  <unicode hex="0078"/>
  <anchor x="342" y="0" name="bottom"/>
  <anchor x="342" y="536" name="top"/>
  <anchor x="663" y="536" name="topright"/>
  <outline>
    <contour>
      <point x="4" y="0" type="line"/>
      <point x="277" y="0" type="line"/>
      <point x="277" y="10" type="line"/>
      <point x="201" y="10" type="line" smooth="yes"/>
      <point x="149" y="10"/>
      <point x="134" y="21"/>
      <point x="134" y="36" type="curve" smooth="yes"/>
      <point x="134" y="47"/>
      <point x="147" y="68"/>
      <point x="166" y="88" type="curve" smooth="yes"/>
      <point x="316" y="267" type="line"/>
      <point x="437" y="104" type="line" smooth="yes"/>
      <point x="460" y="73"/>
      <point x="476" y="48"/>
      <point x="476" y="33" type="curve" smooth="yes"/>
      <point x="476" y="18"/>
      <point x="465" y="10"/>
      <point x="420" y="10" type="curve" smooth="yes"/>
      <point x="377" y="10" type="line"/>
      <point x="377" y="0" type="line"/>
      <point x="686" y="0" type="line"/>
      <point x="686" y="10" type="line"/>
      <point x="669" y="10" type="line" smooth="yes"/>
      <point x="620" y="10"/>
      <point x="600" y="22"/>
      <point x="571" y="62" type="curve" smooth="yes"/>
      <point x="387" y="314" type="line"/>
      <point x="519" y="466" type="line" smooth="yes"/>
      <point x="561" y="515"/>
      <point x="567" y="526"/>
      <point x="618" y="526" type="curve" smooth="yes"/>
      <point x="630" y="526" type="line"/>
      <point x="630" y="536" type="line"/>
      <point x="400" y="536" type="line"/>
      <point x="400" y="526" type="line"/>
      <point x="457" y="526" type="line" smooth="yes"/>
      <point x="504" y="526"/>
      <point x="521" y="517"/>
      <point x="521" y="501" type="curve" smooth="yes"/>
      <point x="521" y="489"/>
      <point x="510" y="474"/>
      <point x="490" y="452" type="curve" smooth="yes"/>
      <point x="380" y="322" type="line"/>
      <point x="283" y="454" type="line" smooth="yes"/>
      <point x="266" y="476"/>
      <point x="254" y="493"/>
      <point x="254" y="505" type="curve" smooth="yes"/>
      <point x="254" y="517"/>
      <point x="262" y="526"/>
      <point x="302" y="526" type="curve" smooth="yes"/>
      <point x="323" y="526" type="line"/>
      <point x="323" y="536" type="line"/>
      <point x="35" y="536" type="line"/>
      <point x="35" y="526" type="line"/>
      <point x="65" y="526" type="line" smooth="yes"/>
      <point x="114" y="526"/>
      <point x="133" y="515"/>
      <point x="163" y="474" type="curve" smooth="yes"/>
      <point x="309" y="277" type="line"/>
      <point x="135" y="68" type="line" smooth="yes"/>
      <point x="93" y="21"/>
      <point x="87" y="10"/>
      <point x="38" y="10" type="curve" smooth="yes"/>
      <point x="4" y="10" type="line"/>
    </contour>
  </outline>
</glyph>
<glyph name="braceright" format="2">
  <advance width="515"/>
  <unicode hex="007D"/>
  <outline>
    <contour>
      <point x="67" y="-128" type="line"/>
      <point x="145" y="-128" type="line" smooth="yes"/>
      <point x="249" y="-128"/>
      <point x="309" y="-71"/>
      <point x="309" y="17" type="curve" smooth="yes"/>
      <point x="309" y="181" type="line" smooth="yes"/>
      <point x="309" y="288"/>
      <point x="330" y="309"/>
      <point x="450" y="312" type="curve"/>
      <point x="450" y="322" type="line"/>
      <point x="319" y="324"/>
      <point x="309" y="352"/>
      <point x="309" y="451" type="curve" smooth="yes"/>
      <point x="309" y="617" type="line" smooth="yes"/>
      <point x="309" y="708"/>
      <point x="249" y="760"/>
      <point x="144" y="760" type="curve" smooth="yes"/>
      <point x="67" y="760" type="line"/>
      <point x="67" y="750" type="line"/>
      <point x="109" y="750" type="line" smooth="yes"/>
      <point x="180" y="750"/>
      <point x="200" y="712"/>
      <point x="200" y="641" type="curve" smooth="yes"/>
      <point x="200" y="473" type="line" smooth="yes"/>
      <point x="200" y="378"/>
      <point x="260" y="319"/>
      <point x="370" y="318" type="curve"/>
      <point x="370" y="316" type="line"/>
      <point x="256" y="310"/>
      <point x="200" y="256"/>
      <point x="200" y="161" type="curve" smooth="yes"/>
      <point x="200" y="-10" type="line" smooth="yes"/>
      <point x="200" y="-76"/>
      <point x="182" y="-118"/>
      <point x="115" y="-118" type="curve" smooth="yes"/>
      <point x="67" y="-118" type="line"/>
    </contour>
  </outline>
</glyph>
<glyph name="currency" format="2">
  <advance width="678"/>
  <unicode hex="00A4"/>
  <outline>
    <contour>
      <point x="119" y="149" type="line"/>
      <point x="200" y="214" type="line"/>
      <point x="235" y="191"/>
      <point x="285" y="175"/>
      <point x="339" y="175" type="curve" smooth="yes"/>
      <point x="392" y="175"/>
      <point x="440" y="189"/>
      <point x="476" y="213" type="curve"/>
      <point x="556" y="150" type="line"/>
      <point x="592" y="182" type="line"/>
      <point x="513" y="245" type="line"/>
      <point x="542" y="273"/>
      <point x="561" y="312"/>
      <point x="561" y="358" type="curve" smooth="yes"/>
      <point x="561" y="401"/>
      <point x="541" y="441"/>
      <point x="510" y="469" type="curve"/>
      <point x="591" y="535" type="line"/>
      <point x="556" y="569" type="line"/>
      <point x="474" y="502" type="line"/>
      <point x="440" y="525"/>
      <point x="391" y="540"/>
      <point x="339" y="540" type="curve" smooth="yes"/>
      <point x="285" y="540"/>
      <point x="236" y="523"/>
      <point x="201" y="499" type="curve"/>
      <point x="118" y="568" type="line"/>
      <point x="82" y="535" type="line"/>
      <point x="165" y="470" type="line"/>
      <point x="135" y="442"/>
      <point x="117" y="400"/>
      <point x="117" y="358" type="curve" smooth="yes"/>
      <point x="117" y="313"/>
      <point x="135" y="274"/>
      <point x="164" y="247" type="curve"/>
      <point x="84" y="183" type="line"/>
    </contour>
    <contour>
      <point x="339" y="221" type="curve" smooth="yes"/>
      <point x="244" y="221"/>
      <point x="170" y="281"/>
      <point x="170" y="358" type="curve" smooth="yes"/>
      <point x="170" y="434"/>
      <point x="244" y="493"/>
      <point x="339" y="493" type="curve" smooth="yes"/>
      <point x="437" y="493"/>
      <point x="508" y="434"/>
      <point x="508" y="358" type="curve" smooth="yes"/>
      <point x="508" y="281"/>
      <point x="437" y="221"/>
    </contour>
  </outline>
</glyph>
<glyph name="guillemotright" format="2">
  <advance width="613"/>
  <unicode hex="00BB"/>
  <outline>
    <contour>
      <point x="310" y="78" type="line"/>
      <point x="329" y="78" type="line"/>
      <point x="542" y="266" type="line"/>
      <point x="542" y="274" type="line"/>
      <point x="329" y="462" type="line"/>
      <point x="310" y="462" type="line"/>
      <point x="441" y="270" type="line"/>
    </contour>
    <contour>
      <point x="89" y="78" type="line"/>
      <point x="109" y="78" type="line"/>
      <point x="321" y="266" type="line"/>
      <point x="321" y="274" type="line"/>
      <point x="109" y="462" type="line"/>
      <point x="89" y="462" type="line"/>
      <point x="220" y="270" type="line"/>
    </contour>
  </outline>
</glyph>
<glyph name="AE" format="2">
  <advance width="1118"/>
  <unicode hex="00C6"/>
  <anchor x="550" y="0" name="bottom"/>
  <anchor x="550" y="714" name="top"/>
  <outline>
    <contour>
      <point x="0" y="0" type="line"/>
      <point x="242" y="0" type="line"/>
      <point x="242" y="10" type="line"/>
      <point x="178" y="10" type="line" smooth="yes"/>
      <point x="136" y="10"/>
      <point x="115" y="14"/>
      <point x="115" y="35" type="curve" smooth="yes"/>
      <point x="115" y="47"/>
      <point x="125" y="63"/>
      <point x="139" y="84" type="curve" smooth="yes"/>
      <point x="248" y="271" type="line"/>
      <point x="537" y="271" type="line"/>
      <point x="537" y="95" type="line" smooth="yes"/>
      <point x="537" y="28"/>
      <point x="533" y="10"/>
      <point x="466" y="10" type="curve" smooth="yes"/>
      <point x="418" y="10" type="line"/>
      <point x="418" y="0" type="line"/>
      <point x="1056" y="0" type="line"/>
      <point x="1065" y="176" type="line"/>
      <point x="1055" y="176" type="line"/>
      <point x="1049" y="97" type="line" smooth="yes"/>
      <point x="1042" y="24"/>
      <point x="1018" y="10"/>
      <point x="940" y="10" type="curve" smooth="yes"/>
      <point x="646" y="10" type="line"/>
      <point x="644" y="365" type="line"/>
      <point x="927" y="365" type="line"/>
      <point x="927" y="375" type="line"/>
      <point x="644" y="375" type="line"/>
      <point x="644" y="704" type="line"/>
      <point x="927" y="704" type="line" smooth="yes"/>
      <point x="971" y="704"/>
      <point x="1000" y="684"/>
      <point x="1006" y="633" type="curve" smooth="yes"/>
      <point x="1013" y="538" type="line"/>
      <point x="1023" y="538" type="line"/>
      <point x="1015" y="714" type="line"/>
      <point x="376" y="714" type="line"/>
      <point x="376" y="704" type="line"/>
      <point x="501" y="704" type="line"/>
      <point x="101" y="35" type="line" smooth="yes"/>
      <point x="85" y="19"/>
      <point x="58" y="10"/>
      <point x="40" y="10" type="curve" smooth="yes"/>
      <point x="0" y="10" type="line"/>
    </contour>
    <contour>
      <point x="254" y="281" type="line"/>
      <point x="512" y="704" type="line"/>
      <point x="537" y="704" type="line"/>
      <point x="537" y="281" type="line"/>
    </contour>
  </outline>
</glyph>
<glyph name="ae" format="2">
  <advance width="994"/>
  <unicode hex="00E6"/>
  <anchor x="497" y="0" name="bottom"/>
  <anchor x="497" y="536" name="top"/>
  <outline>
    <contour>
      <point x="243" y="-10" type="curve" smooth="yes"/>
      <point x="344" y="-10"/>
      <point x="428" y="27"/>
      <point x="453" y="142" type="curve"/>
      <point x="489" y="42"/>
      <point x="580" y="-10"/>
      <point x="704" y="-10" type="curve" smooth="yes"/>
      <point x="836" y="-10"/>
      <point x="920" y="46"/>
      <point x="920" y="101" type="curve" smooth="yes"/>
      <point x="920" y="125"/>
      <point x="907" y="136"/>
      <point x="884" y="140" type="curve"/>
      <point x="872" y="56"/>
      <point x="828" y="2"/>
      <point x="729" y="2" type="curve" smooth="yes"/>
      <point x="601" y="2"/>
      <point x="527" y="102"/>
      <point x="530" y="289" type="curve"/>
      <point x="938" y="289" type="line"/>
      <point x="938" y="299" type="line" smooth="yes"/>
      <point x="938" y="450"/>
      <point x="844" y="546"/>
      <point x="691" y="546" type="curve" smooth="yes"/>
      <point x="584" y="546"/>
      <point x="531" y="494"/>
      <point x="490" y="442" type="curve"/>
      <point x="475" y="487"/>
      <point x="460" y="546"/>
      <point x="319" y="546" type="curve" smooth="yes"/>
      <point x="169" y="546"/>
      <point x="113" y="491"/>
      <point x="113" y="443" type="curve" smooth="yes"/>
      <point x="113" y="400"/>
      <point x="138" y="386"/>
      <point x="196" y="386" type="curve"/>
      <point x="196" y="492"/>
      <point x="217" y="536"/>
      <point x="313" y="536" type="curve" smooth="yes"/>
      <point x="422" y="536"/>
      <point x="423" y="486"/>
      <point x="423" y="398" type="curve" smooth="yes"/>
      <point x="423" y="292" type="line"/>
      <point x="340" y="293" type="line" smooth="yes"/>
      <point x="149" y="295"/>
      <point x="61" y="253"/>
      <point x="61" y="146" type="curve" smooth="yes"/>
      <point x="61" y="43"/>
      <point x="138" y="-10"/>
    </contour>
    <contour>
      <point x="279" y="5" type="curve" smooth="yes"/>
      <point x="196" y="5"/>
      <point x="170" y="67"/>
      <point x="170" y="153" type="curve" smooth="yes"/>
      <point x="170" y="231"/>
      <point x="208" y="285"/>
      <point x="358" y="283" type="curve" smooth="yes"/>
      <point x="424" y="282" type="line"/>
      <point x="423" y="173" type="line" smooth="yes"/>
      <point x="422" y="98"/>
      <point x="372" y="5"/>
    </contour>
    <contour>
      <point x="532" y="299" type="line"/>
      <point x="540" y="449"/>
      <point x="574" y="536"/>
      <point x="688" y="536" type="curve" smooth="yes"/>
      <point x="785" y="536"/>
      <point x="831" y="450"/>
      <point x="833" y="299" type="curve"/>
    </contour>
  </outline>
</glyph>
<glyph name="Lslash" format="2">
  <advance width="746"/>
  <unicode hex="0141"/>
  <anchor x="374" y="0" name="bottom"/>
  <anchor x="374" y="714" name="top"/>
  <outline>
    <contour>
      <point x="48" y="0" type="line"/>
      <point x="685" y="0" type="line"/>
      <point x="695" y="217" type="line"/>
      <point x="685" y="217" type="line"/>
      <point x="680" y="144" type="line" smooth="yes"/>
      <point x="673" y="34"/>
      <point x="644" y="10"/>
      <point x="504" y="10" type="curve" smooth="yes"/>
      <point x="274" y="10" type="line"/>
      <point x="274" y="369" type="line"/>
      <point x="464" y="461" type="line"/>
      <point x="464" y="472" type="line"/>
      <point x="274" y="379" type="line"/>
      <point x="274" y="635" type="line" smooth="yes"/>
      <point x="274" y="687"/>
      <point x="274" y="704"/>
      <point x="322" y="704" type="curve" smooth="yes"/>
      <point x="387" y="704" type="line"/>
      <point x="387" y="714" type="line"/>
      <point x="48" y="714" type="line"/>
      <point x="48" y="704" type="line"/>
      <point x="116" y="704" type="line" smooth="yes"/>
      <point x="153" y="704"/>
      <point x="166" y="687"/>
      <point x="166" y="635" type="curve" smooth="yes"/>
      <point x="166" y="325" type="line"/>
      <point x="46" y="266" type="line"/>
      <point x="46" y="255" type="line"/>
      <point x="166" y="314" type="line"/>
      <point x="166" y="75" type="line" smooth="yes"/>
      <point x="166" y="27"/>
      <point x="153" y="10"/>
      <point x="124" y="10" type="curve" smooth="yes"/>
      <point x="48" y="10" type="line"/>
    </contour>
  </outline>
</glyph>
<glyph name="Eng" format="2">
  <advance width="918"/>
  <unicode hex="014A"/>
  <anchor x="441" y="-240" name="bottom"/>
  <anchor x="441" y="714" name="top"/>
  <outline>
    <contour>
      <point x="559" y="-240" type="line"/>
      <point x="584" y="-240" type="line" smooth="yes"/>
      <point x="679" y="-240"/>
      <point x="722" y="-180"/>
      <point x="722" y="-6" type="curve" smooth="yes"/>
      <point x="722" y="628" type="line" smooth="yes"/>
      <point x="722" y="690"/>
      <point x="735" y="704"/>
      <point x="782" y="704" type="curve" smooth="yes"/>
      <point x="844" y="704" type="line"/>
      <point x="844" y="714" type="line"/>
      <point x="592" y="714" type="line"/>
      <point x="592" y="704" type="line"/>
      <point x="657" y="704" type="line" smooth="yes"/>
      <point x="697" y="704"/>
      <point x="712" y="692"/>
      <point x="712" y="629" type="curve" smooth="yes"/>
      <point x="712" y="141" type="line"/>
      <point x="260" y="714" type="line"/>
      <point x="48" y="714" type="line"/>
      <point x="48" y="704" type="line"/>
      <point x="124" y="704" type="line" smooth="yes"/>
      <point x="157" y="704"/>
      <point x="177" y="697"/>
      <point x="177" y="631" type="curve" smooth="yes"/>
      <point x="177" y="86" type="line" smooth="yes"/>
      <point x="177" y="16"/>
      <point x="158" y="10"/>
      <point x="118" y="10" type="curve" smooth="yes"/>
      <point x="48" y="10" type="line"/>
      <point x="48" y="0" type="line"/>
      <point x="307" y="0" type="line"/>
      <point x="307" y="10" type="line"/>
      <point x="230" y="10" type="line" smooth="yes"/>
      <point x="202" y="10"/>
      <point x="187" y="16"/>
      <point x="187" y="86" type="curve" smooth="yes"/>
      <point x="187" y="654" type="line"/>
      <point x="712" y="-2" type="line"/>
      <point x="712" y="-8" type="line" smooth="yes"/>
      <point x="712" y="-161"/>
      <point x="671" y="-230"/>
      <point x="579" y="-230" type="curve" smooth="yes"/>
      <point x="559" y="-230" type="line"/>
    </contour>
  </outline>
</glyph>
<glyph name="uni0181" format="2">
  <advance width="894"/>
  <unicode hex="0181"/>
  <anchor x="438" y="0" name="bottom"/>
  <anchor x="438" y="714" name="top"/>
  <outline>
    <contour>
      <point x="145" y="0" type="line"/>
      <point x="512" y="0" type="line" smooth="yes"/>
      <point x="714" y="0"/>
      <point x="816" y="62"/>
      <point x="816" y="203" type="curve" smooth="yes"/>
      <point x="816" y="316"/>
      <point x="732" y="385"/>
      <point x="553" y="378" type="curve"/>
      <point x="553" y="380" type="line"/>
      <point x="700" y="390"/>
      <point x="780" y="426"/>
      <point x="780" y="540" type="curve" smooth="yes"/>
      <point x="780" y="664"/>
      <point x="688" y="714"/>
      <point x="475" y="714" type="curve" smooth="yes"/>
      <point x="207" y="714" type="line" smooth="yes"/>
      <point x="76" y="714"/>
      <point x="19" y="663"/>
      <point x="19" y="593" type="curve" smooth="yes"/>
      <point x="19" y="548"/>
      <point x="46" y="514"/>
      <point x="80" y="514" type="curve" smooth="yes"/>
      <point x="102" y="514"/>
      <point x="114" y="522"/>
      <point x="125" y="529" type="curve"/>
      <point x="104" y="552"/>
      <point x="90" y="580"/>
      <point x="91" y="612" type="curve" smooth="yes"/>
      <point x="92" y="688"/>
      <point x="129" y="704"/>
      <point x="199" y="704" type="curve" smooth="yes"/>
      <point x="254" y="704"/>
      <point x="263" y="694"/>
      <point x="263" y="677" type="curve" smooth="yes"/>
      <point x="263" y="82" type="line" smooth="yes"/>
      <point x="263" y="27"/>
      <point x="252" y="10"/>
      <point x="213" y="10" type="curve" smooth="yes"/>
      <point x="145" y="10" type="line"/>
    </contour>
    <contour>
      <point x="372" y="10" type="line"/>
      <point x="372" y="370" type="line"/>
      <point x="503" y="370" type="line" smooth="yes"/>
      <point x="647" y="370"/>
      <point x="700" y="298"/>
      <point x="700" y="182" type="curve" smooth="yes"/>
      <point x="700" y="77"/>
      <point x="639" y="10"/>
      <point x="500" y="10" type="curve" smooth="yes"/>
    </contour>
    <contour>
      <point x="372" y="380" type="line"/>
      <point x="372" y="704" type="line"/>
      <point x="461" y="704" type="line" smooth="yes"/>
      <point x="605" y="704"/>
      <point x="666" y="660"/>
      <point x="666" y="540" type="curve" smooth="yes"/>
      <point x="666" y="432"/>
      <point x="613" y="380"/>
      <point x="468" y="380" type="curve" smooth="yes"/>
    </contour>
  </outline>
</glyph>
<glyph name="florin" format="2">
  <advance width="678"/>
  <unicode hex="0192"/>
  <anchor x="266" y="-240" name="bottom"/>
  <anchor x="325" y="724" name="top"/>
  <outline>
    <contour>
      <point x="139" y="-240" type="curve" smooth="yes"/>
      <point x="249" y="-240"/>
      <point x="311" y="-189"/>
      <point x="311" y="-10" type="curve" smooth="yes"/>
      <point x="311" y="414" type="line"/>
      <point x="441" y="414" type="line"/>
      <point x="441" y="424" type="line"/>
      <point x="311" y="424" type="line"/>
      <point x="311" y="585" type="line" smooth="yes"/>
      <point x="311" y="685"/>
      <point x="332" y="714"/>
      <point x="384" y="714" type="curve" smooth="yes"/>
      <point x="428" y="714"/>
      <point x="440" y="669"/>
      <point x="441" y="580" type="curve"/>
      <point x="497" y="581"/>
      <point x="513" y="604"/>
      <point x="513" y="627" type="curve" smooth="yes"/>
      <point x="513" y="680"/>
      <point x="470" y="724"/>
      <point x="375" y="724" type="curve" smooth="yes"/>
      <point x="253" y="724"/>
      <point x="200" y="661"/>
      <point x="200" y="554" type="curve" smooth="yes"/>
      <point x="200" y="424" type="line"/>
      <point x="102" y="424" type="line"/>
      <point x="102" y="414" type="line"/>
      <point x="200" y="414" type="line"/>
      <point x="200" y="-35" type="line" smooth="yes"/>
      <point x="200" y="-170"/>
      <point x="175" y="-225"/>
      <point x="105" y="-225" type="curve" smooth="yes"/>
      <point x="94" y="-225"/>
      <point x="81" y="-223"/>
      <point x="65" y="-219" type="curve"/>
      <point x="65" y="-230" type="line"/>
      <point x="83" y="-235"/>
      <point x="109" y="-240"/>
    </contour>
  </outline>
</glyph>
<glyph name="uni0193" format="2">
  <advance width="851"/>
  <unicode hex="0193"/>
  <anchor x="425" y="0" name="bottom"/>
  <anchor x="425" y="714" name="top"/>
  <outline>
    <contour>
      <point x="480" y="-10" type="curve" smooth="yes"/>
      <point x="583" y="-10"/>
      <point x="663" y="5"/>
      <point x="741" y="37" type="curve"/>
      <point x="741" y="256" type="line" smooth="yes"/>
      <point x="741" y="312"/>
      <point x="750" y="320"/>
      <point x="775" y="320" type="curve" smooth="yes"/>
      <point x="825" y="320" type="line"/>
      <point x="825" y="330" type="line"/>
      <point x="530" y="330" type="line"/>
      <point x="530" y="320" type="line"/>
      <point x="585" y="320" type="line" smooth="yes"/>
      <point x="619" y="320"/>
      <point x="631" y="309"/>
      <point x="631" y="262" type="curve" smooth="yes"/>
      <point x="631" y="16" type="line"/>
      <point x="596" y="7"/>
      <point x="543" y="0"/>
      <point x="498" y="0" type="curve" smooth="yes"/>
      <point x="279" y="0"/>
      <point x="184" y="138"/>
      <point x="184" y="358" type="curve" smooth="yes"/>
      <point x="184" y="620"/>
      <point x="290" y="714"/>
      <point x="480" y="714" type="curve" smooth="yes"/>
      <point x="613" y="714"/>
      <point x="660" y="660"/>
      <point x="660" y="540" type="curve"/>
      <point x="717" y="540"/>
      <point x="747" y="568"/>
      <point x="747" y="604" type="curve" smooth="yes"/>
      <point x="747" y="697" type="line" smooth="yes"/>
      <point x="747" y="772"/>
      <point x="770" y="803"/>
      <point x="828" y="803" type="curve" smooth="yes"/>
      <point x="855" y="803"/>
      <point x="878" y="798"/>
      <point x="905" y="790" type="curve"/>
      <point x="911" y="800"/>
      <point x="915" y="811"/>
      <point x="915" y="818" type="curve" smooth="yes"/>
      <point x="915" y="842"/>
      <point x="873" y="857"/>
      <point x="833" y="857" type="curve" smooth="yes"/>
      <point x="766" y="857"/>
      <point x="737" y="820"/>
      <point x="737" y="739" type="curve" smooth="yes"/>
      <point x="737" y="635" type="line"/>
      <point x="715" y="692"/>
      <point x="617" y="724"/>
      <point x="486" y="724" type="curve" smooth="yes"/>
      <point x="237" y="724"/>
      <point x="70" y="623"/>
      <point x="70" y="358" type="curve" smooth="yes"/>
      <point x="70" y="147"/>
      <point x="205" y="-10"/>
    </contour>
  </outline>
</glyph>
<glyph name="uni0194" format="2">
  <advance width="811"/>
  <unicode hex="0194"/>
  <anchor x="407" y="-240" name="bottom"/>
  <anchor x="407" y="714" name="top"/>
  <outline>
    <contour>
      <point x="411" y="-240" type="curve" smooth="yes"/>
      <point x="510" y="-240"/>
      <point x="554" y="-185"/>
      <point x="554" y="-92" type="curve" smooth="yes"/>
      <point x="554" y="9"/>
      <point x="522" y="73"/>
      <point x="438" y="220" type="curve"/>
      <point x="678" y="641" type="line" smooth="yes"/>
      <point x="706" y="688"/>
      <point x="711" y="704"/>
      <point x="761" y="704" type="curve" smooth="yes"/>
      <point x="792" y="704" type="line"/>
      <point x="792" y="714" type="line"/>
      <point x="560" y="714" type="line"/>
      <point x="560" y="704" type="line"/>
      <point x="594" y="704" type="line" smooth="yes"/>
      <point x="648" y="704"/>
      <point x="669" y="697"/>
      <point x="669" y="672" type="curve" smooth="yes"/>
      <point x="669" y="658"/>
      <point x="671" y="646"/>
      <point x="655" y="619" type="curve" smooth="yes"/>
      <point x="432" y="228" type="line"/>
      <point x="216" y="632" type="line" smooth="yes"/>
      <point x="209" y="639"/>
      <point x="199" y="659"/>
      <point x="199" y="666" type="curve" smooth="yes"/>
      <point x="199" y="689"/>
      <point x="208" y="704"/>
      <point x="249" y="704" type="curve" smooth="yes"/>
      <point x="323" y="704" type="line"/>
      <point x="323" y="714" type="line"/>
      <point x="0" y="714" type="line"/>
      <point x="0" y="704" type="line"/>
      <point x="22" y="704" type="line" smooth="yes"/>
      <point x="49" y="704"/>
      <point x="65" y="703"/>
      <point x="88" y="660" type="curve" smooth="yes"/>
      <point x="367" y="146" type="line"/>
      <point x="311" y="72"/>
      <point x="260" y="-28"/>
      <point x="260" y="-101" type="curve" smooth="yes"/>
      <point x="260" y="-185"/>
      <point x="297" y="-240"/>
    </contour>
    <contour>
      <point x="384" y="-229" type="curve" smooth="yes"/>
      <point x="303" y="-229"/>
      <point x="270" y="-175"/>
      <point x="270" y="-101" type="curve" smooth="yes"/>
      <point x="270" y="-41"/>
      <point x="312" y="57"/>
      <point x="372" y="140" type="curve"/>
      <point x="409" y="90"/>
      <point x="468" y="-40"/>
      <point x="468" y="-121" type="curve" smooth="yes"/>
      <point x="468" y="-191"/>
      <point x="444" y="-229"/>
    </contour>
  </outline>
</glyph>
<glyph name="uni019E" format="2">
  <advance width="776"/>
  <unicode hex="019E"/>
  <anchor x="383" y="-240" name="bottom"/>
  <anchor x="383" y="536" name="top"/>
  <outline>
    <contour>
      <point x="435" y="-240" type="line"/>
      <point x="745" y="-240" type="line"/>
      <point x="745" y="-230" type="line"/>
      <point x="710" y="-230" type="line" smooth="yes"/>
      <point x="658" y="-230"/>
      <point x="647" y="-227"/>
      <point x="647" y="-157" type="curve" smooth="yes"/>
      <point x="647" y="356" type="line" smooth="yes"/>
      <point x="647" y="485"/>
      <point x="582" y="546"/>
      <point x="450" y="546" type="curve" smooth="yes"/>
      <point x="351" y="546"/>
      <point x="278" y="507"/>
      <point x="252" y="419" type="curve"/>
      <point x="250" y="419" type="line"/>
      <point x="250" y="536" type="line"/>
      <point x="42" y="536" type="line"/>
      <point x="42" y="526" type="line"/>
      <point x="75" y="526" type="line" smooth="yes"/>
      <point x="122" y="526"/>
      <point x="145" y="524"/>
      <point x="145" y="467" type="curve" smooth="yes"/>
      <point x="145" y="80" type="line" smooth="yes"/>
      <point x="145" y="12"/>
      <point x="128" y="10"/>
      <point x="66" y="10" type="curve" smooth="yes"/>
      <point x="36" y="10" type="line"/>
      <point x="36" y="0" type="line"/>
      <point x="352" y="0" type="line"/>
      <point x="352" y="10" type="line"/>
      <point x="329" y="10" type="line" smooth="yes"/>
      <point x="264" y="10"/>
      <point x="252" y="13"/>
      <point x="252" y="78" type="curve" smooth="yes"/>
      <point x="252" y="346" type="line" smooth="yes"/>
      <point x="252" y="387"/>
      <point x="265" y="513"/>
      <point x="408" y="513" type="curve" smooth="yes"/>
      <point x="508" y="513"/>
      <point x="540" y="455"/>
      <point x="540" y="371" type="curve" smooth="yes"/>
      <point x="540" y="-156" type="line" smooth="yes"/>
      <point x="540" y="-228"/>
      <point x="525" y="-230"/>
      <point x="472" y="-230" type="curve" smooth="yes"/>
      <point x="435" y="-230" type="line"/>
    </contour>
  </outline>
</glyph>
<glyph name="Ohorn" format="2">
  <advance width="947"/>
  <unicode hex="01A0"/>
  <anchor x="474" y="0" name="bottom"/>
  <anchor x="474" y="714" name="top"/>
  <outline>
    <contour>
      <point x="445" y="-10" type="curve" smooth="yes"/>
      <point x="709" y="-10"/>
      <point x="818" y="142"/>
      <point x="818" y="358" type="curve" smooth="yes"/>
      <point x="818" y="420"/>
      <point x="809" y="476"/>
      <point x="790" y="524" type="curve"/>
      <point x="864" y="531"/>
      <point x="938" y="583"/>
      <point x="938" y="691" type="curve" smooth="yes"/>
      <point x="938" y="738"/>
      <point x="912" y="770"/>
      <point x="877" y="770" type="curve" smooth="yes"/>
      <point x="851" y="770"/>
      <point x="826" y="756"/>
      <point x="826" y="728" type="curve" smooth="yes"/>
      <point x="826" y="673"/>
      <point x="906" y="679"/>
      <point x="906" y="640" type="curve" smooth="yes"/>
      <point x="906" y="572"/>
      <point x="838" y="534"/>
      <point x="786" y="534" type="curve"/>
      <point x="736" y="651"/>
      <point x="627" y="725"/>
      <point x="446" y="725" type="curve" smooth="yes"/>
      <point x="198" y="725"/>
      <point x="68" y="585"/>
      <point x="68" y="359" type="curve" smooth="yes"/>
      <point x="68" y="123"/>
      <point x="194" y="-10"/>
    </contour>
    <contour>
      <point x="445" y="0" type="curve" smooth="yes"/>
      <point x="265" y="0"/>
      <point x="182" y="115"/>
      <point x="182" y="358" type="curve" smooth="yes"/>
      <point x="182" y="594"/>
      <point x="269" y="715"/>
      <point x="446" y="715" type="curve" smooth="yes"/>
      <point x="634" y="715"/>
      <point x="704" y="594"/>
      <point x="704" y="358" type="curve" smooth="yes"/>
      <point x="704" y="121"/>
      <point x="634" y="0"/>
    </contour>
  </outline>
</glyph>
<glyph name="uni01A3" format="2">
  <advance width="1022"/>
  <unicode hex="01A3"/>
  <anchor x="511" y="-240" name="bottom"/>
  <anchor x="511" y="536" name="top"/>
  <outline>
    <contour>
      <point x="783" y="-240" type="line"/>
      <point x="991" y="-240" type="line"/>
      <point x="991" y="-229" type="line"/>
      <point x="939" y="-229" type="line" smooth="yes"/>
      <point x="905" y="-229"/>
      <point x="890" y="-228"/>
      <point x="890" y="-153" type="curve" smooth="yes"/>
      <point x="890" y="357" type="line" smooth="yes"/>
      <point x="890" y="503"/>
      <point x="849" y="546"/>
      <point x="730" y="546" type="curve" smooth="yes"/>
      <point x="652" y="546"/>
      <point x="589" y="518"/>
      <point x="573" y="422" type="curve"/>
      <point x="570" y="422" type="line"/>
      <point x="530" y="507"/>
      <point x="453" y="546"/>
      <point x="340" y="546" type="curve" smooth="yes"/>
      <point x="159" y="546"/>
      <point x="68" y="451"/>
      <point x="68" y="269" type="curve" smooth="yes"/>
      <point x="68" y="85"/>
      <point x="171" y="-10"/>
      <point x="333" y="-10" type="curve" smooth="yes"/>
      <point x="511" y="-10"/>
      <point x="601" y="86"/>
      <point x="601" y="272" type="curve" smooth="yes"/>
      <point x="601" y="385" type="line" smooth="yes"/>
      <point x="601" y="521"/>
      <point x="648" y="528"/>
      <point x="694" y="528" type="curve" smooth="yes"/>
      <point x="770" y="528"/>
      <point x="783" y="495"/>
      <point x="783" y="369" type="curve" smooth="yes"/>
    </contour>
    <contour>
      <point x="333" y="0" type="curve" smooth="yes"/>
      <point x="221" y="0"/>
      <point x="178" y="92"/>
      <point x="177" y="269" type="curve" smooth="yes"/>
      <point x="176" y="452"/>
      <point x="222" y="536"/>
      <point x="339" y="536" type="curve" smooth="yes"/>
      <point x="446" y="536"/>
      <point x="492" y="457"/>
      <point x="492" y="269" type="curve" smooth="yes"/>
      <point x="492" y="106"/>
      <point x="456" y="0"/>
    </contour>
  </outline>
</glyph>
<glyph name="Uhorn" format="2">
  <advance width="899"/>
  <unicode hex="01AF"/>
  <anchor x="450" y="0" name="bottom"/>
  <anchor x="450" y="714" name="top"/>
  <outline>
    <contour>
      <point x="436" y="-10" type="curve" smooth="yes"/>
      <point x="626" y="-10"/>
      <point x="703" y="107"/>
      <point x="703" y="230" type="curve" smooth="yes"/>
      <point x="703" y="521" type="line"/>
      <point x="802" y="523"/>
      <point x="882" y="577"/>
      <point x="882" y="691" type="curve" smooth="yes"/>
      <point x="882" y="738"/>
      <point x="857" y="770"/>
      <point x="821" y="770" type="curve" smooth="yes"/>
      <point x="795" y="770"/>
      <point x="770" y="756"/>
      <point x="770" y="728" type="curve" smooth="yes"/>
      <point x="770" y="673"/>
      <point x="850" y="679"/>
      <point x="850" y="640" type="curve" smooth="yes"/>
      <point x="850" y="578"/>
      <point x="782" y="533"/>
      <point x="703" y="531" type="curve"/>
      <point x="703" y="714" type="line"/>
      <point x="573" y="714" type="line"/>
      <point x="573" y="704" type="line"/>
      <point x="632" y="704" type="line" smooth="yes"/>
      <point x="677" y="704"/>
      <point x="693" y="695"/>
      <point x="693" y="628" type="curve" smooth="yes"/>
      <point x="693" y="228" type="line" smooth="yes"/>
      <point x="693" y="97"/>
      <point x="605" y="7"/>
      <point x="459" y="7" type="curve" smooth="yes"/>
      <point x="320" y="7"/>
      <point x="243" y="70"/>
      <point x="243" y="189" type="curve" smooth="yes"/>
      <point x="243" y="627" type="line" smooth="yes"/>
      <point x="243" y="694"/>
      <point x="259" y="704"/>
      <point x="303" y="704" type="curve" smooth="yes"/>
      <point x="356" y="704" type="line"/>
      <point x="356" y="714" type="line"/>
      <point x="18" y="714" type="line"/>
      <point x="18" y="704" type="line"/>
      <point x="69" y="704" type="line" smooth="yes"/>
      <point x="117" y="704"/>
      <point x="133" y="695"/>
      <point x="133" y="627" type="curve" smooth="yes"/>
      <point x="133" y="216" type="line" smooth="yes"/>
      <point x="133" y="52"/>
      <point x="257" y="-10"/>
    </contour>
  </outline>
</glyph>
<glyph name="uhorn" format="2">
  <advance width="831"/>
  <unicode hex="01B0"/>
  <anchor x="415" y="0" name="bottom"/>
  <anchor x="397" y="536" name="top"/>
  <outline>
    <contour>
      <point x="326" y="-10" type="curve" smooth="yes"/>
      <point x="437" y="-10"/>
      <point x="499" y="51"/>
      <point x="522" y="131" type="curve"/>
      <point x="524" y="131" type="line"/>
      <point x="524" y="0" type="line"/>
      <point x="737" y="0" type="line"/>
      <point x="737" y="10" type="line"/>
      <point x="698" y="10" type="line" smooth="yes"/>
      <point x="646" y="10"/>
      <point x="630" y="15"/>
      <point x="630" y="75" type="curve" smooth="yes"/>
      <point x="630" y="379" type="line"/>
      <point x="725" y="384"/>
      <point x="800" y="438"/>
      <point x="800" y="549" type="curve" smooth="yes"/>
      <point x="800" y="596"/>
      <point x="774" y="628"/>
      <point x="739" y="628" type="curve" smooth="yes"/>
      <point x="713" y="628"/>
      <point x="688" y="614"/>
      <point x="688" y="586" type="curve" smooth="yes"/>
      <point x="688" y="531"/>
      <point x="768" y="537"/>
      <point x="768" y="498" type="curve" smooth="yes"/>
      <point x="768" y="438"/>
      <point x="705" y="394"/>
      <point x="630" y="388" type="curve"/>
      <point x="630" y="536" type="line"/>
      <point x="418" y="536" type="line"/>
      <point x="418" y="526" type="line"/>
      <point x="440" y="526" type="line" smooth="yes"/>
      <point x="508" y="526"/>
      <point x="523" y="523"/>
      <point x="523" y="466" type="curve" smooth="yes"/>
      <point x="523" y="205" type="line" smooth="yes"/>
      <point x="523" y="122"/>
      <point x="474" y="23"/>
      <point x="365" y="23" type="curve" smooth="yes"/>
      <point x="255" y="23"/>
      <point x="238" y="97"/>
      <point x="238" y="189" type="curve" smooth="yes"/>
      <point x="238" y="536" type="line"/>
      <point x="24" y="536" type="line"/>
      <point x="24" y="526" type="line"/>
      <point x="53" y="526" type="line" smooth="yes"/>
      <point x="123" y="526"/>
      <point x="130" y="524"/>
      <point x="130" y="453" type="curve" smooth="yes"/>
      <point x="130" y="182" type="line" smooth="yes"/>
      <point x="130" y="54"/>
      <point x="191" y="-10"/>
    </contour>
  </outline>
</glyph>
<glyph name="uni01B5" format="2">
  <advance width="699"/>
  <unicode hex="01B5"/>
  <anchor x="351" y="0" name="bottom"/>
  <anchor x="351" y="714" name="top"/>
  <outline>
    <contour>
      <point x="43" y="0" type="line"/>
      <point x="641" y="0" type="line"/>
      <point x="647" y="179" type="line"/>
      <point x="637" y="179" type="line"/>
      <point x="634" y="141" type="line" smooth="yes"/>
      <point x="625" y="40"/>
      <point x="604" y="13"/>
      <point x="509" y="13" type="curve" smooth="yes"/>
      <point x="158" y="13" type="line"/>
      <point x="405" y="368" type="line"/>
      <point x="589" y="368" type="line"/>
      <point x="589" y="378" type="line"/>
      <point x="412" y="378" type="line"/>
      <point x="629" y="688" type="line"/>
      <point x="629" y="714" type="line"/>
      <point x="71" y="714" type="line"/>
      <point x="65" y="534" type="line"/>
      <point x="74" y="534" type="line"/>
      <point x="78" y="572" type="line" smooth="yes"/>
      <point x="87" y="674"/>
      <point x="109" y="701"/>
      <point x="202" y="701" type="curve" smooth="yes"/>
      <point x="518" y="701" type="line"/>
      <point x="294" y="378" type="line"/>
      <point x="118" y="378" type="line"/>
      <point x="118" y="368" type="line"/>
      <point x="287" y="368" type="line"/>
      <point x="43" y="17" type="line"/>
    </contour>
  </outline>
</glyph>
<glyph name="uni01B6" format="2">
  <advance width="615"/>
  <unicode hex="01B6"/>
  <anchor x="315" y="0" name="bottom"/>
  <anchor x="315" y="536" name="top"/>
  <outline>
    <contour>
      <point x="53" y="0" type="line"/>
      <point x="562" y="0" type="line"/>
      <point x="568" y="166" type="line"/>
      <point x="558" y="166" type="line"/>
      <point x="556" y="122" type="line" smooth="yes"/>
      <point x="550" y="34"/>
      <point x="531" y="13"/>
      <point x="452" y="13" type="curve" smooth="yes"/>
      <point x="160" y="13" type="line"/>
      <point x="363" y="274" type="line"/>
      <point x="509" y="274" type="line"/>
      <point x="509" y="284" type="line"/>
      <point x="370" y="284" type="line"/>
      <point x="561" y="531" type="line"/>
      <point x="561" y="536" type="line"/>
      <point x="88" y="536" type="line"/>
      <point x="77" y="390" type="line"/>
      <point x="87" y="390" type="line"/>
      <point x="90" y="422" type="line" smooth="yes"/>
      <point x="95" y="502"/>
      <point x="112" y="523"/>
      <point x="188" y="523" type="curve" smooth="yes"/>
      <point x="452" y="523" type="line"/>
      <point x="267" y="284" type="line"/>
      <point x="103" y="284" type="line"/>
      <point x="103" y="274" type="line"/>
      <point x="258" y="274" type="line"/>
      <point x="53" y="5" type="line"/>
    </contour>
  </outline>
</glyph>
<glyph name="uni01B9" format="2">
  <advance width="616"/>
  <unicode hex="01B9"/>
  <anchor x="309" y="-240" name="bottom"/>
  <anchor x="309" y="536" name="top"/>
  <outline>
    <contour>
      <point x="343" y="-240" type="curve" smooth="yes"/>
      <point x="474" y="-240"/>
      <point x="568" y="-194"/>
      <point x="568" y="-136" type="curve" smooth="yes"/>
      <point x="568" y="-105"/>
      <point x="547" y="-93"/>
      <point x="502" y="-92" type="curve"/>
      <point x="499" y="-206"/>
      <point x="422" y="-229"/>
      <point x="360" y="-229" type="curve" smooth="yes"/>
      <point x="251" y="-229"/>
      <point x="182" y="-150"/>
      <point x="182" y="-4" type="curve" smooth="yes"/>
      <point x="182" y="123"/>
      <point x="235" y="201"/>
      <point x="376" y="201" type="curve" smooth="yes"/>
      <point x="396" y="201" type="line"/>
      <point x="396" y="212" type="line"/>
      <point x="163" y="467" type="line"/>
      <point x="474" y="467" type="line" smooth="yes"/>
      <point x="522" y="467"/>
      <point x="534" y="460"/>
      <point x="543" y="427" type="curve" smooth="yes"/>
      <point x="551" y="373" type="line"/>
      <point x="562" y="373" type="line"/>
      <point x="552" y="537" type="line"/>
      <point x="102" y="537" type="line"/>
      <point x="102" y="513" type="line"/>
      <point x="382" y="213" type="line"/>
      <point x="142" y="212"/>
      <point x="74" y="90"/>
      <point x="74" y="-10" type="curve" smooth="yes"/>
      <point x="74" y="-144"/>
      <point x="179" y="-240"/>
    </contour>
  </outline>
</glyph>
<glyph name="uni01BC" format="2">
  <advance width="694"/>
  <unicode hex="01BC"/>
  <anchor x="347" y="0" name="bottom"/>
  <anchor x="347" y="714" name="top"/>
  <outline>
    <contour>
      <point x="295" y="-10" type="curve" smooth="yes"/>
      <point x="529" y="-10"/>
      <point x="615" y="93"/>
      <point x="615" y="210" type="curve" smooth="yes"/>
      <point x="615" y="351"/>
      <point x="519" y="425"/>
      <point x="367" y="425" type="curve" smooth="yes"/>
      <point x="266" y="425" type="line"/>
      <point x="266" y="704" type="line"/>
      <point x="464" y="704" type="line" smooth="yes"/>
      <point x="549" y="704"/>
      <point x="569" y="684"/>
      <point x="572" y="614" type="curve" smooth="yes"/>
      <point x="575" y="562" type="line"/>
      <point x="585" y="562" type="line"/>
      <point x="581" y="714" type="line"/>
      <point x="45" y="714" type="line"/>
      <point x="45" y="704" type="line"/>
      <point x="71" y="704" type="line" smooth="yes"/>
      <point x="143" y="704"/>
      <point x="159" y="697"/>
      <point x="159" y="644" type="curve" smooth="yes"/>
      <point x="159" y="415" type="line"/>
      <point x="328" y="415" type="line" smooth="yes"/>
      <point x="449" y="415"/>
      <point x="513" y="360"/>
      <point x="513" y="212" type="curve" smooth="yes"/>
      <point x="513" y="79"/>
      <point x="462" y="0"/>
      <point x="299" y="0" type="curve" smooth="yes"/>
      <point x="182" y="0"/>
      <point x="136" y="54"/>
      <point x="135" y="182" type="curve"/>
      <point x="91" y="182"/>
      <point x="66" y="164"/>
      <point x="66" y="112" type="curve" smooth="yes"/>
      <point x="66" y="33"/>
      <point x="160" y="-10"/>
    </contour>
  </outline>
</glyph>
<glyph name="uni01E5" format="2">
  <advance width="645"/>
  <unicode hex="01E5"/>
  <anchor x="323" y="-239" name="bottom"/>
  <anchor x="323" y="536" name="top"/>
  <outline>
    <contour>
      <point x="286" y="-236" type="curve" smooth="yes"/>
      <point x="460" y="-236"/>
      <point x="558" y="-184"/>
      <point x="585" y="-101" type="curve"/>
      <point x="653" y="-101" type="line"/>
      <point x="653" y="-91" type="line"/>
      <point x="588" y="-91" type="line"/>
      <point x="592" y="-79"/>
      <point x="593" y="-66"/>
      <point x="593" y="-51" type="curve" smooth="yes"/>
      <point x="593" y="55"/>
      <point x="520" y="93"/>
      <point x="392" y="93" type="curve" smooth="yes"/>
      <point x="283" y="93" type="line" smooth="yes"/>
      <point x="206" y="93"/>
      <point x="175" y="122"/>
      <point x="175" y="154" type="curve" smooth="yes"/>
      <point x="175" y="171"/>
      <point x="186" y="191"/>
      <point x="211" y="205" type="curve"/>
      <point x="238" y="197"/>
      <point x="271" y="192"/>
      <point x="309" y="192" type="curve" smooth="yes"/>
      <point x="459" y="192"/>
      <point x="532" y="267"/>
      <point x="532" y="361" type="curve" smooth="yes"/>
      <point x="532" y="411"/>
      <point x="500" y="474"/>
      <point x="470" y="497" type="curve"/>
      <point x="504" y="520"/>
      <point x="527" y="531"/>
      <point x="545" y="531" type="curve" smooth="yes"/>
      <point x="569" y="531"/>
      <point x="583" y="509"/>
      <point x="583" y="468" type="curve"/>
      <point x="617" y="468"/>
      <point x="635" y="485"/>
      <point x="635" y="515" type="curve" smooth="yes"/>
      <point x="635" y="556"/>
      <point x="611" y="571"/>
      <point x="575" y="571" type="curve" smooth="yes"/>
      <point x="540" y="571"/>
      <point x="504" y="559"/>
      <point x="460" y="504" type="curve"/>
      <point x="423" y="529"/>
      <point x="372" y="546"/>
      <point x="308" y="546" type="curve" smooth="yes"/>
      <point x="153" y="546"/>
      <point x="77" y="464"/>
      <point x="77" y="385" type="curve" smooth="yes"/>
      <point x="77" y="316"/>
      <point x="105" y="246"/>
      <point x="199" y="210" type="curve"/>
      <point x="141" y="188"/>
      <point x="107" y="151"/>
      <point x="107" y="118" type="curve" smooth="yes"/>
      <point x="107" y="71"/>
      <point x="151" y="31"/>
      <point x="233" y="22" type="curve"/>
      <point x="137" y="29"/>
      <point x="33" y="-11"/>
      <point x="33" y="-88" type="curve" smooth="yes"/>
      <point x="33" y="-178"/>
      <point x="126" y="-236"/>
    </contour>
    <contour>
      <point x="300" y="-226" type="curve" smooth="yes"/>
      <point x="159" y="-226"/>
      <point x="121" y="-162"/>
      <point x="121" y="-94" type="curve" smooth="yes"/>
      <point x="121" y="-17"/>
      <point x="176" y="8"/>
      <point x="255" y="8" type="curve" smooth="yes"/>
      <point x="389" y="8" type="line" smooth="yes"/>
      <point x="472" y="8"/>
      <point x="502" y="-17"/>
      <point x="504" y="-91" type="curve"/>
      <point x="318" y="-91" type="line"/>
      <point x="318" y="-101" type="line"/>
      <point x="503" y="-101" type="line"/>
      <point x="496" y="-188"/>
      <point x="421" y="-226"/>
    </contour>
    <contour>
      <point x="305" y="202" type="curve" smooth="yes"/>
      <point x="228" y="202"/>
      <point x="171" y="247"/>
      <point x="171" y="363" type="curve" smooth="yes"/>
      <point x="171" y="484"/>
      <point x="225" y="536"/>
      <point x="306" y="536" type="curve" smooth="yes"/>
      <point x="391" y="536"/>
      <point x="437" y="481"/>
      <point x="437" y="364" type="curve" smooth="yes"/>
      <point x="437" y="239"/>
      <point x="387" y="202"/>
    </contour>
  </outline>
</glyph>
<glyph name="uni01F7" format="2">
  <advance width="847"/>
  <unicode hex="01F7"/>
  <anchor x="423" y="-240" name="bottom"/>
  <anchor x="423" y="714" name="top"/>
  <outline>
    <contour>
      <point x="67" y="-240" type="line"/>
      <point x="411" y="-240" type="line"/>
      <point x="411" y="-230" type="line"/>
      <point x="336" y="-230" type="line" smooth="yes"/>
      <point x="316" y="-230"/>
      <point x="280" y="-223"/>
      <point x="280" y="-163" type="curve" smooth="yes"/>
      <point x="280" y="3" type="line"/>
      <point x="534" y="42"/>
      <point x="782" y="119"/>
      <point x="782" y="437" type="curve" smooth="yes"/>
      <point x="782" y="615"/>
      <point x="721" y="724"/>
      <point x="537" y="724" type="curve" smooth="yes"/>
      <point x="400" y="724"/>
      <point x="309" y="646"/>
      <point x="279" y="536" type="curve"/>
      <point x="278" y="536" type="line"/>
      <point x="278" y="714" type="line"/>
      <point x="64" y="714" type="line"/>
      <point x="64" y="704" type="line"/>
      <point x="107" y="704" type="line" smooth="yes"/>
      <point x="150" y="704"/>
      <point x="175" y="690"/>
      <point x="175" y="622" type="curve" smooth="yes"/>
      <point x="175" y="-164" type="line" smooth="yes"/>
      <point x="175" y="-223"/>
      <point x="138" y="-230"/>
      <point x="119" y="-230" type="curve" smooth="yes"/>
      <point x="67" y="-230" type="line"/>
    </contour>
    <contour>
      <point x="280" y="16" type="curve"/>
      <point x="280" y="437" type="line" smooth="yes"/>
      <point x="280" y="607"/>
      <point x="378" y="702"/>
      <point x="508" y="702" type="curve" smooth="yes"/>
      <point x="644" y="702"/>
      <point x="680" y="602"/>
      <point x="680" y="390" type="curve" smooth="yes"/>
      <point x="680" y="181"/>
      <point x="545" y="61"/>
    </contour>
  </outline>
</glyph>
<glyph name="uni0220" format="2">
  <advance width="937"/>
  <unicode hex="0220"/>
  <anchor x="469" y="-240" name="bottom"/>
  <anchor x="469" y="714" name="top"/>
  <outline>
    <contour>
      <point x="565" y="-240" type="line"/>
      <point x="910" y="-240" type="line"/>
      <point x="910" y="-230" type="line"/>
      <point x="846" y="-230" type="line" smooth="yes"/>
      <point x="810" y="-230"/>
      <point x="792" y="-223"/>
      <point x="792" y="-168" type="curve" smooth="yes"/>
      <point x="792" y="516" type="line" smooth="yes"/>
      <point x="792" y="640"/>
      <point x="710" y="727"/>
      <point x="539" y="727" type="curve" smooth="yes"/>
      <point x="420" y="727"/>
      <point x="312" y="684"/>
      <point x="277" y="582" type="curve"/>
      <point x="275" y="582" type="line"/>
      <point x="275" y="714" type="line"/>
      <point x="42" y="714" type="line"/>
      <point x="42" y="704" type="line"/>
      <point x="99" y="704" type="line" smooth="yes"/>
      <point x="148" y="704"/>
      <point x="166" y="694"/>
      <point x="166" y="628" type="curve" smooth="yes"/>
      <point x="166" y="88" type="line" smooth="yes"/>
      <point x="166" y="20"/>
      <point x="149" y="10"/>
      <point x="104" y="10" type="curve" smooth="yes"/>
      <point x="48" y="10" type="line"/>
      <point x="48" y="0" type="line"/>
      <point x="393" y="0" type="line"/>
      <point x="393" y="10" type="line"/>
      <point x="337" y="10" type="line" smooth="yes"/>
      <point x="292" y="10"/>
      <point x="275" y="20"/>
      <point x="275" y="88" type="curve" smooth="yes"/>
      <point x="275" y="551" type="line" smooth="yes"/>
      <point x="275" y="544"/>
      <point x="311" y="701"/>
      <point x="495" y="701" type="curve" smooth="yes"/>
      <point x="640" y="701"/>
      <point x="682" y="622"/>
      <point x="682" y="507" type="curve" smooth="yes"/>
      <point x="682" y="-164" type="line" smooth="yes"/>
      <point x="682" y="-223"/>
      <point x="667" y="-230"/>
      <point x="627" y="-230" type="curve" smooth="yes"/>
      <point x="565" y="-230" type="line"/>
    </contour>
  </outline>
</glyph>
<glyph name="uni0221" format="2">
  <advance width="876"/>
  <unicode hex="0221"/>
  <anchor x="439" y="0" name="bottom"/>
  <anchor x="439" y="760" name="top"/>
  <outline>
    <contour>
      <point x="518" y="-71" type="line"/>
      <point x="530" y="-26"/>
      <point x="541" y="17"/>
      <point x="562" y="44" type="curve"/>
      <point x="583" y="16"/>
      <point x="643" y="-15"/>
      <point x="726" y="-15" type="curve" smooth="yes"/>
      <point x="834" y="-15"/>
      <point x="897" y="27"/>
      <point x="897" y="84" type="curve" smooth="yes"/>
      <point x="897" y="137"/>
      <point x="856" y="174"/>
      <point x="765" y="174" type="curve" smooth="yes"/>
      <point x="703" y="174"/>
      <point x="651" y="153"/>
      <point x="611" y="126" type="curve"/>
      <point x="611" y="760" type="line"/>
      <point x="388" y="760" type="line"/>
      <point x="388" y="750" type="line"/>
      <point x="423" y="750" type="line" smooth="yes"/>
      <point x="487" y="750"/>
      <point x="503" y="743"/>
      <point x="503" y="678" type="curve" smooth="yes"/>
      <point x="503" y="569" type="line" smooth="yes"/>
      <point x="503" y="535"/>
      <point x="503" y="410"/>
      <point x="505" y="371" type="curve"/>
      <point x="503" y="371" type="line"/>
      <point x="480" y="483"/>
      <point x="404" y="545"/>
      <point x="287" y="545" type="curve" smooth="yes"/>
      <point x="128" y="545"/>
      <point x="68" y="424"/>
      <point x="68" y="269" type="curve" smooth="yes"/>
      <point x="68" y="108"/>
      <point x="153" y="-10"/>
      <point x="298" y="-10" type="curve" smooth="yes"/>
      <point x="405" y="-10"/>
      <point x="476" y="57"/>
      <point x="502" y="162" type="curve"/>
      <point x="504" y="162" type="line"/>
      <point x="501" y="95"/>
      <point x="527" y="61"/>
      <point x="556" y="54" type="curve"/>
      <point x="534" y="18"/>
      <point x="521" y="-9"/>
      <point x="508" y="-69" type="curve"/>
    </contour>
    <contour>
      <point x="334" y="19" type="curve" smooth="yes"/>
      <point x="241" y="16"/>
      <point x="176" y="134"/>
      <point x="176" y="263" type="curve" smooth="yes"/>
      <point x="176" y="388"/>
      <point x="213" y="508"/>
      <point x="327" y="508" type="curve" smooth="yes"/>
      <point x="457" y="508"/>
      <point x="504" y="419"/>
      <point x="504" y="262" type="curve" smooth="yes"/>
      <point x="504" y="119"/>
      <point x="443" y="21"/>
    </contour>
    <contour>
      <point x="757" y="2" type="curve" smooth="yes"/>
      <point x="680" y="2"/>
      <point x="618" y="28"/>
      <point x="611" y="116" type="curve"/>
      <point x="657" y="147"/>
      <point x="708" y="164"/>
      <point x="765" y="164" type="curve" smooth="yes"/>
      <point x="843" y="164"/>
      <point x="885" y="141"/>
      <point x="885" y="84" type="curve" smooth="yes"/>
      <point x="885" y="25"/>
      <point x="835" y="2"/>
    </contour>
  </outline>
</glyph>
<glyph name="uni0225" format="2">
  <advance width="615"/>
  <unicode hex="0225"/>
  <anchor x="315" y="-175" name="bottom"/>
  <anchor x="315" y="536" name="top"/>
  <outline>
    <contour>
      <point x="469" y="-179" type="curve"/>
      <point x="540" y="-179"/>
      <point x="576" y="-142"/>
      <point x="576" y="-82" type="curve" smooth="yes"/>
      <point x="576" y="-12"/>
      <point x="519" y="13"/>
      <point x="427" y="13" type="curve" smooth="yes"/>
      <point x="160" y="13" type="line"/>
      <point x="561" y="531" type="line"/>
      <point x="561" y="536" type="line"/>
      <point x="88" y="536" type="line"/>
      <point x="77" y="390" type="line"/>
      <point x="87" y="390" type="line"/>
      <point x="90" y="422" type="line" smooth="yes"/>
      <point x="95" y="502"/>
      <point x="112" y="523"/>
      <point x="188" y="523" type="curve" smooth="yes"/>
      <point x="452" y="523" type="line"/>
      <point x="53" y="5" type="line"/>
      <point x="53" y="0" type="line"/>
      <point x="420" y="0" type="line" smooth="yes"/>
      <point x="472" y="0"/>
      <point x="502" y="-26"/>
      <point x="502" y="-79" type="curve" smooth="yes"/>
      <point x="502" y="-106"/>
      <point x="490" y="-146"/>
    </contour>
  </outline>
</glyph>
<glyph name="uni023C" format="2">
  <advance width="587"/>
  <unicode hex="023C"/>
  <anchor x="293" y="-139" name="bottom"/>
  <anchor x="293" y="714" name="top"/>
  <anchor x="567" y="536" name="topright"/>
  <outline>
    <contour>
      <point x="195" y="-139" type="line"/>
      <point x="206" y="-139" type="line"/>
      <point x="470" y="714" type="line"/>
      <point x="459" y="714" type="line"/>
    </contour>
    <component base="c"/>
  </outline>
</glyph>
<glyph name="uni023E" format="2">
  <advance width="732"/>
  <unicode hex="023E"/>
  <anchor x="367" y="0" name="bottom"/>
  <anchor x="367" y="714" name="top"/>
  <anchor x="729" y="714" name="topright"/>
  <anchor x="368" y="357" name="center"/>
  <outline>
    <contour>
      <point x="43" y="-82" type="line"/>
      <point x="55" y="-82" type="line"/>
      <point x="660" y="760" type="line"/>
      <point x="648" y="760" type="line"/>
    </contour>
    <component base="T" xOffset="1"/>
  </outline>
</glyph>
<glyph name="uni0242" format="2">
  <advance width="628"/>
  <unicode hex="0242"/>
  <anchor x="315" y="0" name="bottom"/>
  <anchor x="315" y="536" name="top"/>
  <outline>
    <contour>
      <point x="136" y="0" type="line"/>
      <point x="460" y="0" type="line"/>
      <point x="460" y="10" type="line"/>
      <point x="413" y="10" type="line" smooth="yes"/>
      <point x="382" y="10"/>
      <point x="353" y="11"/>
      <point x="353" y="79" type="curve" smooth="yes"/>
      <point x="353" y="182" type="line"/>
      <point x="400" y="189" type="line" smooth="yes"/>
      <point x="512" y="214"/>
      <point x="558" y="277"/>
      <point x="558" y="370" type="curve" smooth="yes"/>
      <point x="558" y="491"/>
      <point x="470" y="547"/>
      <point x="298" y="547" type="curve" smooth="yes"/>
      <point x="180" y="547"/>
      <point x="72" y="507"/>
      <point x="72" y="419" type="curve" smooth="yes"/>
      <point x="72" y="369"/>
      <point x="102" y="360"/>
      <point x="182" y="360" type="curve"/>
      <point x="182" y="503"/>
      <point x="232" y="537"/>
      <point x="311" y="537" type="curve" smooth="yes"/>
      <point x="390" y="537"/>
      <point x="444" y="494"/>
      <point x="444" y="387" type="curve" smooth="yes"/>
      <point x="444" y="293"/>
      <point x="405" y="233"/>
      <point x="283" y="193" type="curve" smooth="yes"/>
      <point x="246" y="189" type="line"/>
      <point x="246" y="79" type="line" smooth="yes"/>
      <point x="246" y="11"/>
      <point x="219" y="10"/>
      <point x="187" y="10" type="curve" smooth="yes"/>
      <point x="136" y="10" type="line"/>
    </contour>
  </outline>
</glyph>
<glyph name="uni0255" format="2">
  <advance width="587"/>
  <unicode hex="0255"/>
  <anchor x="293" y="0" name="bottom"/>
  <anchor x="293" y="536" name="top"/>
  <outline>
    <contour>
      <point x="128" y="-28" type="line"/>
      <point x="136" y="-11"/>
      <point x="149" y="15"/>
      <point x="160" y="39" type="curve"/>
      <point x="202" y="6"/>
      <point x="262" y="-10"/>
      <point x="327" y="-10" type="curve" smooth="yes"/>
      <point x="471" y="-10"/>
      <point x="553" y="40"/>
      <point x="553" y="121" type="curve" smooth="yes"/>
      <point x="553" y="194"/>
      <point x="498" y="235"/>
      <point x="405" y="235" type="curve" smooth="yes"/>
      <point x="329" y="235"/>
      <point x="266" y="210"/>
      <point x="200" y="132" type="curve"/>
      <point x="186" y="165"/>
      <point x="174" y="214"/>
      <point x="174" y="272" type="curve" smooth="yes"/>
      <point x="174" y="465"/>
      <point x="235" y="535"/>
      <point x="332" y="535" type="curve" smooth="yes"/>
      <point x="414" y="535"/>
      <point x="458" y="471"/>
      <point x="458" y="375" type="curve"/>
      <point x="535" y="376"/>
      <point x="543" y="406"/>
      <point x="543" y="431" type="curve" smooth="yes"/>
      <point x="543" y="500"/>
      <point x="458" y="546"/>
      <point x="323" y="546" type="curve" smooth="yes"/>
      <point x="156" y="546"/>
      <point x="67" y="455"/>
      <point x="67" y="267" type="curve" smooth="yes"/>
      <point x="67" y="151"/>
      <point x="96" y="81"/>
      <point x="152" y="44" type="curve"/>
      <point x="139" y="18"/>
      <point x="129" y="-5"/>
      <point x="120" y="-25" type="curve"/>
    </contour>
    <contour>
      <point x="352" y="4" type="curve" smooth="yes"/>
      <point x="289" y="4"/>
      <point x="235" y="34"/>
      <point x="204" y="124" type="curve"/>
      <point x="271" y="201"/>
      <point x="331" y="225"/>
      <point x="405" y="225" type="curve" smooth="yes"/>
      <point x="489" y="225"/>
      <point x="542" y="188"/>
      <point x="542" y="122" type="curve" smooth="yes"/>
      <point x="542" y="50"/>
      <point x="472" y="4"/>
    </contour>
  </outline>
</glyph>
<glyph name="uni0257" format="2">
  <advance width="735"/>
  <unicode hex="0257"/>
  <anchor x="367" y="0" name="bottom"/>
  <anchor x="367" y="767" name="top"/>
  <outline>
    <contour>
      <point x="301" y="-10" type="curve" smooth="yes"/>
      <point x="402" y="-10"/>
      <point x="475" y="54"/>
      <point x="502" y="170" type="curve"/>
      <point x="504" y="170" type="line"/>
      <point x="504" y="0" type="line"/>
      <point x="714" y="0" type="line"/>
      <point x="714" y="10" type="line"/>
      <point x="699" y="10" type="line" smooth="yes"/>
      <point x="633" y="10"/>
      <point x="611" y="11"/>
      <point x="611" y="83" type="curve" smooth="yes"/>
      <point x="611" y="686" type="line" smooth="yes"/>
      <point x="611" y="744"/>
      <point x="643" y="757"/>
      <point x="682" y="757" type="curve" smooth="yes"/>
      <point x="711" y="757"/>
      <point x="739" y="748"/>
      <point x="753" y="665" type="curve"/>
      <point x="806" y="666"/>
      <point x="819" y="681"/>
      <point x="819" y="700" type="curve" smooth="yes"/>
      <point x="819" y="733"/>
      <point x="784" y="767"/>
      <point x="680" y="767" type="curve" smooth="yes"/>
      <point x="540" y="767"/>
      <point x="503" y="699"/>
      <point x="503" y="640" type="curve" smooth="yes"/>
      <point x="503" y="516" type="line" smooth="yes"/>
      <point x="503" y="486"/>
      <point x="503" y="413"/>
      <point x="505" y="366" type="curve"/>
      <point x="503" y="366" type="line"/>
      <point x="480" y="486"/>
      <point x="401" y="545"/>
      <point x="288" y="545" type="curve" smooth="yes"/>
      <point x="131" y="545"/>
      <point x="68" y="425"/>
      <point x="68" y="270" type="curve" smooth="yes"/>
      <point x="68" y="108"/>
      <point x="153" y="-10"/>
    </contour>
    <contour>
      <point x="335" y="18" type="curve" smooth="yes"/>
      <point x="244" y="16"/>
      <point x="176" y="130"/>
      <point x="176" y="271" type="curve" smooth="yes"/>
      <point x="176" y="395"/>
      <point x="216" y="509"/>
      <point x="326" y="509" type="curve" smooth="yes"/>
      <point x="454" y="509"/>
      <point x="504" y="424"/>
      <point x="504" y="270" type="curve" smooth="yes"/>
      <point x="504" y="120"/>
      <point x="440" y="20"/>
    </contour>
  </outline>
</glyph>
<glyph name="uni0267" format="2">
  <advance width="732"/>
  <unicode hex="0267"/>
  <anchor x="367" y="-234" name="bottom"/>
  <anchor x="367" y="767" name="top"/>
  <outline>
    <contour>
      <point x="438" y="-234" type="curve" smooth="yes"/>
      <point x="565" y="-234"/>
      <point x="631" y="-147"/>
      <point x="631" y="-67" type="curve" smooth="yes"/>
      <point x="631" y="361" type="line" smooth="yes"/>
      <point x="631" y="496"/>
      <point x="566" y="546"/>
      <point x="439" y="546" type="curve" smooth="yes"/>
      <point x="339" y="546"/>
      <point x="268" y="499"/>
      <point x="240" y="406" type="curve"/>
      <point x="238" y="406" type="line"/>
      <point x="240" y="448"/>
      <point x="240" y="481"/>
      <point x="240" y="520" type="curve" smooth="yes"/>
      <point x="240" y="690" type="line" smooth="yes"/>
      <point x="240" y="747"/>
      <point x="272" y="757"/>
      <point x="311" y="757" type="curve" smooth="yes"/>
      <point x="340" y="757"/>
      <point x="368" y="764"/>
      <point x="383" y="664" type="curve"/>
      <point x="436" y="665"/>
      <point x="448" y="680"/>
      <point x="448" y="701" type="curve" smooth="yes"/>
      <point x="448" y="726"/>
      <point x="419" y="767"/>
      <point x="312" y="767" type="curve" smooth="yes"/>
      <point x="171" y="767"/>
      <point x="133" y="700"/>
      <point x="133" y="643" type="curve" smooth="yes"/>
      <point x="133" y="80" type="line" smooth="yes"/>
      <point x="133" y="12"/>
      <point x="118" y="10"/>
      <point x="48" y="10" type="curve" smooth="yes"/>
      <point x="22" y="10" type="line"/>
      <point x="22" y="0" type="line"/>
      <point x="344" y="0" type="line"/>
      <point x="344" y="10" type="line"/>
      <point x="322" y="10" type="line"/>
      <point x="251" y="10"/>
      <point x="240" y="13"/>
      <point x="240" y="78" type="curve" smooth="yes"/>
      <point x="240" y="334" type="line" smooth="yes"/>
      <point x="240" y="426"/>
      <point x="299" y="513"/>
      <point x="401" y="513" type="curve" smooth="yes"/>
      <point x="488" y="513"/>
      <point x="525" y="469"/>
      <point x="525" y="365" type="curve" smooth="yes"/>
      <point x="525" y="-131" type="line" smooth="yes"/>
      <point x="525" y="-200"/>
      <point x="479" y="-224"/>
      <point x="443" y="-224" type="curve" smooth="yes"/>
      <point x="409" y="-224"/>
      <point x="383" y="-208"/>
      <point x="367" y="-128" type="curve"/>
      <point x="322" y="-128"/>
      <point x="305" y="-142"/>
      <point x="305" y="-166" type="curve" smooth="yes"/>
      <point x="305" y="-203"/>
      <point x="357" y="-234"/>
    </contour>
  </outline>
</glyph>
<glyph name="uni026A" format="2">
  <advance width="395"/>
  <unicode hex="026A"/>
  <anchor x="197" y="0" name="bottom"/>
  <anchor x="197" y="536" name="top"/>
  <outline>
    <contour>
      <point x="51" y="0" type="line"/>
      <point x="345" y="0" type="line"/>
      <point x="345" y="10" type="line"/>
      <point x="335" y="10" type="line" smooth="yes"/>
      <point x="272" y="10"/>
      <point x="254" y="16"/>
      <point x="254" y="71" type="curve" smooth="yes"/>
      <point x="254" y="465" type="line" smooth="yes"/>
      <point x="254" y="521"/>
      <point x="274" y="526"/>
      <point x="328" y="526" type="curve" smooth="yes"/>
      <point x="345" y="526" type="line"/>
      <point x="345" y="536" type="line"/>
      <point x="51" y="536" type="line"/>
      <point x="51" y="526" type="line"/>
      <point x="75" y="526" type="line" smooth="yes"/>
      <point x="130" y="526"/>
      <point x="147" y="521"/>
      <point x="147" y="465" type="curve" smooth="yes"/>
      <point x="147" y="72" type="line" smooth="yes"/>
      <point x="147" y="12"/>
      <point x="132" y="10"/>
      <point x="68" y="10" type="curve" smooth="yes"/>
      <point x="51" y="10" type="line"/>
    </contour>
  </outline>
</glyph>
<glyph name="uni026C" format="2">
  <advance width="461"/>
  <unicode hex="026C"/>
  <anchor x="231" y="0" name="bottom"/>
  <anchor x="231" y="760" name="top"/>
  <outline>
    <contour>
      <point x="76" y="0" type="line"/>
      <point x="412" y="0" type="line"/>
      <point x="412" y="22" type="line"/>
      <point x="370" y="22" type="line" smooth="yes"/>
      <point x="331" y="22"/>
      <point x="298" y="24"/>
      <point x="298" y="92" type="curve" smooth="yes"/>
      <point x="298" y="331" type="line"/>
      <point x="412" y="331" type="line"/>
      <point x="412" y="341" type="line"/>
      <point x="298" y="341" type="line"/>
      <point x="298" y="760" type="line"/>
      <point x="75" y="760" type="line"/>
      <point x="75" y="738" type="line"/>
      <point x="113" y="738" type="line" smooth="yes"/>
      <point x="159" y="738"/>
      <point x="191" y="735"/>
      <point x="191" y="667" type="curve" smooth="yes"/>
      <point x="191" y="470" type="line"/>
      <point x="175" y="491"/>
      <point x="149" y="503"/>
      <point x="119" y="503" type="curve" smooth="yes"/>
      <point x="64" y="503"/>
      <point x="30" y="469"/>
      <point x="30" y="413" type="curve" smooth="yes"/>
      <point x="30" y="357"/>
      <point x="70" y="331"/>
      <point x="141" y="331" type="curve" smooth="yes"/>
      <point x="191" y="331" type="line"/>
      <point x="191" y="92" type="line" smooth="yes"/>
      <point x="191" y="24"/>
      <point x="158" y="22"/>
      <point x="117" y="22" type="curve" smooth="yes"/>
      <point x="76" y="22" type="line"/>
    </contour>
    <contour>
      <point x="134" y="341" type="line" smooth="yes"/>
      <point x="74" y="341"/>
      <point x="41" y="367"/>
      <point x="41" y="413" type="curve" smooth="yes"/>
      <point x="41" y="463"/>
      <point x="72" y="493"/>
      <point x="119" y="493" type="curve" smooth="yes"/>
      <point x="155" y="493"/>
      <point x="182" y="475"/>
      <point x="191" y="453" type="curve" smooth="yes"/>
      <point x="191" y="341" type="line"/>
    </contour>
  </outline>
</glyph>
<glyph name="uni0272" format="2">
  <advance width="775"/>
  <unicode hex="0272"/>
  <anchor x="386" y="-234" name="bottom"/>
  <anchor x="386" y="536" name="top"/>
  <outline>
    <contour>
      <point x="60" y="-234" type="curve" smooth="yes"/>
      <point x="183" y="-234"/>
      <point x="249" y="-154"/>
      <point x="249" y="-91" type="curve" smooth="yes"/>
      <point x="249" y="346" type="line" smooth="yes"/>
      <point x="249" y="387"/>
      <point x="263" y="513"/>
      <point x="406" y="513" type="curve" smooth="yes"/>
      <point x="506" y="513"/>
      <point x="538" y="455"/>
      <point x="538" y="383" type="curve" smooth="yes"/>
      <point x="538" y="0" type="line"/>
      <point x="743" y="0" type="line"/>
      <point x="743" y="10" type="line"/>
      <point x="726" y="10" type="line" smooth="yes"/>
      <point x="652" y="10"/>
      <point x="644" y="12"/>
      <point x="644" y="81" type="curve" smooth="yes"/>
      <point x="644" y="356" type="line" smooth="yes"/>
      <point x="644" y="485"/>
      <point x="582" y="546"/>
      <point x="448" y="546" type="curve" smooth="yes"/>
      <point x="352" y="546"/>
      <point x="277" y="507"/>
      <point x="251" y="422" type="curve"/>
      <point x="249" y="422" type="line"/>
      <point x="249" y="536" type="line"/>
      <point x="40" y="536" type="line"/>
      <point x="40" y="526" type="line"/>
      <point x="72" y="526" type="line" smooth="yes"/>
      <point x="127" y="526"/>
      <point x="142" y="522"/>
      <point x="142" y="457" type="curve" smooth="yes"/>
      <point x="142" y="-155" type="line" smooth="yes"/>
      <point x="142" y="-211"/>
      <point x="95" y="-224"/>
      <point x="62" y="-224" type="curve" smooth="yes"/>
      <point x="31" y="-224"/>
      <point x="-4" y="-211"/>
      <point x="-16" y="-126" type="curve"/>
      <point x="-58" y="-130"/>
      <point x="-77" y="-138"/>
      <point x="-77" y="-164" type="curve" smooth="yes"/>
      <point x="-77" y="-207"/>
      <point x="-21" y="-234"/>
    </contour>
  </outline>
</glyph>
<glyph name="uni027B" format="2">
  <advance width="556"/>
  <unicode hex="027B"/>
  <anchor x="279" y="-240" name="bottom"/>
  <anchor x="279" y="536" name="top"/>
  <outline>
    <contour>
      <point x="455" y="-240" type="curve" smooth="yes"/>
      <point x="505" y="-240"/>
      <point x="544" y="-234"/>
      <point x="570" y="-228" type="curve"/>
      <point x="570" y="-219" type="line"/>
      <point x="546" y="-225"/>
      <point x="524" y="-226"/>
      <point x="496" y="-226" type="curve" smooth="yes"/>
      <point x="437" y="-226"/>
      <point x="411" y="-200"/>
      <point x="411" y="-141" type="curve" smooth="yes"/>
      <point x="411" y="456" type="line" smooth="yes"/>
      <point x="411" y="533"/>
      <point x="431" y="536"/>
      <point x="484" y="536" type="curve" smooth="yes"/>
      <point x="513" y="536" type="line"/>
      <point x="513" y="546" type="line"/>
      <point x="185" y="546" type="line"/>
      <point x="185" y="536" type="line"/>
      <point x="245" y="536" type="line" smooth="yes"/>
      <point x="288" y="536"/>
      <point x="305" y="534"/>
      <point x="305" y="460" type="curve" smooth="yes"/>
      <point x="305" y="233" type="line" smooth="yes"/>
      <point x="305" y="128"/>
      <point x="254" y="35"/>
      <point x="174" y="35" type="curve" smooth="yes"/>
      <point x="123" y="35"/>
      <point x="102" y="70"/>
      <point x="102" y="147" type="curve"/>
      <point x="49" y="147"/>
      <point x="17" y="123"/>
      <point x="17" y="86" type="curve" smooth="yes"/>
      <point x="17" y="39"/>
      <point x="62" y="-1"/>
      <point x="133" y="-1" type="curve" smooth="yes"/>
      <point x="218" y="-1"/>
      <point x="284" y="77"/>
      <point x="303" y="144" type="curve"/>
      <point x="305" y="144" type="line"/>
      <point x="304" y="98"/>
      <point x="304" y="54"/>
      <point x="304" y="9" type="curve" smooth="yes"/>
      <point x="304" y="-87" type="line" smooth="yes"/>
      <point x="304" y="-195"/>
      <point x="343" y="-240"/>
    </contour>
  </outline>
</glyph>
<glyph name="uni027E" format="2">
  <advance width="548"/>
  <unicode hex="027E"/>
  <anchor x="274" y="0" name="bottom"/>
  <anchor x="274" y="536" name="top"/>
  <outline>
    <contour>
      <point x="7" y="0" type="line"/>
      <point x="367" y="0" type="line"/>
      <point x="367" y="10" type="line"/>
      <point x="299" y="10" type="line" smooth="yes"/>
      <point x="244" y="10"/>
      <point x="228" y="15"/>
      <point x="228" y="79" type="curve" smooth="yes"/>
      <point x="228" y="445" type="line" smooth="yes"/>
      <point x="228" y="509"/>
      <point x="253" y="540"/>
      <point x="332" y="540" type="curve" smooth="yes"/>
      <point x="390" y="540"/>
      <point x="433" y="504"/>
      <point x="433" y="378" type="curve"/>
      <point x="487" y="378"/>
      <point x="522" y="393"/>
      <point x="522" y="437" type="curve" smooth="yes"/>
      <point x="522" y="486"/>
      <point x="469" y="550"/>
      <point x="338" y="550" type="curve" smooth="yes"/>
      <point x="195" y="550"/>
      <point x="121" y="505"/>
      <point x="121" y="365" type="curve" smooth="yes"/>
      <point x="121" y="82" type="line" smooth="yes"/>
      <point x="121" y="18"/>
      <point x="105" y="10"/>
      <point x="49" y="10" type="curve" smooth="yes"/>
      <point x="7" y="10" type="line"/>
    </contour>
  </outline>
</glyph>
<glyph name="rfishhookreversed" format="2">
  <advance width="548"/>
  <unicode hex="027F"/>
  <anchor x="274" y="-231" name="bottom"/>
  <anchor x="274" y="536" name="top"/>
  <outline>
    <contour>
      <point x="183" y="-231" type="line"/>
      <point x="543" y="-231" type="line"/>
      <point x="543" y="-221" type="line"/>
      <point x="495" y="-221" type="line" smooth="yes"/>
      <point x="439" y="-221"/>
      <point x="430" y="-213"/>
      <point x="430" y="-144" type="curve" smooth="yes"/>
      <point x="430" y="365" type="line" smooth="yes"/>
      <point x="430" y="505"/>
      <point x="348" y="550"/>
      <point x="205" y="550" type="curve" smooth="yes"/>
      <point x="68" y="550"/>
      <point x="28" y="490"/>
      <point x="28" y="442" type="curve" smooth="yes"/>
      <point x="28" y="396"/>
      <point x="62" y="378"/>
      <point x="118" y="378" type="curve"/>
      <point x="118" y="500"/>
      <point x="150" y="540"/>
      <point x="211" y="540" type="curve" smooth="yes"/>
      <point x="290" y="540"/>
      <point x="323" y="508"/>
      <point x="323" y="427" type="curve" smooth="yes"/>
      <point x="323" y="-147" type="line" smooth="yes"/>
      <point x="323" y="-216"/>
      <point x="310" y="-221"/>
      <point x="260" y="-221" type="curve" smooth="yes"/>
      <point x="183" y="-221" type="line"/>
    </contour>
  </outline>
</glyph>
<glyph name="uni0283" format="2">
  <advance width="497"/>
  <unicode hex="0283"/>
  <anchor x="249" y="-236" name="bottom"/>
  <anchor x="249" y="765" name="top"/>
  <outline>
    <contour>
      <point x="105" y="-236" type="curve" smooth="yes"/>
      <point x="225" y="-236"/>
      <point x="305" y="-202"/>
      <point x="305" y="-52" type="curve" smooth="yes"/>
      <point x="305" y="619" type="line" smooth="yes"/>
      <point x="305" y="725"/>
      <point x="329" y="755"/>
      <point x="391" y="755" type="curve" smooth="yes"/>
      <point x="444" y="755"/>
      <point x="463" y="721"/>
      <point x="463" y="603" type="curve"/>
      <point x="519" y="603"/>
      <point x="550" y="625"/>
      <point x="550" y="661" type="curve" smooth="yes"/>
      <point x="550" y="720"/>
      <point x="507" y="765"/>
      <point x="396" y="765" type="curve" smooth="yes"/>
      <point x="270" y="765"/>
      <point x="198" y="713"/>
      <point x="198" y="574" type="curve" smooth="yes"/>
      <point x="198" y="-106" type="line" smooth="yes"/>
      <point x="198" y="-168"/>
      <point x="190" y="-226"/>
      <point x="112" y="-226" type="curve" smooth="yes"/>
      <point x="61" y="-226"/>
      <point x="37" y="-185"/>
      <point x="37" y="-76" type="curve"/>
      <point x="-16" y="-76"/>
      <point x="-49" y="-98"/>
      <point x="-49" y="-137" type="curve" smooth="yes"/>
      <point x="-49" y="-178"/>
      <point x="-17" y="-236"/>
    </contour>
  </outline>
</glyph>
<glyph name="eshsquatreversed" format="2">
  <advance width="495"/>
  <unicode hex="0285"/>
  <anchor x="247" y="-236" name="bottom"/>
  <anchor x="247" y="536" name="top"/>
  <outline>
    <contour>
      <point x="389" y="-236" type="curve" smooth="yes"/>
      <point x="508" y="-236"/>
      <point x="546" y="-182"/>
      <point x="546" y="-133" type="curve" smooth="yes"/>
      <point x="546" y="-98"/>
      <point x="515" y="-76"/>
      <point x="457" y="-76" type="curve"/>
      <point x="457" y="-183"/>
      <point x="440" y="-226"/>
      <point x="381" y="-226" type="curve" smooth="yes"/>
      <point x="302" y="-226"/>
      <point x="299" y="-163"/>
      <point x="299" y="-76" type="curve" smooth="yes"/>
      <point x="299" y="333" type="line" smooth="yes"/>
      <point x="299" y="505"/>
      <point x="224" y="549"/>
      <point x="98" y="549" type="curve" smooth="yes"/>
      <point x="-19" y="549"/>
      <point x="-53" y="489"/>
      <point x="-53" y="444" type="curve" smooth="yes"/>
      <point x="-53" y="409"/>
      <point x="-22" y="387"/>
      <point x="36" y="387" type="curve"/>
      <point x="36" y="502"/>
      <point x="52" y="539"/>
      <point x="101" y="539" type="curve" smooth="yes"/>
      <point x="183" y="539"/>
      <point x="192" y="468"/>
      <point x="192" y="373" type="curve" smooth="yes"/>
      <point x="192" y="-30" type="line" smooth="yes"/>
      <point x="192" y="-198"/>
      <point x="270" y="-236"/>
    </contour>
  </outline>
</glyph>
<glyph name="uni029D" format="2">
  <advance width="389"/>
  <unicode hex="029D"/>
  <anchor x="195" y="-240" name="bottom"/>
  <anchor x="195" y="756" name="top"/>
  <outline>
    <contour>
      <point x="76" y="-240" type="curve" smooth="yes"/>
      <point x="187" y="-240"/>
      <point x="262" y="-182"/>
      <point x="264" y="-49" type="curve"/>
      <point x="366" y="-49" type="line"/>
      <point x="366" y="-39" type="line"/>
      <point x="264" y="-39" type="line"/>
      <point x="264" y="536" type="line"/>
      <point x="58" y="536" type="line"/>
      <point x="58" y="526" type="line"/>
      <point x="75" y="526" type="line" smooth="yes"/>
      <point x="136" y="526"/>
      <point x="158" y="524"/>
      <point x="158" y="452" type="curve" smooth="yes"/>
      <point x="158" y="-39" type="line"/>
      <point x="124" y="-39" type="line" smooth="yes"/>
      <point x="22" y="-39"/>
      <point x="-41" y="-81"/>
      <point x="-41" y="-150" type="curve" smooth="yes"/>
      <point x="-41" y="-207"/>
      <point x="3" y="-240"/>
    </contour>
    <contour>
      <point x="58" y="-226" type="curve" smooth="yes"/>
      <point x="0" y="-226"/>
      <point x="-30" y="-196"/>
      <point x="-30" y="-149" type="curve" smooth="yes"/>
      <point x="-30" y="-88"/>
      <point x="30" y="-49"/>
      <point x="125" y="-49" type="curve" smooth="yes"/>
      <point x="158" y="-49" type="line"/>
      <point x="158" y="-76" type="line" smooth="yes"/>
      <point x="158" y="-199"/>
      <point x="114" y="-226"/>
    </contour>
    <contour>
      <point x="206" y="640" type="curve" smooth="yes"/>
      <point x="236" y="640"/>
      <point x="260" y="655"/>
      <point x="260" y="698" type="curve" smooth="yes"/>
      <point x="260" y="741"/>
      <point x="236" y="756"/>
      <point x="206" y="756" type="curve" smooth="yes"/>
      <point x="177" y="756"/>
      <point x="153" y="741"/>
      <point x="153" y="698" type="curve" smooth="yes"/>
      <point x="153" y="655"/>
      <point x="177" y="640"/>
    </contour>
  </outline>
</glyph>
<glyph name="qhook" format="2">
  <advance width="737"/>
  <unicode hex="02A0"/>
  <anchor x="368" y="-240" name="bottom"/>
  <anchor x="368" y="767" name="top"/>
  <outline>
    <contour>
      <point x="388" y="-231" type="line"/>
      <point x="704" y="-231" type="line"/>
      <point x="704" y="-221" type="line"/>
      <point x="686" y="-221" type="line" smooth="yes"/>
      <point x="638" y="-221"/>
      <point x="610" y="-219"/>
      <point x="610" y="-149" type="curve" smooth="yes"/>
      <point x="610" y="680" type="line" smooth="yes"/>
      <point x="610" y="731"/>
      <point x="631" y="757"/>
      <point x="663" y="757" type="curve" smooth="yes"/>
      <point x="683" y="757"/>
      <point x="705" y="752"/>
      <point x="717" y="686" type="curve"/>
      <point x="768" y="687"/>
      <point x="780" y="699"/>
      <point x="780" y="718" type="curve" smooth="yes"/>
      <point x="780" y="744"/>
      <point x="746" y="767"/>
      <point x="663" y="767" type="curve" smooth="yes"/>
      <point x="555" y="767"/>
      <point x="503" y="716"/>
      <point x="503" y="640" type="curve" smooth="yes"/>
      <point x="503" y="514" type="line" smooth="yes"/>
      <point x="503" y="463"/>
      <point x="505" y="411"/>
      <point x="504" y="376" type="curve"/>
      <point x="501" y="376" type="line"/>
      <point x="480" y="480"/>
      <point x="407" y="549"/>
      <point x="306" y="549" type="curve" smooth="yes"/>
      <point x="142" y="549"/>
      <point x="67" y="443"/>
      <point x="67" y="268" type="curve" smooth="yes"/>
      <point x="67" y="90"/>
      <point x="147" y="-10"/>
      <point x="299" y="-10" type="curve" smooth="yes"/>
      <point x="420" y="-10"/>
      <point x="486" y="79"/>
      <point x="503" y="178" type="curve"/>
      <point x="505" y="178" type="line"/>
      <point x="503" y="140"/>
      <point x="503" y="20"/>
      <point x="503" y="-58" type="curve" smooth="yes"/>
      <point x="503" y="-149" type="line" smooth="yes"/>
      <point x="503" y="-219"/>
      <point x="475" y="-221"/>
      <point x="429" y="-221" type="curve" smooth="yes"/>
      <point x="388" y="-221" type="line"/>
    </contour>
    <contour>
      <point x="335" y="18" type="curve" smooth="yes"/>
      <point x="223" y="18"/>
      <point x="175" y="118"/>
      <point x="175" y="271" type="curve" smooth="yes"/>
      <point x="175" y="410"/>
      <point x="225" y="512"/>
      <point x="346" y="512" type="curve" smooth="yes"/>
      <point x="456" y="512"/>
      <point x="503" y="414"/>
      <point x="503" y="272" type="curve" smooth="yes"/>
      <point x="503" y="76"/>
      <point x="408" y="18"/>
    </contour>
  </outline>
</glyph>
<glyph name="uni02A2" format="2">
  <advance width="591"/>
  <unicode hex="02A2"/>
  <anchor x="296" y="0" name="bottom"/>
  <anchor x="296" y="764" name="top"/>
  <outline>
    <contour>
      <point x="166" y="0" type="line"/>
      <point x="498" y="0" type="line"/>
      <point x="498" y="10" type="line"/>
      <point x="467" y="10" type="line" smooth="yes"/>
      <point x="405" y="10"/>
      <point x="385" y="17"/>
      <point x="385" y="85" type="curve" smooth="yes"/>
      <point x="385" y="205" type="line"/>
      <point x="522" y="205" type="line"/>
      <point x="522" y="215" type="line"/>
      <point x="385" y="215" type="line"/>
      <point x="385" y="355" type="line"/>
      <point x="188" y="423"/>
      <point x="161" y="477"/>
      <point x="161" y="587" type="curve" smooth="yes"/>
      <point x="161" y="695"/>
      <point x="211" y="754"/>
      <point x="303" y="754" type="curve" smooth="yes"/>
      <point x="395" y="754"/>
      <point x="448" y="701"/>
      <point x="448" y="570" type="curve"/>
      <point x="518" y="571"/>
      <point x="540" y="582"/>
      <point x="540" y="633" type="curve" smooth="yes"/>
      <point x="540" y="695"/>
      <point x="459" y="764"/>
      <point x="314" y="764" type="curve" smooth="yes"/>
      <point x="131" y="764"/>
      <point x="46" y="692"/>
      <point x="46" y="566" type="curve" smooth="yes"/>
      <point x="46" y="465"/>
      <point x="91" y="408"/>
      <point x="281" y="339" type="curve"/>
      <point x="281" y="215" type="line"/>
      <point x="161" y="215" type="line"/>
      <point x="161" y="205" type="line"/>
      <point x="281" y="205" type="line"/>
      <point x="281" y="85" type="line" smooth="yes"/>
      <point x="281" y="17"/>
      <point x="262" y="10"/>
      <point x="202" y="10" type="curve" smooth="yes"/>
      <point x="166" y="10" type="line"/>
    </contour>
  </outline>
</glyph>
<glyph name="tcligcurl" format="2">
  <advance width="963"/>
  <unicode hex="02A8"/>
  <anchor x="481" y="0" name="bottom"/>
  <anchor x="481" y="659" name="top"/>
  <outline>
    <contour>
      <point x="283" y="-10" type="curve" smooth="yes"/>
      <point x="380" y="-10"/>
      <point x="452" y="28"/>
      <point x="504" y="75" type="curve"/>
      <point x="555" y="16"/>
      <point x="636" y="-10"/>
      <point x="749" y="-10" type="curve" smooth="yes"/>
      <point x="848" y="-10"/>
      <point x="930" y="41"/>
      <point x="930" y="125" type="curve" smooth="yes"/>
      <point x="930" y="199"/>
      <point x="875" y="245"/>
      <point x="785" y="245" type="curve" smooth="yes"/>
      <point x="696" y="245"/>
      <point x="645" y="180"/>
      <point x="578" y="121" type="curve"/>
      <point x="560" y="158"/>
      <point x="550" y="207"/>
      <point x="550" y="265" type="curve" smooth="yes"/>
      <point x="550" y="464"/>
      <point x="610" y="535"/>
      <point x="705" y="535" type="curve" smooth="yes"/>
      <point x="788" y="535"/>
      <point x="830" y="473"/>
      <point x="830" y="377" type="curve"/>
      <point x="887" y="378"/>
      <point x="919" y="403"/>
      <point x="919" y="431" type="curve" smooth="yes"/>
      <point x="919" y="494"/>
      <point x="839" y="546"/>
      <point x="721" y="546" type="curve" smooth="yes"/>
      <point x="541" y="546"/>
      <point x="443" y="458"/>
      <point x="443" y="262" type="curve" smooth="yes"/>
      <point x="443" y="183"/>
      <point x="462" y="124"/>
      <point x="497" y="81" type="curve"/>
      <point x="449" y="33"/>
      <point x="386" y="2"/>
      <point x="313" y="2" type="curve" smooth="yes"/>
      <point x="250" y="2"/>
      <point x="222" y="35"/>
      <point x="222" y="125" type="curve" smooth="yes"/>
      <point x="222" y="526" type="line"/>
      <point x="373" y="526" type="line"/>
      <point x="373" y="536" type="line"/>
      <point x="222" y="536" type="line"/>
      <point x="222" y="674" type="line"/>
      <point x="212" y="674" type="line"/>
      <point x="204" y="611"/>
      <point x="184" y="578"/>
      <point x="152" y="560" type="curve" smooth="yes"/>
      <point x="119" y="541"/>
      <point x="75" y="535"/>
      <point x="23" y="536" type="curve"/>
      <point x="23" y="526" type="line"/>
      <point x="115" y="526" type="line"/>
      <point x="115" y="144" type="line" smooth="yes"/>
      <point x="115" y="31"/>
      <point x="165" y="-10"/>
    </contour>
    <contour>
      <point x="759" y="2" type="curve" smooth="yes"/>
      <point x="673" y="1"/>
      <point x="613" y="38"/>
      <point x="580" y="114" type="curve"/>
      <point x="644" y="160"/>
      <point x="696" y="235"/>
      <point x="785" y="235" type="curve" smooth="yes"/>
      <point x="868" y="235"/>
      <point x="919" y="192"/>
      <point x="919" y="125" type="curve" smooth="yes"/>
      <point x="919" y="51"/>
      <point x="845" y="4"/>
    </contour>
  </outline>
</glyph>
<glyph name="uni02A9" format="2">
  <advance width="1144"/>
  <unicode hex="02A9"/>
  <anchor x="572" y="-240" name="bottom"/>
  <anchor x="572" y="770" name="top"/>
  <outline>
    <contour>
      <point x="775" y="-240" type="line"/>
      <point x="799" y="-240" type="line" smooth="yes"/>
      <point x="932" y="-240"/>
      <point x="1025" y="-176"/>
      <point x="1025" y="17" type="curve" smooth="yes"/>
      <point x="1025" y="356" type="line" smooth="yes"/>
      <point x="1025" y="485"/>
      <point x="960" y="546"/>
      <point x="828" y="546" type="curve" smooth="yes"/>
      <point x="729" y="546"/>
      <point x="658" y="509"/>
      <point x="630" y="416" type="curve"/>
      <point x="628" y="416" type="line"/>
      <point x="628" y="536" type="line"/>
      <point x="258" y="536" type="line"/>
      <point x="258" y="617" type="line" smooth="yes"/>
      <point x="258" y="709"/>
      <point x="299" y="760"/>
      <point x="367" y="760" type="curve" smooth="yes"/>
      <point x="431" y="760"/>
      <point x="450" y="718"/>
      <point x="450" y="638" type="curve"/>
      <point x="505" y="638"/>
      <point x="521" y="665"/>
      <point x="521" y="692" type="curve" smooth="yes"/>
      <point x="521" y="720"/>
      <point x="480" y="770"/>
      <point x="365" y="770" type="curve" smooth="yes"/>
      <point x="222" y="770"/>
      <point x="151" y="698"/>
      <point x="151" y="585" type="curve" smooth="yes"/>
      <point x="151" y="536" type="line"/>
      <point x="38" y="536" type="line"/>
      <point x="38" y="526" type="line"/>
      <point x="151" y="526" type="line"/>
      <point x="151" y="77" type="line" smooth="yes"/>
      <point x="151" y="12"/>
      <point x="125" y="10"/>
      <point x="75" y="10" type="curve" smooth="yes"/>
      <point x="33" y="10" type="line"/>
      <point x="33" y="0" type="line"/>
      <point x="397" y="0" type="line"/>
      <point x="397" y="10" type="line"/>
      <point x="334" y="10" type="line" smooth="yes"/>
      <point x="281" y="10"/>
      <point x="258" y="12"/>
      <point x="258" y="77" type="curve" smooth="yes"/>
      <point x="258" y="526" type="line"/>
      <point x="455" y="526" type="line" smooth="yes"/>
      <point x="506" y="526"/>
      <point x="523" y="522"/>
      <point x="523" y="457" type="curve" smooth="yes"/>
      <point x="523" y="0" type="line"/>
      <point x="730" y="0" type="line"/>
      <point x="730" y="10" type="line"/>
      <point x="711" y="10" type="line" smooth="yes"/>
      <point x="641" y="10"/>
      <point x="630" y="13"/>
      <point x="630" y="78" type="curve" smooth="yes"/>
      <point x="630" y="334" type="line" smooth="yes"/>
      <point x="630" y="387"/>
      <point x="643" y="513"/>
      <point x="786" y="513" type="curve" smooth="yes"/>
      <point x="886" y="513"/>
      <point x="918" y="455"/>
      <point x="918" y="371" type="curve" smooth="yes"/>
      <point x="918" y="5" type="line" smooth="yes"/>
      <point x="918" y="-177"/>
      <point x="867" y="-230"/>
      <point x="788" y="-230" type="curve" smooth="yes"/>
      <point x="775" y="-230" type="line"/>
    </contour>
  </outline>
</glyph>
<glyph name="uni02BE" format="2">
  <advance width="198"/>
  <unicode hex="02BE"/>
  <outline>
    <contour>
      <point x="30" y="585" type="line"/>
      <point x="119" y="585"/>
      <point x="168" y="627"/>
      <point x="168" y="700" type="curve" smooth="yes"/>
      <point x="168" y="769"/>
      <point x="119" y="810"/>
      <point x="30" y="810" type="curve"/>
      <point x="30" y="800" type="line"/>
      <point x="107" y="800"/>
      <point x="156" y="764"/>
      <point x="156" y="700" type="curve" smooth="yes"/>
      <point x="156" y="633"/>
      <point x="107" y="595"/>
      <point x="30" y="595" type="curve"/>
    </contour>
  </outline>
</glyph>
<glyph name="uni02C0" format="2">
  <advance width="346"/>
  <unicode hex="02C0"/>
  <outline>
    <contour>
      <point x="153" y="491" type="line"/>
      <point x="163" y="491" type="line"/>
      <point x="162" y="553" type="line"/>
      <point x="256" y="563"/>
      <point x="300" y="604"/>
      <point x="300" y="661" type="curve" smooth="yes"/>
      <point x="300" y="719"/>
      <point x="248" y="760"/>
      <point x="156" y="760" type="curve" smooth="yes"/>
      <point x="68" y="760"/>
      <point x="29" y="723"/>
      <point x="29" y="685" type="curve" smooth="yes"/>
      <point x="29" y="671"/>
      <point x="38" y="652"/>
      <point x="87" y="652" type="curve"/>
      <point x="87" y="728"/>
      <point x="103" y="750"/>
      <point x="155" y="750" type="curve" smooth="yes"/>
      <point x="197" y="750"/>
      <point x="231" y="725"/>
      <point x="231" y="668" type="curve" smooth="yes"/>
      <point x="231" y="615"/>
      <point x="208" y="587"/>
      <point x="155" y="571" type="curve"/>
    </contour>
  </outline>
</glyph>
<glyph name="caron" format="2">
  <advance width="410"/>
  <unicode hex="02C7"/>
  <outline>
    <contour>
      <point x="164" y="606" type="curve"/>
      <point x="245" y="606" type="line"/>
      <point x="272" y="651"/>
      <point x="324" y="714"/>
      <point x="370" y="755" type="curve"/>
      <point x="370" y="766" type="line"/>
      <point x="365" y="766" type="line"/>
      <point x="301" y="724"/>
      <point x="243" y="686"/>
      <point x="205" y="647" type="curve"/>
      <point x="168" y="686"/>
      <point x="109" y="724"/>
      <point x="45" y="766" type="curve"/>
      <point x="40" y="766" type="line"/>
      <point x="40" y="755" type="line"/>
      <point x="86" y="714"/>
      <point x="138" y="651"/>
    </contour>
  </outline>
</glyph>
<glyph name="uni02D1" format="2">
  <advance width="403"/>
  <unicode hex="02D1"/>
  <outline>
    <contour>
      <point x="193" y="403" type="line"/>
      <point x="294" y="536" type="line"/>
      <point x="94" y="536" type="line"/>
    </contour>
  </outline>
</glyph>
<glyph name="ogonek" format="2">
  <advance width="311"/>
  <unicode hex="02DB"/>
  <outline>
    <contour>
      <point x="181" y="-226" type="curve" smooth="yes"/>
      <point x="216" y="-226"/>
      <point x="243" y="-218"/>
      <point x="271" y="-209" type="curve"/>
      <point x="271" y="-199" type="line"/>
      <point x="245" y="-208"/>
      <point x="233" y="-212"/>
      <point x="207" y="-212" type="curve" smooth="yes"/>
      <point x="144" y="-212"/>
      <point x="113" y="-170"/>
      <point x="113" y="-126" type="curve" smooth="yes"/>
      <point x="113" y="-87"/>
      <point x="151" y="-26"/>
      <point x="232" y="0" type="curve"/>
      <point x="201" y="0" type="line"/>
      <point x="97" y="-17"/>
      <point x="40" y="-68"/>
      <point x="40" y="-123" type="curve" smooth="yes"/>
      <point x="40" y="-192"/>
      <point x="86" y="-226"/>
    </contour>
  </outline>
</glyph>
<glyph name="leftangleabovecomb" format="2">
  <unicode hex="031A"/>
  <anchor x="40" y="625" name="_topright"/>
  <outline>
    <contour>
      <point x="132" y="625" type="line"/>
      <point x="152" y="625" type="line"/>
      <point x="152" y="734" type="line"/>
      <point x="-152" y="734" type="line"/>
      <point x="-152" y="714" type="line"/>
      <point x="132" y="714" type="line"/>
    </contour>
  </outline>
</glyph>
<glyph name="minusbelowcomb" format="2">
  <unicode hex="0320"/>
  <anchor x="0" y="0" name="_bottom"/>
  <anchor x="0" y="-151" name="bottom"/>
  <outline>
    <contour>
      <point x="-106" y="-140" type="line"/>
      <point x="106" y="-140" type="line"/>
      <point x="106" y="-120" type="line"/>
      <point x="-106" y="-120" type="line"/>
    </contour>
  </outline>
</glyph>
<glyph name="hookpalatalizedbelowcomb" format="2">
  <unicode hex="0321"/>
  <anchor x="58" y="0" name="_bottom"/>
  <anchor x="58" y="-198" name="bottom"/>
  <outline>
    <contour>
      <point x="-24" y="-195" type="curve" smooth="yes"/>
      <point x="45" y="-195"/>
      <point x="77" y="-160"/>
      <point x="77" y="-99" type="curve" smooth="yes"/>
      <point x="77" y="6" type="line"/>
      <point x="67" y="6" type="line"/>
      <point x="67" y="-58" type="line" smooth="yes"/>
      <point x="67" y="-111"/>
      <point x="39" y="-139"/>
      <point x="-18" y="-139" type="curve" smooth="yes"/>
      <point x="-51" y="-139"/>
      <point x="-77" y="-131"/>
      <point x="-101" y="-110" type="curve"/>
      <point x="-110" y="-118"/>
      <point x="-116" y="-126"/>
      <point x="-116" y="-137" type="curve" smooth="yes"/>
      <point x="-116" y="-170"/>
      <point x="-77" y="-195"/>
    </contour>
  </outline>
</glyph>
<glyph name="commaaccent" format="2">
  <unicode hex="0326"/>
  <anchor x="1" y="0" name="_bottom"/>
  <anchor x="1" y="-221" name="bottom"/>
  <outline>
    <contour>
      <point x="-53" y="-222" type="line"/>
      <point x="-45" y="-222" type="line"/>
      <point x="-11" y="-174"/>
      <point x="37" y="-103"/>
      <point x="64" y="-72" type="curve"/>
      <point x="64" y="-61" type="line"/>
      <point x="-16" y="-61" type="line"/>
      <point x="-19" y="-95"/>
      <point x="-43" y="-198"/>
      <point x="-53" y="-213" type="curve"/>
    </contour>
  </outline>
</glyph>
<glyph name="cedillacomb" format="2">
  <unicode hex="0327"/>
  <anchor x="0" y="0" name="_bottom"/>
  <anchor x="0" y="-227" name="bottom"/>
  <outline>
    <contour>
      <point x="-24" y="-231" type="curve" smooth="yes"/>
      <point x="54" y="-231"/>
      <point x="114" y="-209"/>
      <point x="114" y="-136" type="curve" smooth="yes"/>
      <point x="114" y="-70"/>
      <point x="50" y="-59"/>
      <point x="-30" y="-55" type="curve"/>
      <point x="-13" y="2" type="line"/>
      <point x="-25" y="2" type="line"/>
      <point x="-46" y="-78" type="line"/>
      <point x="14" y="-82"/>
      <point x="48" y="-100"/>
      <point x="48" y="-137" type="curve" smooth="yes"/>
      <point x="48" y="-197"/>
      <point x="11" y="-219"/>
      <point x="-45" y="-219" type="curve" smooth="yes"/>
      <point x="-73" y="-219"/>
      <point x="-89" y="-217"/>
      <point x="-115" y="-211" type="curve"/>
      <point x="-115" y="-222" type="line"/>
      <point x="-86" y="-229"/>
      <point x="-44" y="-231"/>
    </contour>
  </outline>
</glyph>
<glyph name="ogonekcomb" format="2">
  <unicode hex="0328"/>
  <anchor x="2" y="0" name="_bottom"/>
  <outline>
    <contour>
      <point x="29" y="-226" type="curve" smooth="yes"/>
      <point x="64" y="-226"/>
      <point x="91" y="-218"/>
      <point x="119" y="-209" type="curve"/>
      <point x="119" y="-199" type="line"/>
      <point x="93" y="-208"/>
      <point x="81" y="-212"/>
      <point x="54" y="-212" type="curve" smooth="yes"/>
      <point x="-8" y="-212"/>
      <point x="-39" y="-170"/>
      <point x="-39" y="-126" type="curve" smooth="yes"/>
      <point x="-39" y="-87"/>
      <point x="0" y="-25"/>
      <point x="80" y="0" type="curve"/>
      <point x="49" y="0" type="line"/>
      <point x="-54" y="-16"/>
      <point x="-112" y="-68"/>
      <point x="-112" y="-123" type="curve" smooth="yes"/>
      <point x="-112" y="-191"/>
      <point x="-64" y="-226"/>
    </contour>
  </outline>
</glyph>
<glyph name="circumflexbelowcomb" format="2">
  <unicode hex="032D"/>
  <anchor x="0" y="0" name="_bottom"/>
  <anchor x="0" y="-220" name="bottom"/>
  <outline>
    <contour>
      <point x="-171" y="-220" type="line"/>
      <point x="-163" y="-220" type="line"/>
      <point x="-97" y="-178"/>
      <point x="-38" y="-138"/>
      <point x="1" y="-101" type="curve"/>
      <point x="39" y="-138"/>
      <point x="99" y="-178"/>
      <point x="165" y="-220" type="curve"/>
      <point x="173" y="-220" type="line"/>
      <point x="173" y="-206" type="line"/>
      <point x="127" y="-169"/>
      <point x="72" y="-108"/>
      <point x="42" y="-60" type="curve"/>
      <point x="-40" y="-60" type="line"/>
      <point x="-69" y="-108"/>
      <point x="-125" y="-169"/>
      <point x="-171" y="-206" type="curve"/>
    </contour>
  </outline>
</glyph>
<glyph name="slashshortoverlaycomb" format="2">
  <unicode hex="0337"/>
  <anchor x="-9" y="287" name="_center"/>
  <outline>
    <contour>
      <point x="-177" y="193" type="line"/>
      <point x="177" y="372" type="line"/>
      <point x="168" y="390" type="line"/>
      <point x="-186" y="211" type="line"/>
    </contour>
  </outline>
</glyph>
<glyph name="squarebelowcomb" format="2">
  <unicode hex="033B"/>
  <anchor x="-1" y="0" name="_bottom"/>
  <anchor x="-1" y="-230" name="bottom"/>
  <outline>
    <contour>
      <point x="-222" y="-230" type="line"/>
      <point x="221" y="-230" type="line"/>
      <point x="221" y="-46" type="line"/>
      <point x="-222" y="-46" type="line"/>
    </contour>
    <contour>
      <point x="-202" y="-210" type="line"/>
      <point x="-202" y="-66" type="line"/>
      <point x="201" y="-66" type="line"/>
      <point x="201" y="-210" type="line"/>
    </contour>
  </outline>
</glyph>
<glyph name="leftanglebelowcomb" format="2">
  <unicode hex="0349"/>
  <anchor x="-1" y="0" name="_bottom"/>
  <anchor x="-1" y="-230" name="bottom"/>
  <outline>
    <contour>
      <point x="54" y="-214" type="line"/>
      <point x="74" y="-214" type="line"/>
      <point x="74" y="-86" type="line"/>
      <point x="-78" y="-86" type="line"/>
      <point x="-78" y="-106" type="line"/>
      <point x="54" y="-106" type="line"/>
    </contour>
  </outline>
</glyph>
<glyph name="nottildeabovecomb" format="2">
  <unicode hex="034A"/>
  <anchor x="0" y="536" name="_top"/>
  <anchor x="0" y="771" name="top"/>
  <outline>
    <contour>
      <point x="-46" y="581" type="line"/>
      <point x="-7" y="643" type="line"/>
      <point x="24" y="629"/>
      <point x="62" y="613"/>
      <point x="101" y="613" type="curve" smooth="yes"/>
      <point x="180" y="613"/>
      <point x="201" y="663"/>
      <point x="210" y="728" type="curve"/>
      <point x="199" y="728" type="line"/>
      <point x="190" y="687"/>
      <point x="169" y="673"/>
      <point x="124" y="673" type="curve" smooth="yes"/>
      <point x="97" y="673"/>
      <point x="58" y="692"/>
      <point x="27" y="706" type="curve"/>
      <point x="61" y="759" type="line"/>
      <point x="52" y="764" type="line"/>
      <point x="17" y="709" type="line"/>
      <point x="-15" y="720"/>
      <point x="-53" y="737"/>
      <point x="-94" y="737" type="curve" smooth="yes"/>
      <point x="-171" y="737"/>
      <point x="-200" y="684"/>
      <point x="-209" y="616" type="curve"/>
      <point x="-199" y="616" type="line"/>
      <point x="-191" y="649"/>
      <point x="-175" y="677"/>
      <point x="-119" y="677" type="curve" smooth="yes"/>
      <point x="-91" y="677"/>
      <point x="-50" y="658"/>
      <point x="-17" y="647" type="curve"/>
      <point x="-55" y="586" type="line"/>
    </contour>
  </outline>
</glyph>
<glyph name="doublemacronbelowcomb" format="2">
  <unicode hex="035F"/>
  <anchor x="1" y="0" name="_bottom"/>
  <anchor x="1" y="-133" name="bottom"/>
  <outline>
    <contour>
      <point x="-357" y="-125" type="line"/>
      <point x="358" y="-125" type="line"/>
      <point x="358" y="-105" type="line"/>
      <point x="-357" y="-105" type="line"/>
    </contour>
  </outline>
</glyph>
<glyph name="uni0374" format="2">
  <advance width="250"/>
  <unicode hex="0374"/>
  <outline>
    <contour>
      <point x="78" y="531" type="line"/>
      <point x="90" y="531" type="line"/>
      <point x="126" y="581"/>
      <point x="177" y="664"/>
      <point x="202" y="704" type="curve"/>
      <point x="202" y="714" type="line"/>
      <point x="127" y="714" type="line"/>
      <point x="120" y="685"/>
      <point x="98" y="599"/>
      <point x="78" y="545" type="curve"/>
    </contour>
  </outline>
</glyph>
<glyph name="Pamphyliandigamma" format="2">
  <advance width="930"/>
  <unicode hex="0376"/>
  <anchor x="468" y="0" name="bottom"/>
  <anchor x="468" y="714" name="top"/>
  <outline>
    <contour>
      <point x="154" y="0" type="line"/>
      <point x="212" y="0" type="line"/>
      <point x="684" y="665" type="line"/>
      <point x="684" y="86" type="line" smooth="yes"/>
      <point x="684" y="19"/>
      <point x="674" y="10"/>
      <point x="628" y="10" type="curve" smooth="yes"/>
      <point x="575" y="10" type="line"/>
      <point x="575" y="0" type="line"/>
      <point x="888" y="0" type="line"/>
      <point x="888" y="10" type="line"/>
      <point x="830" y="10" type="line" smooth="yes"/>
      <point x="783" y="10"/>
      <point x="769" y="19"/>
      <point x="769" y="86" type="curve" smooth="yes"/>
      <point x="769" y="630" type="line" smooth="yes"/>
      <point x="769" y="695"/>
      <point x="784" y="704"/>
      <point x="826" y="704" type="curve" smooth="yes"/>
      <point x="889" y="704" type="line"/>
      <point x="889" y="714" type="line"/>
      <point x="681" y="714" type="line"/>
      <point x="240" y="118" type="line"/>
      <point x="240" y="630" type="line" smooth="yes"/>
      <point x="240" y="691"/>
      <point x="253" y="704"/>
      <point x="296" y="704" type="curve" smooth="yes"/>
      <point x="350" y="704" type="line"/>
      <point x="350" y="714" type="line"/>
      <point x="38" y="714" type="line"/>
      <point x="38" y="704" type="line"/>
      <point x="98" y="704" type="line" smooth="yes"/>
      <point x="142" y="704"/>
      <point x="154" y="690"/>
      <point x="154" y="628" type="curve" smooth="yes"/>
    </contour>
  </outline>
</glyph>
<glyph name="dieresistonos" format="2">
  <advance width="700"/>
  <unicode hex="0385"/>
  <anchor x="342" y="536" name="_top"/>
  <outline>
    <contour>
      <point x="307" y="679" type="line"/>
      <point x="316" y="679" type="line"/>
      <point x="375" y="754"/>
      <point x="393" y="765"/>
      <point x="444" y="826" type="curve"/>
      <point x="444" y="840" type="line"/>
      <point x="356" y="840" type="line"/>
      <point x="334" y="771"/>
      <point x="328" y="760"/>
      <point x="307" y="696" type="curve"/>
    </contour>
    <contour>
      <point x="218" y="629" type="curve" smooth="yes"/>
      <point x="239" y="629"/>
      <point x="256" y="638"/>
      <point x="256" y="688" type="curve" smooth="yes"/>
      <point x="256" y="737"/>
      <point x="239" y="747"/>
      <point x="218" y="747" type="curve" smooth="yes"/>
      <point x="198" y="747"/>
      <point x="179" y="737"/>
      <point x="179" y="688" type="curve" smooth="yes"/>
      <point x="179" y="638"/>
      <point x="198" y="629"/>
    </contour>
    <contour>
      <point x="467" y="629" type="curve" smooth="yes"/>
      <point x="485" y="629"/>
      <point x="503" y="638"/>
      <point x="503" y="688" type="curve" smooth="yes"/>
      <point x="503" y="737"/>
      <point x="485" y="747"/>
      <point x="467" y="747" type="curve" smooth="yes"/>
      <point x="445" y="747"/>
      <point x="427" y="737"/>
      <point x="427" y="688" type="curve" smooth="yes"/>
      <point x="427" y="638"/>
      <point x="445" y="629"/>
    </contour>
  </outline>
</glyph>
<glyph name="anoteleia" format="2">
  <advance width="269"/>
  <unicode hex="0387"/>
  <outline>
    <contour>
      <point x="135" y="405" type="curve" smooth="yes"/>
      <point x="160" y="405"/>
      <point x="185" y="416"/>
      <point x="185" y="466" type="curve" smooth="yes"/>
      <point x="185" y="516"/>
      <point x="160" y="527"/>
      <point x="135" y="527" type="curve" smooth="yes"/>
      <point x="109" y="527"/>
      <point x="84" y="516"/>
      <point x="84" y="466" type="curve" smooth="yes"/>
      <point x="84" y="416"/>
      <point x="109" y="405"/>
    </contour>
  </outline>
</glyph>
<glyph name="Xi" format="2">
  <advance width="752"/>
  <unicode hex="039E"/>
  <anchor x="376" y="0" name="bottom"/>
  <anchor x="376" y="714" name="top"/>
  <outline>
    <contour>
      <point x="56" y="0" type="line"/>
      <point x="697" y="0" type="line"/>
      <point x="708" y="198" type="line"/>
      <point x="698" y="198" type="line"/>
      <point x="693" y="142" type="line" smooth="yes"/>
      <point x="688" y="104"/>
      <point x="690" y="77"/>
      <point x="629" y="77" type="curve" smooth="yes"/>
      <point x="113" y="77" type="line" smooth="yes"/>
      <point x="68" y="77"/>
      <point x="65" y="104"/>
      <point x="61" y="141" type="curve" smooth="yes"/>
      <point x="56" y="198" type="line"/>
      <point x="46" y="198" type="line"/>
    </contour>
    <contour>
      <point x="196" y="277" type="line"/>
      <point x="206" y="277" type="line"/>
      <point x="205" y="292" type="line" smooth="yes"/>
      <point x="204" y="321"/>
      <point x="221" y="338"/>
      <point x="233" y="338" type="curve" smooth="yes"/>
      <point x="521" y="338" type="line" smooth="yes"/>
      <point x="537" y="338"/>
      <point x="551" y="322"/>
      <point x="549" y="292" type="curve" smooth="yes"/>
      <point x="549" y="277" type="line"/>
      <point x="559" y="277" type="line"/>
      <point x="559" y="440" type="line"/>
      <point x="549" y="440" type="line"/>
      <point x="549" y="425" type="line" smooth="yes"/>
      <point x="551" y="395"/>
      <point x="538" y="379"/>
      <point x="521" y="379" type="curve" smooth="yes"/>
      <point x="233" y="379" type="line" smooth="yes"/>
      <point x="221" y="379"/>
      <point x="204" y="395"/>
      <point x="205" y="425" type="curve" smooth="yes"/>
      <point x="206" y="440" type="line"/>
      <point x="196" y="440" type="line"/>
    </contour>
    <contour>
      <point x="87" y="513" type="line"/>
      <point x="97" y="513" type="line"/>
      <point x="102" y="562" type="line" smooth="yes"/>
      <point x="109" y="615"/>
      <point x="112" y="639"/>
      <point x="175" y="639" type="curve" smooth="yes"/>
      <point x="575" y="639" type="line" smooth="yes"/>
      <point x="640" y="639"/>
      <point x="644" y="614"/>
      <point x="650" y="562" type="curve" smooth="yes"/>
      <point x="655" y="513" type="line"/>
      <point x="665" y="513" type="line"/>
      <point x="655" y="714" type="line"/>
      <point x="97" y="714" type="line"/>
    </contour>
  </outline>
</glyph>
<glyph name="Pi" format="2">
  <advance width="912"/>
  <unicode hex="03A0"/>
  <anchor x="456" y="0" name="bottom"/>
  <anchor x="456" y="714" name="top"/>
  <outline>
    <contour>
      <point x="47" y="0" type="line"/>
      <point x="382" y="0" type="line"/>
      <point x="382" y="10" type="line"/>
      <point x="330" y="10" type="line" smooth="yes"/>
      <point x="290" y="10"/>
      <point x="275" y="16"/>
      <point x="275" y="86" type="curve" smooth="yes"/>
      <point x="275" y="704" type="line"/>
      <point x="638" y="704" type="line"/>
      <point x="638" y="86" type="line" smooth="yes"/>
      <point x="638" y="16"/>
      <point x="622" y="10"/>
      <point x="575" y="10" type="curve" smooth="yes"/>
      <point x="529" y="10" type="line"/>
      <point x="529" y="0" type="line"/>
      <point x="862" y="0" type="line"/>
      <point x="862" y="10" type="line"/>
      <point x="809" y="10" type="line" smooth="yes"/>
      <point x="766" y="10"/>
      <point x="748" y="16"/>
      <point x="748" y="84" type="curve" smooth="yes"/>
      <point x="748" y="627" type="line" smooth="yes"/>
      <point x="748" y="698"/>
      <point x="763" y="704"/>
      <point x="810" y="704" type="curve" smooth="yes"/>
      <point x="862" y="704" type="line"/>
      <point x="862" y="714" type="line"/>
      <point x="47" y="714" type="line"/>
      <point x="47" y="704" type="line"/>
      <point x="103" y="704" type="line" smooth="yes"/>
      <point x="149" y="704"/>
      <point x="166" y="697"/>
      <point x="166" y="629" type="curve" smooth="yes"/>
      <point x="166" y="86" type="line" smooth="yes"/>
      <point x="166" y="16"/>
      <point x="147" y="10"/>
      <point x="108" y="10" type="curve" smooth="yes"/>
      <point x="47" y="10" type="line"/>
    </contour>
  </outline>
</glyph>
<glyph name="Omega" format="2">
  <advance width="895"/>
  <unicode hex="03A9"/>
  <anchor x="448" y="0" name="bottom"/>
  <anchor x="448" y="714" name="top"/>
  <anchor x="20" y="714" name="topleft"/>
  <outline>
    <contour>
      <point x="56" y="0" type="line"/>
      <point x="409" y="0" type="line"/>
      <point x="396" y="177" type="line"/>
      <point x="252" y="179"/>
      <point x="190" y="276"/>
      <point x="190" y="438" type="curve" smooth="yes"/>
      <point x="190" y="619"/>
      <point x="270" y="715"/>
      <point x="444" y="715" type="curve" smooth="yes"/>
      <point x="620" y="715"/>
      <point x="705" y="608"/>
      <point x="705" y="438" type="curve" smooth="yes"/>
      <point x="705" y="276"/>
      <point x="644" y="179"/>
      <point x="497" y="177" type="curve"/>
      <point x="485" y="0" type="line"/>
      <point x="836" y="0" type="line"/>
      <point x="844" y="163" type="line"/>
      <point x="834" y="163" type="line"/>
      <point x="832" y="143" type="line" smooth="yes"/>
      <point x="826" y="82"/>
      <point x="820" y="71"/>
      <point x="779" y="71" type="curve" smooth="yes"/>
      <point x="498" y="71" type="line"/>
      <point x="507" y="167" type="line"/>
      <point x="701" y="170"/>
      <point x="823" y="262"/>
      <point x="823" y="442" type="curve" smooth="yes"/>
      <point x="823" y="596"/>
      <point x="695" y="725"/>
      <point x="444" y="725" type="curve" smooth="yes"/>
      <point x="194" y="725"/>
      <point x="73" y="608"/>
      <point x="73" y="442" type="curve" smooth="yes"/>
      <point x="73" y="257"/>
      <point x="197" y="172"/>
      <point x="386" y="168" type="curve"/>
      <point x="396" y="68" type="line"/>
      <point x="103" y="68" type="line" smooth="yes"/>
      <point x="69" y="68"/>
      <point x="66" y="79"/>
      <point x="60" y="140" type="curve" smooth="yes"/>
      <point x="58" y="160" type="line"/>
      <point x="48" y="160" type="line"/>
    </contour>
  </outline>
</glyph>
<glyph name="beta" format="2">
  <advance width="718"/>
  <unicode hex="03B2"/>
  <anchor x="427" y="0" name="bottom"/>
  <anchor x="359" y="767" name="top"/>
  <anchor x="698" y="767" name="topright"/>
  <outline>
    <contour>
      <point x="120" y="-228" type="line"/>
      <point x="226" y="-228" type="line"/>
      <point x="226" y="44" type="line"/>
      <point x="277" y="8"/>
      <point x="323" y="-10"/>
      <point x="393" y="-10" type="curve" smooth="yes"/>
      <point x="543" y="-10"/>
      <point x="650" y="79"/>
      <point x="650" y="204" type="curve" smooth="yes"/>
      <point x="650" y="336"/>
      <point x="569" y="408"/>
      <point x="434" y="424" type="curve"/>
      <point x="434" y="425" type="line"/>
      <point x="571" y="459"/>
      <point x="615" y="528"/>
      <point x="615" y="597" type="curve" smooth="yes"/>
      <point x="615" y="702"/>
      <point x="522" y="767"/>
      <point x="379" y="767" type="curve" smooth="yes"/>
      <point x="228" y="767"/>
      <point x="120" y="706"/>
      <point x="120" y="551" type="curve" smooth="yes"/>
    </contour>
    <contour>
      <point x="371" y="2" type="curve" smooth="yes"/>
      <point x="313" y="2"/>
      <point x="272" y="21"/>
      <point x="226" y="52" type="curve"/>
      <point x="226" y="592" type="line" smooth="yes"/>
      <point x="226" y="718"/>
      <point x="291" y="757"/>
      <point x="377" y="757" type="curve" smooth="yes"/>
      <point x="468" y="757"/>
      <point x="518" y="691"/>
      <point x="518" y="589" type="curve" smooth="yes"/>
      <point x="518" y="495"/>
      <point x="470" y="454"/>
      <point x="421" y="427" type="curve"/>
      <point x="376" y="439"/>
      <point x="362" y="441"/>
      <point x="338" y="441" type="curve" smooth="yes"/>
      <point x="309" y="441"/>
      <point x="298" y="433"/>
      <point x="298" y="421" type="curve" smooth="yes"/>
      <point x="298" y="408"/>
      <point x="308" y="398"/>
      <point x="332" y="398" type="curve" smooth="yes"/>
      <point x="363" y="398"/>
      <point x="395" y="409"/>
      <point x="422" y="421" type="curve"/>
      <point x="503" y="390"/>
      <point x="543" y="321"/>
      <point x="543" y="210" type="curve" smooth="yes"/>
      <point x="543" y="79"/>
      <point x="487" y="2"/>
    </contour>
  </outline>
</glyph>
<glyph name="nu" format="2">
  <advance width="702"/>
  <unicode hex="03BD"/>
  <anchor x="351" y="0" name="bottom"/>
  <anchor x="348" y="536" name="top"/>
  <outline>
    <contour>
      <point x="301" y="0" type="curve"/>
      <point x="362" y="0" type="line"/>
      <point x="551" y="167"/>
      <point x="620" y="311"/>
      <point x="620" y="425" type="curve" smooth="yes"/>
      <point x="620" y="501"/>
      <point x="596" y="546"/>
      <point x="534" y="546" type="curve" smooth="yes"/>
      <point x="508" y="546"/>
      <point x="489" y="533"/>
      <point x="481" y="505" type="curve"/>
      <point x="536" y="491"/>
      <point x="579" y="460"/>
      <point x="579" y="370" type="curve" smooth="yes"/>
      <point x="579" y="264"/>
      <point x="485" y="128"/>
      <point x="387" y="36" type="curve"/>
      <point x="294" y="381"/>
      <point x="238" y="541"/>
      <point x="133" y="541" type="curve" smooth="yes"/>
      <point x="76" y="541"/>
      <point x="32" y="520"/>
      <point x="5" y="498" type="curve"/>
      <point x="13" y="491" type="line"/>
      <point x="20" y="501"/>
      <point x="38" y="507"/>
      <point x="56" y="507" type="curve" smooth="yes"/>
      <point x="120" y="507"/>
      <point x="200" y="416"/>
    </contour>
  </outline>
</glyph>
<glyph name="xi" format="2">
  <advance width="556"/>
  <unicode hex="03BE"/>
  <anchor x="285" y="-203" name="bottom"/>
  <anchor x="285" y="786" name="top"/>
  <outline>
    <contour>
      <point x="352" y="-203" type="line"/>
      <point x="439" y="-191"/>
      <point x="530" y="-146"/>
      <point x="530" y="-55" type="curve" smooth="yes"/>
      <point x="530" y="23"/>
      <point x="474" y="43"/>
      <point x="312" y="90" type="curve" smooth="yes"/>
      <point x="180" y="125"/>
      <point x="144" y="162"/>
      <point x="144" y="227" type="curve" smooth="yes"/>
      <point x="144" y="348"/>
      <point x="292" y="423"/>
      <point x="345" y="433" type="curve"/>
      <point x="375" y="430"/>
      <point x="403" y="427"/>
      <point x="429" y="427" type="curve" smooth="yes"/>
      <point x="472" y="427"/>
      <point x="491" y="436"/>
      <point x="491" y="452" type="curve" smooth="yes"/>
      <point x="491" y="465"/>
      <point x="479" y="472"/>
      <point x="448" y="472" type="curve" smooth="yes"/>
      <point x="419" y="472"/>
      <point x="380" y="462"/>
      <point x="335" y="445" type="curve"/>
      <point x="254" y="458"/>
      <point x="209" y="481"/>
      <point x="209" y="550" type="curve" smooth="yes"/>
      <point x="209" y="629"/>
      <point x="245" y="662"/>
      <point x="321" y="692" type="curve"/>
      <point x="346" y="691"/>
      <point x="384" y="687"/>
      <point x="427" y="687" type="curve" smooth="yes"/>
      <point x="469" y="687"/>
      <point x="494" y="691"/>
      <point x="494" y="709" type="curve" smooth="yes"/>
      <point x="494" y="720"/>
      <point x="479" y="727"/>
      <point x="451" y="727" type="curve" smooth="yes"/>
      <point x="413" y="727"/>
      <point x="364" y="712"/>
      <point x="318" y="701" type="curve"/>
      <point x="226" y="709"/>
      <point x="159" y="730"/>
      <point x="98" y="768" type="curve"/>
      <point x="91" y="759" type="line"/>
      <point x="153" y="723"/>
      <point x="212" y="702"/>
      <point x="301" y="693" type="curve"/>
      <point x="193" y="671"/>
      <point x="116" y="624"/>
      <point x="116" y="545" type="curve" smooth="yes"/>
      <point x="116" y="482"/>
      <point x="186" y="447"/>
      <point x="319" y="436" type="curve"/>
      <point x="319" y="435" type="line"/>
      <point x="169" y="378"/>
      <point x="56" y="305"/>
      <point x="56" y="199" type="curve" smooth="yes"/>
      <point x="56" y="62"/>
      <point x="187" y="36"/>
      <point x="293" y="8" type="curve" smooth="yes"/>
      <point x="417" y="-27"/>
      <point x="468" y="-50"/>
      <point x="468" y="-97" type="curve" smooth="yes"/>
      <point x="468" y="-169"/>
      <point x="405" y="-184"/>
      <point x="352" y="-194" type="curve"/>
    </contour>
  </outline>
</glyph>
<glyph name="pi" format="2">
  <advance width="770"/>
  <unicode hex="03C0"/>
  <anchor x="385" y="0" name="bottom"/>
  <anchor x="385" y="536" name="top"/>
  <outline>
    <contour>
      <point x="591" y="-8" type="curve" smooth="yes"/>
      <point x="634" y="-8"/>
      <point x="657" y="3"/>
      <point x="684" y="15" type="curve"/>
      <point x="684" y="27" type="line"/>
      <point x="669" y="19"/>
      <point x="647" y="13"/>
      <point x="622" y="13" type="curve" smooth="yes"/>
      <point x="574" y="13"/>
      <point x="555" y="58"/>
      <point x="555" y="130" type="curve" smooth="yes"/>
      <point x="555" y="239"/>
      <point x="555" y="299"/>
      <point x="568" y="447" type="curve"/>
      <point x="725" y="447" type="line"/>
      <point x="725" y="536" type="line"/>
      <point x="186" y="536" type="line" smooth="yes"/>
      <point x="77" y="536"/>
      <point x="40" y="463"/>
      <point x="40" y="381" type="curve"/>
      <point x="48" y="381" type="line"/>
      <point x="56" y="435"/>
      <point x="69" y="447"/>
      <point x="90" y="447" type="curve" smooth="yes"/>
      <point x="272" y="447" type="line"/>
      <point x="243" y="219" type="line" smooth="yes"/>
      <point x="227" y="79"/>
      <point x="220" y="34"/>
      <point x="111" y="32" type="curve"/>
      <point x="111" y="0" type="line"/>
      <point x="131" y="0" type="line" smooth="yes"/>
      <point x="232" y="0"/>
      <point x="249" y="73"/>
      <point x="258" y="163" type="curve" smooth="yes"/>
      <point x="282" y="447" type="line"/>
      <point x="520" y="447" type="line"/>
      <point x="508" y="416"/>
      <point x="486" y="167"/>
      <point x="486" y="85" type="curve" smooth="yes"/>
      <point x="486" y="26"/>
      <point x="519" y="-8"/>
    </contour>
  </outline>
</glyph>
<glyph name="sigma" format="2">
  <advance width="718"/>
  <unicode hex="03C3"/>
  <anchor x="359" y="0" name="bottom"/>
  <anchor x="359" y="536" name="top"/>
  <outline>
    <contour>
      <point x="342" y="-10" type="curve" smooth="yes"/>
      <point x="520" y="-10"/>
      <point x="629" y="95"/>
      <point x="629" y="210" type="curve" smooth="yes"/>
      <point x="629" y="351"/>
      <point x="586" y="417"/>
      <point x="477" y="463" type="curve"/>
      <point x="700" y="463" type="line"/>
      <point x="700" y="536" type="line"/>
      <point x="420" y="536" type="line" smooth="yes"/>
      <point x="198" y="536"/>
      <point x="68" y="444"/>
      <point x="68" y="237" type="curve" smooth="yes"/>
      <point x="68" y="87"/>
      <point x="166" y="-10"/>
    </contour>
    <contour>
      <point x="347" y="0" type="curve" smooth="yes"/>
      <point x="239" y="0"/>
      <point x="177" y="78"/>
      <point x="177" y="227" type="curve" smooth="yes"/>
      <point x="177" y="384"/>
      <point x="264" y="463"/>
      <point x="396" y="463" type="curve" smooth="yes"/>
      <point x="459" y="463" type="line"/>
      <point x="497" y="423"/>
      <point x="524" y="354"/>
      <point x="524" y="220" type="curve" smooth="yes"/>
      <point x="524" y="65"/>
      <point x="446" y="0"/>
    </contour>
  </outline>
</glyph>
<glyph name="chi" format="2">
  <advance width="661"/>
  <unicode hex="03C7"/>
  <anchor x="330" y="-240" name="bottom"/>
  <anchor x="330" y="536" name="top"/>
  <anchor x="641" y="536" name="topright"/>
  <outline>
    <contour>
      <point x="22" y="-240" type="line"/>
      <point x="149" y="-240" type="line"/>
      <point x="362" y="103" type="line"/>
      <point x="450" y="-160" type="line" smooth="yes"/>
      <point x="465" y="-195"/>
      <point x="494" y="-236"/>
      <point x="561" y="-236" type="curve" smooth="yes"/>
      <point x="595" y="-236"/>
      <point x="619" y="-221"/>
      <point x="634" y="-181" type="curve"/>
      <point x="626" y="-173" type="line"/>
      <point x="609" y="-178"/>
      <point x="589" y="-189"/>
      <point x="558" y="-189" type="curve" smooth="yes"/>
      <point x="494" y="-189"/>
      <point x="458" y="-145"/>
      <point x="432" y="-80" type="curve" smooth="yes"/>
      <point x="362" y="103" type="line"/>
      <point x="633" y="536" type="line"/>
      <point x="510" y="536" type="line"/>
      <point x="305" y="213" type="line"/>
      <point x="221" y="459" type="line" smooth="yes"/>
      <point x="201" y="512"/>
      <point x="170" y="541"/>
      <point x="106" y="541" type="curve" smooth="yes"/>
      <point x="62" y="541"/>
      <point x="41" y="526"/>
      <point x="22" y="489" type="curve"/>
      <point x="29" y="481" type="line"/>
      <point x="55" y="490"/>
      <point x="79" y="495"/>
      <point x="105" y="495" type="curve" smooth="yes"/>
      <point x="166" y="495"/>
      <point x="212" y="449"/>
      <point x="242" y="375" type="curve" smooth="yes"/>
      <point x="304" y="215" type="line"/>
    </contour>
  </outline>
</glyph>
<glyph name="uni03D0" format="2">
  <advance width="689"/>
  <unicode hex="03D0"/>
  <anchor x="344" y="-10" name="bottom"/>
  <anchor x="344" y="760" name="top"/>
  <outline>
    <contour>
      <point x="348" y="-10" type="curve" smooth="yes"/>
      <point x="537" y="-10"/>
      <point x="620" y="90"/>
      <point x="620" y="244" type="curve" smooth="yes"/>
      <point x="620" y="390"/>
      <point x="520" y="467"/>
      <point x="357" y="467" type="curve" smooth="yes"/>
      <point x="245" y="467"/>
      <point x="163" y="415"/>
      <point x="131" y="336" type="curve"/>
      <point x="129" y="336" type="line"/>
      <point x="130" y="429"/>
      <point x="143" y="531"/>
      <point x="180" y="609" type="curve"/>
      <point x="231" y="563"/>
      <point x="299" y="528"/>
      <point x="374" y="528" type="curve" smooth="yes"/>
      <point x="489" y="528"/>
      <point x="554" y="571"/>
      <point x="554" y="651" type="curve" smooth="yes"/>
      <point x="554" y="721"/>
      <point x="488" y="760"/>
      <point x="376" y="760" type="curve" smooth="yes"/>
      <point x="163" y="760"/>
      <point x="68" y="547"/>
      <point x="68" y="317" type="curve" smooth="yes"/>
      <point x="68" y="86"/>
      <point x="170" y="-10"/>
    </contour>
    <contour>
      <point x="346" y="0" type="curve" smooth="yes"/>
      <point x="248" y="0"/>
      <point x="183" y="78"/>
      <point x="183" y="250" type="curve" smooth="yes"/>
      <point x="183" y="351"/>
      <point x="225" y="457"/>
      <point x="350" y="457" type="curve" smooth="yes"/>
      <point x="487" y="457"/>
      <point x="512" y="354"/>
      <point x="512" y="241" type="curve" smooth="yes"/>
      <point x="512" y="91"/>
      <point x="467" y="0"/>
    </contour>
    <contour>
      <point x="376" y="538" type="curve" smooth="yes"/>
      <point x="311" y="538"/>
      <point x="243" y="567"/>
      <point x="185" y="620" type="curve"/>
      <point x="220" y="689"/>
      <point x="284" y="748"/>
      <point x="380" y="748" type="curve" smooth="yes"/>
      <point x="483" y="748"/>
      <point x="543" y="711"/>
      <point x="543" y="651" type="curve" smooth="yes"/>
      <point x="543" y="576"/>
      <point x="482" y="538"/>
    </contour>
  </outline>
</glyph>
<glyph name="uni03D8" format="2">
  <advance width="887"/>
  <unicode hex="03D8"/>
  <anchor x="444" y="0" name="bottom"/>
  <anchor x="444" y="714" name="top"/>
  <outline>
    <contour>
      <point x="273" y="0" type="line"/>
      <point x="618" y="0" type="line"/>
      <point x="618" y="10" type="line"/>
      <point x="536" y="10" type="line" smooth="yes"/>
      <point x="503" y="10"/>
      <point x="499" y="24"/>
      <point x="499" y="85" type="curve" smooth="yes"/>
      <point x="499" y="169" type="line"/>
      <point x="714" y="185"/>
      <point x="818" y="305"/>
      <point x="818" y="445" type="curve" smooth="yes"/>
      <point x="818" y="607"/>
      <point x="706" y="725"/>
      <point x="447" y="725" type="curve" smooth="yes"/>
      <point x="203" y="725"/>
      <point x="68" y="604"/>
      <point x="68" y="446" type="curve" smooth="yes"/>
      <point x="68" y="302"/>
      <point x="181" y="185"/>
      <point x="388" y="169" type="curve"/>
      <point x="388" y="85" type="line" smooth="yes"/>
      <point x="388" y="24"/>
      <point x="384" y="10"/>
      <point x="351" y="10" type="curve" smooth="yes"/>
      <point x="273" y="10" type="line"/>
    </contour>
    <contour>
      <point x="445" y="176" type="curve" smooth="yes"/>
      <point x="283" y="176"/>
      <point x="182" y="271"/>
      <point x="182" y="447" type="curve" smooth="yes"/>
      <point x="182" y="623"/>
      <point x="280" y="715"/>
      <point x="448" y="715" type="curve" smooth="yes"/>
      <point x="628" y="715"/>
      <point x="704" y="621"/>
      <point x="704" y="446" type="curve" smooth="yes"/>
      <point x="704" y="271"/>
      <point x="625" y="176"/>
    </contour>
  </outline>
</glyph>
<glyph name="uni03DF" format="2">
  <advance width="621"/>
  <unicode hex="03DF"/>
  <anchor x="312" y="-223" name="bottom"/>
  <anchor x="312" y="760" name="top"/>
  <outline>
    <contour>
      <point x="429" y="-226" type="curve" smooth="yes"/>
      <point x="484" y="-226"/>
      <point x="508" y="-199"/>
      <point x="510" y="-173" type="curve"/>
      <point x="441" y="-181"/>
      <point x="413" y="-143"/>
      <point x="413" y="-80" type="curve" smooth="yes"/>
      <point x="413" y="51"/>
      <point x="492" y="207"/>
      <point x="556" y="327" type="curve"/>
      <point x="556" y="397" type="line"/>
      <point x="88" y="251" type="line"/>
      <point x="143" y="362"/>
      <point x="278" y="492"/>
      <point x="278" y="625" type="curve" smooth="yes"/>
      <point x="278" y="697"/>
      <point x="243" y="760"/>
      <point x="174" y="760" type="curve" smooth="yes"/>
      <point x="125" y="760"/>
      <point x="100" y="731"/>
      <point x="100" y="705" type="curve"/>
      <point x="160" y="707"/>
      <point x="190" y="680"/>
      <point x="190" y="602" type="curve" smooth="yes"/>
      <point x="190" y="516"/>
      <point x="156" y="404"/>
      <point x="65" y="224" type="curve"/>
      <point x="65" y="156" type="line"/>
      <point x="533" y="302" type="line"/>
      <point x="494" y="234"/>
      <point x="326" y="57"/>
      <point x="326" y="-98" type="curve" smooth="yes"/>
      <point x="326" y="-167"/>
      <point x="361" y="-226"/>
    </contour>
  </outline>
</glyph>
<glyph name="uni03E0" format="2">
  <advance width="694"/>
  <unicode hex="03E0"/>
  <anchor x="347" y="0" name="bottom"/>
  <anchor x="347" y="714" name="top"/>
  <outline>
    <contour>
      <point x="246" y="-10" type="line"/>
      <point x="450" y="8"/>
      <point x="626" y="128"/>
      <point x="626" y="371" type="curve" smooth="yes"/>
      <point x="626" y="642"/>
      <point x="495" y="724"/>
      <point x="310" y="724" type="curve" smooth="yes"/>
      <point x="101" y="724"/>
      <point x="42" y="642"/>
      <point x="42" y="601" type="curve" smooth="yes"/>
      <point x="42" y="564"/>
      <point x="55" y="556"/>
      <point x="116" y="556" type="curve"/>
      <point x="116" y="679"/>
      <point x="185" y="713"/>
      <point x="285" y="713" type="curve" smooth="yes"/>
      <point x="361" y="713"/>
      <point x="424" y="673"/>
      <point x="462" y="575" type="curve"/>
      <point x="153" y="455" type="line"/>
      <point x="158" y="445" type="line"/>
      <point x="466" y="565" type="line"/>
      <point x="484" y="532"/>
      <point x="496" y="491"/>
      <point x="505" y="434" type="curve"/>
      <point x="221" y="319" type="line"/>
      <point x="225" y="309" type="line"/>
      <point x="508" y="423" type="line"/>
      <point x="516" y="393"/>
      <point x="521" y="357"/>
      <point x="521" y="321" type="curve" smooth="yes"/>
      <point x="522" y="38"/>
      <point x="353" y="16"/>
      <point x="246" y="0" type="curve"/>
    </contour>
  </outline>
</glyph>
<glyph name="uni03E1" format="2">
  <advance width="512"/>
  <unicode hex="03E1"/>
  <anchor x="257" y="-240" name="bottom"/>
  <anchor x="257" y="547" name="top"/>
  <outline>
    <contour>
      <point x="253" y="-240" type="line"/>
      <point x="357" y="-143"/>
      <point x="449" y="-23"/>
      <point x="449" y="119" type="curve" smooth="yes"/>
      <point x="449" y="400"/>
      <point x="261" y="499"/>
      <point x="26" y="547" type="curve"/>
      <point x="26" y="537" type="line"/>
      <point x="158" y="480"/>
      <point x="245" y="409"/>
      <point x="297" y="308" type="curve"/>
      <point x="72" y="248" type="line"/>
      <point x="74" y="238" type="line"/>
      <point x="303" y="298" type="line"/>
      <point x="325" y="245"/>
      <point x="340" y="204"/>
      <point x="348" y="160" type="curve"/>
      <point x="123" y="105" type="line"/>
      <point x="125" y="95" type="line"/>
      <point x="350" y="150" type="line"/>
      <point x="353" y="130"/>
      <point x="357" y="71"/>
      <point x="357" y="58" type="curve" smooth="yes"/>
      <point x="357" y="-64"/>
      <point x="314" y="-148"/>
      <point x="245" y="-235" type="curve"/>
    </contour>
  </outline>
</glyph>
<glyph name="uni03FB" format="2">
  <advance width="898"/>
  <unicode hex="03FB"/>
  <anchor x="450" y="-240" name="bottom"/>
  <anchor x="450" y="536" name="top"/>
  <outline>
    <contour>
      <point x="184" y="-240" type="curve" smooth="yes"/>
      <point x="219" y="-240"/>
      <point x="237" y="-223"/>
      <point x="240" y="-180" type="curve"/>
      <point x="161" y="-181"/>
      <point x="141" y="-159"/>
      <point x="141" y="-176" type="curve" smooth="yes"/>
      <point x="141" y="487" type="line"/>
      <point x="143" y="487" type="line"/>
      <point x="374" y="183" type="line"/>
      <point x="415" y="183" type="line"/>
      <point x="643" y="471" type="line"/>
      <point x="645" y="471" type="line"/>
      <point x="645" y="95" type="line" smooth="yes"/>
      <point x="645" y="40"/>
      <point x="669" y="-10"/>
      <point x="772" y="-10" type="curve" smooth="yes"/>
      <point x="812" y="-10"/>
      <point x="836" y="-4"/>
      <point x="864" y="2" type="curve"/>
      <point x="864" y="12" type="line"/>
      <point x="844" y="7"/>
      <point x="824" y="3"/>
      <point x="803" y="3" type="curve" smooth="yes"/>
      <point x="747" y="3"/>
      <point x="745" y="29"/>
      <point x="745" y="97" type="curve" smooth="yes"/>
      <point x="745" y="454" type="line" smooth="yes"/>
      <point x="745" y="512"/>
      <point x="751" y="526"/>
      <point x="801" y="526" type="curve" smooth="yes"/>
      <point x="844" y="526" type="line"/>
      <point x="844" y="536" type="line"/>
      <point x="675" y="536" type="line"/>
      <point x="448" y="255" type="line"/>
      <point x="234" y="536" type="line"/>
      <point x="11" y="536" type="line"/>
      <point x="11" y="526" type="line"/>
      <point x="82" y="526" type="line" smooth="yes"/>
      <point x="125" y="526"/>
      <point x="131" y="515"/>
      <point x="131" y="453" type="curve" smooth="yes"/>
      <point x="131" y="17" type="line" smooth="yes"/>
      <point x="131" y="-19"/>
      <point x="126" y="-133"/>
      <point x="126" y="-207" type="curve" smooth="yes"/>
      <point x="126" y="-228"/>
      <point x="155" y="-240"/>
    </contour>
  </outline>
</glyph>
<glyph name="afii10025" format="2">
  <advance width="686"/>
  <unicode hex="0417"/>
  <anchor x="344" y="0" name="bottom"/>
  <anchor x="344" y="714" name="top"/>
  <outline>
    <contour>
      <point x="324" y="-9" type="curve" smooth="yes"/>
      <point x="515" y="-9"/>
      <point x="625" y="87"/>
      <point x="625" y="195" type="curve" smooth="yes"/>
      <point x="625" y="296"/>
      <point x="530" y="366"/>
      <point x="393" y="372" type="curve"/>
      <point x="522" y="387"/>
      <point x="601" y="441"/>
      <point x="601" y="546" type="curve" smooth="yes"/>
      <point x="601" y="639"/>
      <point x="517" y="726"/>
      <point x="340" y="726" type="curve" smooth="yes"/>
      <point x="183" y="726"/>
      <point x="81" y="678"/>
      <point x="81" y="601" type="curve" smooth="yes"/>
      <point x="81" y="547"/>
      <point x="126" y="534"/>
      <point x="177" y="534" type="curve"/>
      <point x="177" y="660"/>
      <point x="210" y="716"/>
      <point x="337" y="716" type="curve" smooth="yes"/>
      <point x="445" y="716"/>
      <point x="497" y="651"/>
      <point x="497" y="542" type="curve" smooth="yes"/>
      <point x="497" y="425"/>
      <point x="441" y="376"/>
      <point x="314" y="376" type="curve" smooth="yes"/>
      <point x="213" y="376" type="line"/>
      <point x="213" y="366" type="line"/>
      <point x="324" y="366" type="line" smooth="yes"/>
      <point x="450" y="366"/>
      <point x="523" y="299"/>
      <point x="523" y="194" type="curve" smooth="yes"/>
      <point x="523" y="80"/>
      <point x="436" y="1"/>
      <point x="319" y="1" type="curve" smooth="yes"/>
      <point x="201" y="1"/>
      <point x="131" y="58"/>
      <point x="130" y="201" type="curve"/>
      <point x="75" y="201"/>
      <point x="51" y="179"/>
      <point x="51" y="142" type="curve" smooth="yes"/>
      <point x="51" y="50"/>
      <point x="155" y="-9"/>
    </contour>
  </outline>
</glyph>
<glyph name="afii10037" format="2">
  <advance width="839"/>
  <unicode hex="0423"/>
  <anchor x="439" y="0" name="bottom"/>
  <anchor x="439" y="714" name="top"/>
  <outline>
    <contour>
      <point x="139" y="0" type="line"/>
      <point x="220" y="0" type="line" smooth="yes"/>
      <point x="348" y="0"/>
      <point x="381" y="59"/>
      <point x="434" y="155" type="curve" smooth="yes"/>
      <point x="679" y="606" type="line" smooth="yes"/>
      <point x="713" y="675"/>
      <point x="723" y="704"/>
      <point x="768" y="704" type="curve" smooth="yes"/>
      <point x="816" y="704" type="line"/>
      <point x="816" y="714" type="line"/>
      <point x="577" y="714" type="line"/>
      <point x="577" y="704" type="line"/>
      <point x="630" y="704" type="line" smooth="yes"/>
      <point x="662" y="704"/>
      <point x="684" y="698"/>
      <point x="684" y="669" type="curve" smooth="yes"/>
      <point x="684" y="653"/>
      <point x="679" y="639"/>
      <point x="662" y="605" type="curve" smooth="yes"/>
      <point x="541" y="388" type="line" smooth="yes"/>
      <point x="515" y="343"/>
      <point x="482" y="279"/>
      <point x="461" y="242" type="curve"/>
      <point x="443" y="271"/>
      <point x="424" y="298"/>
      <point x="404" y="321" type="curve" smooth="yes"/>
      <point x="222" y="589" type="line" smooth="yes"/>
      <point x="206" y="616"/>
      <point x="192" y="644"/>
      <point x="192" y="666" type="curve" smooth="yes"/>
      <point x="192" y="701"/>
      <point x="213" y="704"/>
      <point x="235" y="704" type="curve" smooth="yes"/>
      <point x="299" y="704" type="line"/>
      <point x="299" y="714" type="line"/>
      <point x="0" y="714" type="line"/>
      <point x="0" y="704" type="line"/>
      <point x="22" y="704" type="line" smooth="yes"/>
      <point x="31" y="704"/>
      <point x="53" y="687"/>
      <point x="82" y="640" type="curve" smooth="yes"/>
      <point x="414" y="145" type="line"/>
      <point x="358" y="30"/>
      <point x="312" y="18"/>
      <point x="204" y="18" type="curve" smooth="yes"/>
      <point x="139" y="18" type="line"/>
    </contour>
  </outline>
</glyph>
<glyph name="afii10041" format="2">
  <advance width="913"/>
  <unicode hex="0427"/>
  <anchor x="456" y="0" name="bottom"/>
  <anchor x="456" y="714" name="top"/>
  <outline>
    <contour>
      <point x="519" y="0" type="line"/>
      <point x="862" y="0" type="line"/>
      <point x="862" y="10" type="line"/>
      <point x="802" y="10" type="line" smooth="yes"/>
      <point x="759" y="10"/>
      <point x="747" y="21"/>
      <point x="747" y="90" type="curve" smooth="yes"/>
      <point x="747" y="625" type="line" smooth="yes"/>
      <point x="747" y="693"/>
      <point x="755" y="704"/>
      <point x="809" y="704" type="curve" smooth="yes"/>
      <point x="862" y="704" type="line"/>
      <point x="862" y="714" type="line"/>
      <point x="527" y="714" type="line"/>
      <point x="527" y="704" type="line"/>
      <point x="577" y="704" type="line" smooth="yes"/>
      <point x="625" y="704"/>
      <point x="637" y="693"/>
      <point x="637" y="625" type="curve" smooth="yes"/>
      <point x="637" y="305" type="line"/>
      <point x="558" y="266"/>
      <point x="486" y="255"/>
      <point x="388" y="255" type="curve" smooth="yes"/>
      <point x="303" y="255"/>
      <point x="256" y="286"/>
      <point x="256" y="405" type="curve" smooth="yes"/>
      <point x="256" y="625" type="line" smooth="yes"/>
      <point x="256" y="693"/>
      <point x="265" y="704"/>
      <point x="320" y="704" type="curve" smooth="yes"/>
      <point x="358" y="704" type="line"/>
      <point x="358" y="714" type="line"/>
      <point x="38" y="714" type="line"/>
      <point x="38" y="704" type="line"/>
      <point x="88" y="704" type="line" smooth="yes"/>
      <point x="135" y="704"/>
      <point x="147" y="693"/>
      <point x="147" y="623" type="curve" smooth="yes"/>
      <point x="147" y="424" type="line" smooth="yes"/>
      <point x="147" y="286"/>
      <point x="226" y="241"/>
      <point x="353" y="241" type="curve" smooth="yes"/>
      <point x="474" y="241"/>
      <point x="558" y="255"/>
      <point x="637" y="295" type="curve"/>
      <point x="637" y="87" type="line" smooth="yes"/>
      <point x="637" y="21"/>
      <point x="627" y="10"/>
      <point x="573" y="10" type="curve" smooth="yes"/>
      <point x="519" y="10" type="line"/>
    </contour>
  </outline>
</glyph>
<glyph name="afii10066" format="2">
  <advance width="691"/>
  <unicode hex="0431"/>
  <anchor x="345" y="0" name="bottom"/>
  <anchor x="345" y="765" name="top"/>
  <outline>
    <contour>
      <point x="339" y="-10" type="curve" smooth="yes"/>
      <point x="535" y="-10"/>
      <point x="622" y="95"/>
      <point x="622" y="260" type="curve" smooth="yes"/>
      <point x="622" y="425"/>
      <point x="535" y="512"/>
      <point x="365" y="512" type="curve" smooth="yes"/>
      <point x="259" y="512"/>
      <point x="122" y="479"/>
      <point x="84" y="343" type="curve"/>
      <point x="82" y="343" type="line"/>
      <point x="84" y="514"/>
      <point x="126" y="603"/>
      <point x="345" y="617" type="curve" smooth="yes"/>
      <point x="540" y="632"/>
      <point x="600" y="652"/>
      <point x="606" y="765" type="curve"/>
      <point x="597" y="765" type="line"/>
      <point x="584" y="711"/>
      <point x="414" y="710"/>
      <point x="376" y="707" type="curve" smooth="yes"/>
      <point x="120" y="679"/>
      <point x="69" y="501"/>
      <point x="69" y="311" type="curve" smooth="yes"/>
      <point x="69" y="102"/>
      <point x="154" y="-10"/>
    </contour>
    <contour>
      <point x="341" y="0" type="curve" smooth="yes"/>
      <point x="218" y="0"/>
      <point x="178" y="111"/>
      <point x="178" y="268" type="curve" smooth="yes"/>
      <point x="178" y="410"/>
      <point x="234" y="502"/>
      <point x="352" y="502" type="curve" smooth="yes"/>
      <point x="472" y="502"/>
      <point x="514" y="425"/>
      <point x="514" y="257" type="curve" smooth="yes"/>
      <point x="514" y="90"/>
      <point x="477" y="0"/>
    </contour>
  </outline>
</glyph>
<glyph name="afii10067" format="2">
  <advance width="698"/>
  <unicode hex="0432"/>
  <anchor x="350" y="0" name="bottom"/>
  <anchor x="350" y="536" name="top"/>
  <outline>
    <contour>
      <point x="31" y="0" type="line"/>
      <point x="405" y="0" type="line" smooth="yes"/>
      <point x="565" y="0"/>
      <point x="639" y="60"/>
      <point x="639" y="137" type="curve" smooth="yes"/>
      <point x="639" y="231"/>
      <point x="577" y="262"/>
      <point x="420" y="274" type="curve"/>
      <point x="420" y="276" type="line"/>
      <point x="555" y="288"/>
      <point x="610" y="340"/>
      <point x="610" y="404" type="curve" smooth="yes"/>
      <point x="610" y="492"/>
      <point x="550" y="536"/>
      <point x="391" y="536" type="curve" smooth="yes"/>
      <point x="31" y="536" type="line"/>
      <point x="31" y="526" type="line"/>
      <point x="69" y="526" type="line" smooth="yes"/>
      <point x="128" y="526"/>
      <point x="145" y="516"/>
      <point x="145" y="457" type="curve" smooth="yes"/>
      <point x="145" y="78" type="line" smooth="yes"/>
      <point x="145" y="17"/>
      <point x="129" y="10"/>
      <point x="68" y="10" type="curve" smooth="yes"/>
      <point x="31" y="10" type="line"/>
    </contour>
    <contour>
      <point x="251" y="10" type="line"/>
      <point x="251" y="270" type="line"/>
      <point x="363" y="270" type="line" smooth="yes"/>
      <point x="476" y="270"/>
      <point x="529" y="232"/>
      <point x="529" y="132" type="curve" smooth="yes"/>
      <point x="529" y="52"/>
      <point x="491" y="10"/>
      <point x="364" y="10" type="curve" smooth="yes"/>
    </contour>
    <contour>
      <point x="251" y="280" type="line"/>
      <point x="251" y="526" type="line"/>
      <point x="370" y="526" type="line" smooth="yes"/>
      <point x="480" y="526"/>
      <point x="506" y="478"/>
      <point x="506" y="404" type="curve" smooth="yes"/>
      <point x="506" y="315"/>
      <point x="442" y="280"/>
      <point x="349" y="280" type="curve" smooth="yes"/>
    </contour>
  </outline>
</glyph>
<glyph name="afii10073" format="2">
  <advance width="601"/>
  <unicode hex="0437"/>
  <anchor x="284" y="0" name="bottom"/>
  <anchor x="304" y="536" name="top"/>
  <outline>
    <contour>
      <point x="312" y="-10" type="curve" smooth="yes"/>
      <point x="479" y="-10"/>
      <point x="542" y="65"/>
      <point x="542" y="149" type="curve" smooth="yes"/>
      <point x="542" y="236"/>
      <point x="484" y="278"/>
      <point x="365" y="288" type="curve"/>
      <point x="365" y="290" type="line"/>
      <point x="471" y="298"/>
      <point x="524" y="328"/>
      <point x="524" y="412" type="curve" smooth="yes"/>
      <point x="524" y="493"/>
      <point x="435" y="547"/>
      <point x="289" y="547" type="curve" smooth="yes"/>
      <point x="163" y="547"/>
      <point x="87" y="513"/>
      <point x="87" y="450" type="curve" smooth="yes"/>
      <point x="87" y="422"/>
      <point x="94" y="402"/>
      <point x="168" y="402" type="curve"/>
      <point x="168" y="499"/>
      <point x="232" y="537"/>
      <point x="297" y="537" type="curve" smooth="yes"/>
      <point x="376" y="537"/>
      <point x="416" y="488"/>
      <point x="416" y="411" type="curve" smooth="yes"/>
      <point x="416" y="331"/>
      <point x="366" y="293"/>
      <point x="299" y="293" type="curve" smooth="yes"/>
      <point x="242" y="293" type="line"/>
      <point x="242" y="283" type="line"/>
      <point x="302" y="283" type="line" smooth="yes"/>
      <point x="385" y="283"/>
      <point x="434" y="238"/>
      <point x="434" y="150" type="curve" smooth="yes"/>
      <point x="434" y="55"/>
      <point x="388" y="2"/>
      <point x="278" y="2" type="curve" smooth="yes"/>
      <point x="175" y="2"/>
      <point x="104" y="45"/>
      <point x="81" y="135" type="curve"/>
      <point x="54" y="132"/>
      <point x="49" y="112"/>
      <point x="49" y="103" type="curve" smooth="yes"/>
      <point x="49" y="58"/>
      <point x="140" y="-10"/>
    </contour>
  </outline>
</glyph>
<glyph name="afii10094" format="2">
  <advance width="682"/>
  <unicode hex="044C"/>
  <anchor x="341" y="0" name="bottom"/>
  <anchor x="341" y="536" name="top"/>
  <outline>
    <contour>
      <point x="31" y="0" type="line"/>
      <point x="404" y="0" type="line" smooth="yes"/>
      <point x="568" y="0"/>
      <point x="639" y="71"/>
      <point x="639" y="162" type="curve" smooth="yes"/>
      <point x="639" y="276"/>
      <point x="535" y="301"/>
      <point x="408" y="301" type="curve" smooth="yes"/>
      <point x="251" y="301" type="line"/>
      <point x="251" y="458" type="line" smooth="yes"/>
      <point x="251" y="511"/>
      <point x="264" y="526"/>
      <point x="332" y="526" type="curve" smooth="yes"/>
      <point x="359" y="526" type="line"/>
      <point x="359" y="536" type="line"/>
      <point x="31" y="536" type="line"/>
      <point x="31" y="526" type="line"/>
      <point x="69" y="526" type="line" smooth="yes"/>
      <point x="136" y="526"/>
      <point x="145" y="511"/>
      <point x="145" y="453" type="curve" smooth="yes"/>
      <point x="145" y="78" type="line" smooth="yes"/>
      <point x="145" y="21"/>
      <point x="137" y="10"/>
      <point x="66" y="10" type="curve" smooth="yes"/>
      <point x="31" y="10" type="line"/>
    </contour>
    <contour>
      <point x="251" y="10" type="line"/>
      <point x="251" y="291" type="line"/>
      <point x="369" y="291" type="line" smooth="yes"/>
      <point x="487" y="291"/>
      <point x="529" y="253"/>
      <point x="529" y="164" type="curve" smooth="yes"/>
      <point x="529" y="54"/>
      <point x="490" y="10"/>
      <point x="346" y="10" type="curve" smooth="yes"/>
    </contour>
  </outline>
</glyph>
<glyph name="afii10097" format="2">
  <advance width="718"/>
  <unicode hex="044F"/>
  <anchor x="360" y="0" name="bottom"/>
  <anchor x="360" y="536" name="top"/>
  <outline>
    <contour>
      <point x="6" y="0" type="line"/>
      <point x="146" y="0"/>
      <point x="186" y="6"/>
      <point x="229" y="81" type="curve" smooth="yes"/>
      <point x="333" y="249" type="line"/>
      <point x="449" y="249" type="line"/>
      <point x="449" y="80" type="line" smooth="yes"/>
      <point x="449" y="19"/>
      <point x="434" y="10"/>
      <point x="384" y="10" type="curve" smooth="yes"/>
      <point x="356" y="10" type="line"/>
      <point x="356" y="0" type="line"/>
      <point x="664" y="0" type="line"/>
      <point x="664" y="10" type="line"/>
      <point x="625" y="10" type="line" smooth="yes"/>
      <point x="581" y="10"/>
      <point x="556" y="19"/>
      <point x="556" y="80" type="curve" smooth="yes"/>
      <point x="556" y="457" type="line" smooth="yes"/>
      <point x="556" y="516"/>
      <point x="563" y="526"/>
      <point x="636" y="526" type="curve" smooth="yes"/>
      <point x="667" y="526" type="line"/>
      <point x="667" y="536" type="line"/>
      <point x="316" y="536" type="line" smooth="yes"/>
      <point x="152" y="536"/>
      <point x="78" y="480"/>
      <point x="78" y="376" type="curve" smooth="yes"/>
      <point x="78" y="279"/>
      <point x="154" y="251"/>
      <point x="234" y="243" type="curve"/>
      <point x="110" y="64" type="line" smooth="yes"/>
      <point x="73" y="13"/>
      <point x="58" y="10"/>
      <point x="23" y="10" type="curve" smooth="yes"/>
      <point x="6" y="10" type="line"/>
    </contour>
    <contour>
      <point x="338" y="259" type="line" smooth="yes"/>
      <point x="231" y="259"/>
      <point x="187" y="289"/>
      <point x="187" y="379" type="curve" smooth="yes"/>
      <point x="187" y="497"/>
      <point x="234" y="526"/>
      <point x="375" y="526" type="curve" smooth="yes"/>
      <point x="449" y="526" type="line"/>
      <point x="449" y="259" type="line"/>
    </contour>
  </outline>
</glyph>
<glyph name="uni0462" format="2">
  <advance width="798"/>
  <unicode hex="0462"/>
  <anchor x="399" y="0" name="bottom"/>
  <anchor x="399" y="714" name="top"/>
  <outline>
    <contour>
      <point x="122" y="0" type="line"/>
      <point x="435" y="0" type="line" smooth="yes"/>
      <point x="645" y="0"/>
      <point x="757" y="58"/>
      <point x="757" y="191" type="curve" smooth="yes"/>
      <point x="757" y="334"/>
      <point x="668" y="389"/>
      <point x="472" y="389" type="curve" smooth="yes"/>
      <point x="348" y="389" type="line"/>
      <point x="348" y="558" type="line"/>
      <point x="483" y="558" type="line" smooth="yes"/>
      <point x="531" y="558"/>
      <point x="555" y="541"/>
      <point x="561" y="505" type="curve" smooth="yes"/>
      <point x="568" y="445" type="line"/>
      <point x="578" y="445" type="line"/>
      <point x="572" y="571" type="line"/>
      <point x="348" y="571" type="line"/>
      <point x="348" y="622" type="line" smooth="yes"/>
      <point x="348" y="689"/>
      <point x="360" y="704"/>
      <point x="401" y="704" type="curve" smooth="yes"/>
      <point x="454" y="704" type="line"/>
      <point x="454" y="714" type="line"/>
      <point x="122" y="714" type="line"/>
      <point x="122" y="704" type="line"/>
      <point x="187" y="704" type="line" smooth="yes"/>
      <point x="224" y="704"/>
      <point x="238" y="693"/>
      <point x="238" y="620" type="curve" smooth="yes"/>
      <point x="238" y="571" type="line"/>
      <point x="29" y="571" type="line"/>
      <point x="21" y="445" type="line"/>
      <point x="31" y="445" type="line"/>
      <point x="38" y="504" type="line" smooth="yes"/>
      <point x="44" y="541"/>
      <point x="69" y="558"/>
      <point x="114" y="558" type="curve" smooth="yes"/>
      <point x="238" y="558" type="line"/>
      <point x="238" y="88" type="line" smooth="yes"/>
      <point x="238" y="27"/>
      <point x="230" y="10"/>
      <point x="179" y="10" type="curve" smooth="yes"/>
      <point x="122" y="10" type="line"/>
    </contour>
    <contour>
      <point x="348" y="10" type="line"/>
      <point x="348" y="379" type="line"/>
      <point x="438" y="379" type="line" smooth="yes"/>
      <point x="581" y="379"/>
      <point x="640" y="343"/>
      <point x="640" y="192" type="curve" smooth="yes"/>
      <point x="640" y="55"/>
      <point x="584" y="10"/>
      <point x="431" y="10" type="curve" smooth="yes"/>
    </contour>
  </outline>
</glyph>
<glyph name="uni0463" format="2">
  <advance width="685"/>
  <unicode hex="0463"/>
  <anchor x="343" y="0" name="bottom"/>
  <anchor x="343" y="760" name="top"/>
  <outline>
    <contour>
      <point x="30" y="0" type="line"/>
      <point x="403" y="0" type="line" smooth="yes"/>
      <point x="568" y="0"/>
      <point x="637" y="66"/>
      <point x="637" y="166" type="curve" smooth="yes"/>
      <point x="637" y="273"/>
      <point x="541" y="299"/>
      <point x="403" y="299" type="curve" smooth="yes"/>
      <point x="256" y="299" type="line"/>
      <point x="256" y="486" type="line"/>
      <point x="430" y="486" type="line"/>
      <point x="430" y="496" type="line"/>
      <point x="256" y="496" type="line"/>
      <point x="256" y="760" type="line"/>
      <point x="30" y="760" type="line"/>
      <point x="30" y="750" type="line"/>
      <point x="77" y="750" type="line" smooth="yes"/>
      <point x="138" y="750"/>
      <point x="149" y="736"/>
      <point x="149" y="677" type="curve" smooth="yes"/>
      <point x="149" y="496" type="line"/>
      <point x="32" y="496" type="line"/>
      <point x="32" y="486" type="line"/>
      <point x="149" y="486" type="line"/>
      <point x="149" y="78" type="line" smooth="yes"/>
      <point x="149" y="22"/>
      <point x="143" y="10"/>
      <point x="63" y="10" type="curve" smooth="yes"/>
      <point x="30" y="10" type="line"/>
    </contour>
    <contour>
      <point x="255" y="10" type="line"/>
      <point x="255" y="289" type="line"/>
      <point x="370" y="289" type="line" smooth="yes"/>
      <point x="491" y="289"/>
      <point x="528" y="252"/>
      <point x="528" y="167" type="curve" smooth="yes"/>
      <point x="528" y="51"/>
      <point x="491" y="10"/>
      <point x="346" y="10" type="curve" smooth="yes"/>
    </contour>
  </outline>
</glyph>
<glyph name="uni0464" format="2">
  <advance width="1108"/>
  <unicode hex="0464"/>
  <anchor x="554" y="0" name="bottom"/>
  <anchor x="554" y="714" name="top"/>
  <outline>
    <contour>
      <point x="806" y="-10" type="curve" smooth="yes"/>
      <point x="998" y="-10"/>
      <point x="1054" y="77"/>
      <point x="1054" y="111" type="curve" smooth="yes"/>
      <point x="1054" y="130"/>
      <point x="1044" y="140"/>
      <point x="1029" y="147" type="curve"/>
      <point x="997" y="49"/>
      <point x="940" y="1"/>
      <point x="820" y="1" type="curve" smooth="yes"/>
      <point x="645" y="1"/>
      <point x="555" y="103"/>
      <point x="556" y="351" type="curve"/>
      <point x="906" y="351" type="line"/>
      <point x="906" y="361" type="line"/>
      <point x="556" y="361" type="line"/>
      <point x="562" y="619"/>
      <point x="653" y="714"/>
      <point x="792" y="714" type="curve" smooth="yes"/>
      <point x="930" y="714"/>
      <point x="968" y="666"/>
      <point x="968" y="541" type="curve"/>
      <point x="1026" y="541"/>
      <point x="1058" y="568"/>
      <point x="1058" y="603" type="curve" smooth="yes"/>
      <point x="1058" y="673"/>
      <point x="968" y="724"/>
      <point x="794" y="724" type="curve" smooth="yes"/>
      <point x="563" y="724"/>
      <point x="449" y="576"/>
      <point x="441" y="361" type="curve"/>
      <point x="275" y="361" type="line"/>
      <point x="275" y="635" type="line" smooth="yes"/>
      <point x="275" y="679"/>
      <point x="282" y="704"/>
      <point x="319" y="704" type="curve" smooth="yes"/>
      <point x="369" y="704" type="line"/>
      <point x="369" y="714" type="line"/>
      <point x="47" y="714" type="line"/>
      <point x="47" y="704" type="line"/>
      <point x="110" y="704" type="line" smooth="yes"/>
      <point x="153" y="704"/>
      <point x="166" y="679"/>
      <point x="166" y="630" type="curve" smooth="yes"/>
      <point x="166" y="82" type="line" smooth="yes"/>
      <point x="166" y="30"/>
      <point x="154" y="10"/>
      <point x="110" y="10" type="curve" smooth="yes"/>
      <point x="47" y="10" type="line"/>
      <point x="47" y="0" type="line"/>
      <point x="369" y="0" type="line"/>
      <point x="369" y="10" type="line"/>
      <point x="325" y="10" type="line" smooth="yes"/>
      <point x="285" y="10"/>
      <point x="275" y="30"/>
      <point x="275" y="81" type="curve" smooth="yes"/>
      <point x="275" y="351" type="line"/>
      <point x="441" y="351" type="line"/>
      <point x="441" y="118"/>
      <point x="566" y="-10"/>
    </contour>
  </outline>
</glyph>
<glyph name="uni0465" format="2">
  <advance width="932"/>
  <unicode hex="0465"/>
  <anchor x="466" y="0" name="bottom"/>
  <anchor x="466" y="536" name="top"/>
  <outline>
    <contour>
      <point x="676" y="-10" type="curve" smooth="yes"/>
      <point x="826" y="-10"/>
      <point x="884" y="54"/>
      <point x="884" y="90" type="curve" smooth="yes"/>
      <point x="884" y="125"/>
      <point x="859" y="133"/>
      <point x="842" y="135" type="curve"/>
      <point x="818" y="26"/>
      <point x="774" y="1"/>
      <point x="700" y="1" type="curve" smooth="yes"/>
      <point x="590" y="1"/>
      <point x="523" y="113"/>
      <point x="524" y="260" type="curve"/>
      <point x="814" y="260" type="line"/>
      <point x="814" y="270" type="line"/>
      <point x="524" y="270" type="line"/>
      <point x="531" y="462"/>
      <point x="594" y="536"/>
      <point x="690" y="536" type="curve" smooth="yes"/>
      <point x="782" y="536"/>
      <point x="809" y="472"/>
      <point x="809" y="394" type="curve"/>
      <point x="867" y="394"/>
      <point x="884" y="408"/>
      <point x="884" y="434" type="curve" smooth="yes"/>
      <point x="884" y="510"/>
      <point x="803" y="546"/>
      <point x="690" y="546" type="curve" smooth="yes"/>
      <point x="535" y="546"/>
      <point x="422" y="469"/>
      <point x="417" y="270" type="curve"/>
      <point x="256" y="270" type="line"/>
      <point x="256" y="458" type="line" smooth="yes"/>
      <point x="256" y="518"/>
      <point x="262" y="526"/>
      <point x="328" y="526" type="curve" smooth="yes"/>
      <point x="357" y="526" type="line"/>
      <point x="357" y="536" type="line"/>
      <point x="37" y="536" type="line"/>
      <point x="37" y="526" type="line"/>
      <point x="70" y="526" type="line" smooth="yes"/>
      <point x="138" y="526"/>
      <point x="150" y="518"/>
      <point x="150" y="458" type="curve" smooth="yes"/>
      <point x="150" y="78" type="line" smooth="yes"/>
      <point x="150" y="17"/>
      <point x="138" y="10"/>
      <point x="70" y="10" type="curve" smooth="yes"/>
      <point x="37" y="10" type="line"/>
      <point x="37" y="0" type="line"/>
      <point x="357" y="0" type="line"/>
      <point x="357" y="10" type="line"/>
      <point x="327" y="10" type="line" smooth="yes"/>
      <point x="265" y="10"/>
      <point x="256" y="16"/>
      <point x="256" y="78" type="curve" smooth="yes"/>
      <point x="256" y="260" type="line"/>
      <point x="417" y="260" type="line"/>
      <point x="420" y="79"/>
      <point x="518" y="-10"/>
    </contour>
  </outline>
</glyph>
<glyph name="uni0467" format="2">
  <advance width="704"/>
  <unicode hex="0467"/>
  <anchor x="361" y="0" name="bottom"/>
  <anchor x="368" y="536" name="top"/>
  <outline>
    <contour>
      <point x="6" y="0" type="line"/>
      <point x="194" y="0" type="line"/>
      <point x="194" y="10" type="line"/>
      <point x="134" y="9"/>
      <point x="114" y="13"/>
      <point x="114" y="38" type="curve" smooth="yes"/>
      <point x="114" y="63"/>
      <point x="128" y="90"/>
      <point x="150" y="138" type="curve" smooth="yes"/>
      <point x="212" y="271" type="line"/>
      <point x="285" y="271" type="line"/>
      <point x="285" y="0" type="line"/>
      <point x="365" y="0" type="line"/>
      <point x="365" y="271" type="line"/>
      <point x="428" y="271" type="line"/>
      <point x="509" y="100" type="line" smooth="yes"/>
      <point x="520" y="78"/>
      <point x="534" y="51"/>
      <point x="534" y="36" type="curve" smooth="yes"/>
      <point x="534" y="11"/>
      <point x="519" y="9"/>
      <point x="467" y="10" type="curve"/>
      <point x="467" y="0" type="line"/>
      <point x="696" y="0" type="line"/>
      <point x="696" y="10" type="line"/>
      <point x="679" y="9"/>
      <point x="661" y="11"/>
      <point x="641" y="56" type="curve" smooth="yes"/>
      <point x="407" y="536" type="line"/>
      <point x="324" y="536" type="line"/>
      <point x="111" y="82" type="line" smooth="yes"/>
      <point x="84" y="20"/>
      <point x="85" y="10"/>
      <point x="22" y="10" type="curve" smooth="yes"/>
      <point x="6" y="10" type="line"/>
    </contour>
    <contour>
      <point x="218" y="281" type="line"/>
      <point x="273" y="412" type="line" smooth="yes"/>
      <point x="297" y="462"/>
      <point x="314" y="492"/>
      <point x="320" y="503" type="curve"/>
      <point x="324" y="494"/>
      <point x="345" y="461"/>
      <point x="363" y="424" type="curve" smooth="yes"/>
      <point x="425" y="281" type="line"/>
    </contour>
  </outline>
</glyph>
<glyph name="uni046D" format="2">
  <advance width="1128"/>
  <unicode hex="046D"/>
  <anchor x="520" y="0" name="bottom"/>
  <anchor x="520" y="536" name="top"/>
  <outline>
    <contour>
      <point x="35" y="0" type="line"/>
      <point x="250" y="0" type="line"/>
      <point x="250" y="287" type="line"/>
      <point x="530" y="287" type="line"/>
      <point x="468" y="271"/>
      <point x="429" y="238"/>
      <point x="397" y="173" type="curve" smooth="yes"/>
      <point x="356" y="101" type="line" smooth="yes"/>
      <point x="312" y="12"/>
      <point x="297" y="10"/>
      <point x="282" y="10" type="curve" smooth="yes"/>
      <point x="274" y="10" type="line"/>
      <point x="274" y="-2" type="line"/>
      <point x="311" y="-2" type="line" smooth="yes"/>
      <point x="376" y="-2"/>
      <point x="422" y="22"/>
      <point x="465" y="113" type="curve" smooth="yes"/>
      <point x="508" y="207" type="line" smooth="yes"/>
      <point x="542" y="276"/>
      <point x="564" y="286"/>
      <point x="636" y="286" type="curve"/>
      <point x="636" y="75" type="line" smooth="yes"/>
      <point x="636" y="18"/>
      <point x="632" y="11"/>
      <point x="606" y="10" type="curve" smooth="yes"/>
      <point x="557" y="10" type="line"/>
      <point x="557" y="-2" type="line"/>
      <point x="823" y="-2" type="line"/>
      <point x="823" y="10" type="line"/>
      <point x="771" y="10" type="line" smooth="yes"/>
      <point x="749" y="10"/>
      <point x="743" y="19"/>
      <point x="743" y="78" type="curve" smooth="yes"/>
      <point x="743" y="286" type="line"/>
      <point x="812" y="286"/>
      <point x="846" y="271"/>
      <point x="874" y="211" type="curve" smooth="yes"/>
      <point x="917" y="112" type="line" smooth="yes"/>
      <point x="956" y="23"/>
      <point x="1009" y="-2"/>
      <point x="1077" y="-2" type="curve" smooth="yes"/>
      <point x="1116" y="-2" type="line"/>
      <point x="1116" y="10" type="line"/>
      <point x="1100" y="10" type="line" smooth="yes"/>
      <point x="1083" y="10"/>
      <point x="1071" y="6"/>
      <point x="1026" y="100" type="curve" smooth="yes"/>
      <point x="983" y="179" type="line" smooth="yes"/>
      <point x="937" y="270"/>
      <point x="865" y="297"/>
      <point x="748" y="297" type="curve"/>
      <point x="1001" y="525" type="line"/>
      <point x="1001" y="536" type="line"/>
      <point x="390" y="536" type="line"/>
      <point x="390" y="525" type="line"/>
      <point x="629" y="297" type="line"/>
      <point x="250" y="297" type="line"/>
      <point x="250" y="461" type="line" smooth="yes"/>
      <point x="250" y="524"/>
      <point x="278" y="526"/>
      <point x="320" y="526" type="curve" smooth="yes"/>
      <point x="335" y="526" type="line"/>
      <point x="335" y="536" type="line"/>
      <point x="35" y="536" type="line"/>
      <point x="35" y="526" type="line"/>
      <point x="70" y="526" type="line" smooth="yes"/>
      <point x="118" y="526"/>
      <point x="148" y="524"/>
      <point x="148" y="461" type="curve" smooth="yes"/>
      <point x="148" y="75" type="line" smooth="yes"/>
      <point x="148" y="12"/>
      <point x="121" y="10"/>
      <point x="64" y="10" type="curve" smooth="yes"/>
      <point x="35" y="10" type="line"/>
    </contour>
    <contour>
      <point x="737" y="302" type="line"/>
      <point x="509" y="526" type="line"/>
      <point x="979" y="526" type="line"/>
      <point x="739" y="302" type="line"/>
    </contour>
  </outline>
</glyph>
<glyph name="uni0472" format="2">
  <advance width="887"/>
  <unicode hex="0472"/>
  <anchor x="444" y="0" name="bottom"/>
  <anchor x="444" y="714" name="top"/>
  <outline>
    <contour>
      <point x="445" y="-10" type="curve" smooth="yes"/>
      <point x="709" y="-10"/>
      <point x="818" y="142"/>
      <point x="818" y="358" type="curve" smooth="yes"/>
      <point x="818" y="574"/>
      <point x="706" y="725"/>
      <point x="446" y="725" type="curve" smooth="yes"/>
      <point x="198" y="725"/>
      <point x="68" y="585"/>
      <point x="68" y="359" type="curve" smooth="yes"/>
      <point x="68" y="123"/>
      <point x="194" y="-10"/>
    </contour>
    <contour>
      <point x="445" y="0" type="curve" smooth="yes"/>
      <point x="263" y="0"/>
      <point x="180" y="106"/>
      <point x="182" y="383" type="curve"/>
      <point x="218" y="397"/>
      <point x="249" y="397"/>
      <point x="295" y="397" type="curve" smooth="yes"/>
      <point x="376" y="397"/>
      <point x="471" y="319"/>
      <point x="566" y="319" type="curve" smooth="yes"/>
      <point x="617" y="319"/>
      <point x="662" y="340"/>
      <point x="705" y="376" type="curve"/>
      <point x="704" y="105"/>
      <point x="636" y="0"/>
    </contour>
    <contour>
      <point x="590" y="364" type="curve" smooth="yes"/>
      <point x="517" y="364"/>
      <point x="427" y="444"/>
      <point x="320" y="444" type="curve" smooth="yes"/>
      <point x="277" y="444"/>
      <point x="236" y="429"/>
      <point x="182" y="393" type="curve"/>
      <point x="190" y="613"/>
      <point x="277" y="715"/>
      <point x="446" y="715" type="curve" smooth="yes"/>
      <point x="622" y="715"/>
      <point x="695" y="614"/>
      <point x="704" y="386" type="curve"/>
      <point x="670" y="369"/>
      <point x="632" y="364"/>
    </contour>
  </outline>
</glyph>
<glyph name="uni047A" format="2">
  <advance width="955"/>
  <unicode hex="047A"/>
  <outline>
    <contour>
      <point x="477" y="-70" type="curve" smooth="yes"/>
      <point x="506" y="-70"/>
      <point x="532" y="-57"/>
      <point x="534" y="-7" type="curve"/>
      <point x="785" y="7"/>
      <point x="887" y="144"/>
      <point x="887" y="358" type="curve" smooth="yes"/>
      <point x="887" y="569"/>
      <point x="781" y="707"/>
      <point x="534" y="722" type="curve"/>
      <point x="532" y="774"/>
      <point x="506" y="786"/>
      <point x="477" y="786" type="curve" smooth="yes"/>
      <point x="447" y="786"/>
      <point x="424" y="776"/>
      <point x="420" y="722" type="curve"/>
      <point x="195" y="704"/>
      <point x="69" y="577"/>
      <point x="69" y="359" type="curve" smooth="yes"/>
      <point x="69" y="130"/>
      <point x="193" y="10"/>
      <point x="421" y="-7" type="curve"/>
      <point x="424" y="-57"/>
      <point x="447" y="-70"/>
    </contour>
    <contour>
      <point x="423" y="11" type="curve"/>
      <point x="260" y="35"/>
      <point x="183" y="163"/>
      <point x="183" y="358" type="curve" smooth="yes"/>
      <point x="183" y="547"/>
      <point x="263" y="681"/>
      <point x="421" y="705" type="curve"/>
      <point x="427" y="666"/>
      <point x="449" y="659"/>
      <point x="477" y="659" type="curve" smooth="yes"/>
      <point x="505" y="659"/>
      <point x="528" y="666"/>
      <point x="533" y="705" type="curve"/>
      <point x="708" y="684"/>
      <point x="773" y="549"/>
      <point x="773" y="358" type="curve" smooth="yes"/>
      <point x="773" y="166"/>
      <point x="708" y="31"/>
      <point x="534" y="10" type="curve"/>
      <point x="529" y="50"/>
      <point x="504" y="58"/>
      <point x="477" y="58" type="curve" smooth="yes"/>
      <point x="449" y="58"/>
      <point x="427" y="50"/>
    </contour>
  </outline>
</glyph>
<glyph name="uni047B" format="2">
  <advance width="733"/>
  <unicode hex="047B"/>
  <outline>
    <contour>
      <point x="364" y="-59" type="curve" smooth="yes"/>
      <point x="388" y="-59"/>
      <point x="405" y="-47"/>
      <point x="411" y="-8" type="curve"/>
      <point x="578" y="5"/>
      <point x="664" y="98"/>
      <point x="664" y="269" type="curve" smooth="yes"/>
      <point x="664" y="449"/>
      <point x="571" y="531"/>
      <point x="417" y="544" type="curve"/>
      <point x="411" y="584"/>
      <point x="396" y="597"/>
      <point x="370" y="597" type="curve" smooth="yes"/>
      <point x="346" y="597"/>
      <point x="328" y="584"/>
      <point x="323" y="544" type="curve"/>
      <point x="158" y="531"/>
      <point x="69" y="443"/>
      <point x="69" y="269" type="curve" smooth="yes"/>
      <point x="69" y="98"/>
      <point x="165" y="7"/>
      <point x="317" y="-8" type="curve"/>
      <point x="323" y="-47"/>
      <point x="340" y="-59"/>
    </contour>
    <contour>
      <point x="314" y="15" type="curve"/>
      <point x="215" y="37"/>
      <point x="173" y="144"/>
      <point x="173" y="269" type="curve" smooth="yes"/>
      <point x="173" y="412"/>
      <point x="217" y="500"/>
      <point x="321" y="522" type="curve"/>
      <point x="324" y="488"/>
      <point x="342" y="471"/>
      <point x="370" y="471" type="curve" smooth="yes"/>
      <point x="400" y="471"/>
      <point x="416" y="488"/>
      <point x="420" y="521" type="curve"/>
      <point x="514" y="499"/>
      <point x="561" y="416"/>
      <point x="561" y="269" type="curve" smooth="yes"/>
      <point x="561" y="150"/>
      <point x="520" y="38"/>
      <point x="414" y="15" type="curve"/>
      <point x="411" y="49"/>
      <point x="395" y="67"/>
      <point x="364" y="67" type="curve" smooth="yes"/>
      <point x="335" y="67"/>
      <point x="317" y="49"/>
    </contour>
  </outline>
</glyph>
<glyph name="dasiapneumatacomb.cy" format="2">
  <unicode hex="0485"/>
  <anchor x="5" y="536" name="_top"/>
  <anchor x="5" y="807" name="top"/>
  <outline>
    <contour>
      <point x="81" y="603" type="curve"/>
      <point x="81" y="613" type="line"/>
      <point x="25" y="616"/>
      <point x="-20" y="642"/>
      <point x="-20" y="684" type="curve" smooth="yes"/>
      <point x="-20" y="733"/>
      <point x="65" y="695"/>
      <point x="65" y="765" type="curve" smooth="yes"/>
      <point x="65" y="804"/>
      <point x="35" y="822"/>
      <point x="2" y="822" type="curve" smooth="yes"/>
      <point x="-43" y="822"/>
      <point x="-72" y="786"/>
      <point x="-72" y="730" type="curve" smooth="yes"/>
      <point x="-72" y="659"/>
      <point x="-30" y="614"/>
    </contour>
  </outline>
</glyph>
<glyph name="pokrytiecomb.cy" format="2">
  <unicode hex="0487"/>
  <anchor x="3" y="536" name="_top"/>
  <outline>
    <contour>
      <point x="-187" y="756" type="curve"/>
      <point x="-176" y="756" type="line"/>
      <point x="-174" y="768" type="line" smooth="yes"/>
      <point x="-168" y="797"/>
      <point x="-150" y="821"/>
      <point x="-89" y="821" type="curve" smooth="yes"/>
      <point x="-4" y="821"/>
      <point x="-1" y="756"/>
      <point x="168" y="756" type="curve" smooth="yes"/>
      <point x="192" y="756" type="line"/>
      <point x="192" y="831" type="line"/>
      <point x="166" y="831" type="line" smooth="yes"/>
      <point x="58" y="831"/>
      <point x="13" y="888"/>
      <point x="-62" y="888" type="curve" smooth="yes"/>
      <point x="-127" y="888"/>
      <point x="-178" y="835"/>
    </contour>
  </outline>
</glyph>
